<?xml version="1.0" encoding="utf-8" standalone="no"?>
<!DOCTYPE svg PUBLIC "-//W3C//DTD SVG 1.1//EN"
  "http://www.w3.org/Graphics/SVG/1.1/DTD/svg11.dtd">
<svg xmlns:xlink="http://www.w3.org/1999/xlink" width="856.8pt" height="569.4375pt" viewBox="0 0 856.8 569.4375" xmlns="http://www.w3.org/2000/svg" version="1.1">
 <metadata>
  <rdf:RDF xmlns:dc="http://purl.org/dc/elements/1.1/" xmlns:cc="http://creativecommons.org/ns#" xmlns:rdf="http://www.w3.org/1999/02/22-rdf-syntax-ns#">
   <cc:Work>
    <dc:type rdf:resource="http://purl.org/dc/dcmitype/StillImage"/>
    <dc:date>2025-10-07T11:33:07.876327</dc:date>
    <dc:format>image/svg+xml</dc:format>
    <dc:creator>
     <cc:Agent>
      <dc:title>Matplotlib v3.10.1, https://matplotlib.org/</dc:title>
     </cc:Agent>
    </dc:creator>
   </cc:Work>
  </rdf:RDF>
 </metadata>
 <defs>
  <style type="text/css">*{stroke-linejoin: round; stroke-linecap: butt}</style>
 </defs>
 <g id="figure_1">
  <g id="patch_1">
   <path d="M 0 569.4375 
L 856.8 569.4375 
L 856.8 0 
L 0 0 
z
" style="fill: #ffffff"/>
  </g>
  <g id="axes_1">
   <g id="patch_2">
    <path d="M 49.32 201.4503 
L 302.04 201.4503 
Q 310.464 201.4503 310.464 196.2215 
L 310.464 91.6455 
Q 310.464 86.4167 302.04 86.4167 
L 49.32 86.4167 
Q 40.896 86.4167 40.896 91.6455 
L 40.896 196.2215 
Q 40.896 201.4503 49.32 201.4503 
z
" clip-path="url(#pd445ab6f89)" style="fill: #2e86ab; opacity: 0.2; stroke: #2e86ab; stroke-width: 2; stroke-linejoin: miter"/>
   </g>
   <g id="patch_3">
    <path d="M 554.76 201.4503 
L 807.48 201.4503 
Q 815.904 201.4503 815.904 196.2215 
L 815.904 91.6455 
Q 815.904 86.4167 807.48 86.4167 
L 554.76 86.4167 
Q 546.336 86.4167 546.336 91.6455 
L 546.336 196.2215 
Q 546.336 201.4503 554.76 201.4503 
z
" clip-path="url(#pd445ab6f89)" style="fill: #06a77d; opacity: 0.2; stroke: #06a77d; stroke-width: 2; stroke-linejoin: miter"/>
   </g>
   <g id="patch_4">
    <path d="M 312.461512 143.9335 
Q 428.397752 143.9335 539.861856 143.9335 
" clip-path="url(#pd445ab6f89)" style="fill: none; stroke: #f18f01; stroke-width: 4; stroke-linecap: round"/>
    <path d="M 527.861856 137.9335 
L 539.861856 143.9335 
L 527.861856 149.9335 
" clip-path="url(#pd445ab6f89)" style="fill: none; stroke: #f18f01; stroke-width: 4; stroke-linecap: round"/>
   </g>
   <g id="patch_5">
    <path d="M 91.44 292.9543 
L 765.36 292.9543 
Q 769.572 292.9543 769.572 290.3399 
L 769.572 258.9671 
Q 769.572 256.3527 765.36 256.3527 
L 91.44 256.3527 
Q 87.228 256.3527 87.228 258.9671 
L 87.228 290.3399 
Q 87.228 292.9543 91.44 292.9543 
z
" clip-path="url(#pd445ab6f89)" style="fill: #ffffe0; opacity: 0.5; stroke: #f18f01; stroke-linejoin: miter"/>
   </g>
   <g id="patch_6">
    <path d="M 91.44 345.2423 
L 765.36 345.2423 
Q 769.572 345.2423 769.572 342.6279 
L 769.572 311.2551 
Q 769.572 308.6407 765.36 308.6407 
L 91.44 308.6407 
Q 87.228 308.6407 87.228 311.2551 
L 87.228 342.6279 
Q 87.228 345.2423 91.44 345.2423 
z
" clip-path="url(#pd445ab6f89)" style="fill: #ffffe0; opacity: 0.5; stroke: #f18f01; stroke-linejoin: miter"/>
   </g>
   <g id="patch_7">
    <path d="M 91.44 397.5303 
L 765.36 397.5303 
Q 769.572 397.5303 769.572 394.9159 
L 769.572 363.5431 
Q 769.572 360.9287 765.36 360.9287 
L 91.44 360.9287 
Q 87.228 360.9287 87.228 363.5431 
L 87.228 394.9159 
Q 87.228 397.5303 91.44 397.5303 
z
" clip-path="url(#pd445ab6f89)" style="fill: #ffffe0; opacity: 0.5; stroke: #f18f01; stroke-linejoin: miter"/>
   </g>
   <g id="patch_8">
    <path d="M 133.56 515.1783 
L 723.24 515.1783 
Q 731.664 515.1783 731.664 509.9495 
L 731.664 431.5175 
Q 731.664 426.2887 723.24 426.2887 
L 133.56 426.2887 
Q 125.136 426.2887 125.136 431.5175 
L 125.136 509.9495 
Q 125.136 515.1783 133.56 515.1783 
z
" clip-path="url(#pd445ab6f89)" style="fill: #f08080; opacity: 0.2; stroke: #8b0000; stroke-width: 2; stroke-linejoin: miter"/>
   </g>
   <g id="text_1">
    <!-- MaxEnt on $V_K$ -->
    <g transform="translate(127.19 117.7895) scale(0.13 -0.13)">
     <defs>
      <path id="DejaVuSans-Bold-4d" d="M 588 4666 
L 2119 4666 
L 3181 2169 
L 4250 4666 
L 5778 4666 
L 5778 0 
L 4641 0 
L 4641 3413 
L 3566 897 
L 2803 897 
L 1728 3413 
L 1728 0 
L 588 0 
L 588 4666 
z
" transform="scale(0.015625)"/>
      <path id="DejaVuSans-Bold-61" d="M 2106 1575 
Q 1756 1575 1579 1456 
Q 1403 1338 1403 1106 
Q 1403 894 1545 773 
Q 1688 653 1941 653 
Q 2256 653 2472 879 
Q 2688 1106 2688 1447 
L 2688 1575 
L 2106 1575 
z
M 3816 1997 
L 3816 0 
L 2688 0 
L 2688 519 
Q 2463 200 2181 54 
Q 1900 -91 1497 -91 
Q 953 -91 614 226 
Q 275 544 275 1050 
Q 275 1666 698 1953 
Q 1122 2241 2028 2241 
L 2688 2241 
L 2688 2328 
Q 2688 2594 2478 2717 
Q 2269 2841 1825 2841 
Q 1466 2841 1156 2769 
Q 847 2697 581 2553 
L 581 3406 
Q 941 3494 1303 3539 
Q 1666 3584 2028 3584 
Q 2975 3584 3395 3211 
Q 3816 2838 3816 1997 
z
" transform="scale(0.015625)"/>
      <path id="DejaVuSans-Bold-78" d="M 1422 1791 
L 159 3500 
L 1344 3500 
L 2059 2463 
L 2784 3500 
L 3969 3500 
L 2706 1797 
L 4031 0 
L 2847 0 
L 2059 1106 
L 1281 0 
L 97 0 
L 1422 1791 
z
" transform="scale(0.015625)"/>
      <path id="DejaVuSans-Bold-45" d="M 588 4666 
L 3834 4666 
L 3834 3756 
L 1791 3756 
L 1791 2888 
L 3713 2888 
L 3713 1978 
L 1791 1978 
L 1791 909 
L 3903 909 
L 3903 0 
L 588 0 
L 588 4666 
z
" transform="scale(0.015625)"/>
      <path id="DejaVuSans-Bold-6e" d="M 4056 2131 
L 4056 0 
L 2931 0 
L 2931 347 
L 2931 1631 
Q 2931 2084 2911 2256 
Q 2891 2428 2841 2509 
Q 2775 2619 2662 2680 
Q 2550 2741 2406 2741 
Q 2056 2741 1856 2470 
Q 1656 2200 1656 1722 
L 1656 0 
L 538 0 
L 538 3500 
L 1656 3500 
L 1656 2988 
Q 1909 3294 2193 3439 
Q 2478 3584 2822 3584 
Q 3428 3584 3742 3212 
Q 4056 2841 4056 2131 
z
" transform="scale(0.015625)"/>
      <path id="DejaVuSans-Bold-74" d="M 1759 4494 
L 1759 3500 
L 2913 3500 
L 2913 2700 
L 1759 2700 
L 1759 1216 
Q 1759 972 1856 886 
Q 1953 800 2241 800 
L 2816 800 
L 2816 0 
L 1856 0 
Q 1194 0 917 276 
Q 641 553 641 1216 
L 641 2700 
L 84 2700 
L 84 3500 
L 641 3500 
L 641 4494 
L 1759 4494 
z
" transform="scale(0.015625)"/>
      <path id="DejaVuSans-Bold-20" transform="scale(0.015625)"/>
      <path id="DejaVuSans-Bold-6f" d="M 2203 2784 
Q 1831 2784 1636 2517 
Q 1441 2250 1441 1747 
Q 1441 1244 1636 976 
Q 1831 709 2203 709 
Q 2569 709 2762 976 
Q 2956 1244 2956 1747 
Q 2956 2250 2762 2517 
Q 2569 2784 2203 2784 
z
M 2203 3584 
Q 3106 3584 3614 3096 
Q 4122 2609 4122 1747 
Q 4122 884 3614 396 
Q 3106 -91 2203 -91 
Q 1297 -91 786 396 
Q 275 884 275 1747 
Q 275 2609 786 3096 
Q 1297 3584 2203 3584 
z
" transform="scale(0.015625)"/>
      <path id="DejaVuSans-Oblique-56" d="M 1319 0 
L 500 4666 
L 1119 4666 
L 1797 653 
L 4063 4666 
L 4750 4666 
L 2053 0 
L 1319 0 
z
" transform="scale(0.015625)"/>
      <path id="DejaVuSans-Oblique-4b" d="M 1081 4666 
L 1716 4666 
L 1331 2700 
L 3781 4666 
L 4622 4666 
L 1850 2438 
L 3878 0 
L 3109 0 
L 1247 2272 
L 806 0 
L 172 0 
L 1081 4666 
z
" transform="scale(0.015625)"/>
     </defs>
     <use xlink:href="#DejaVuSans-Bold-4d" transform="translate(0 0.09375)"/>
     <use xlink:href="#DejaVuSans-Bold-61" transform="translate(99.511719 0.09375)"/>
     <use xlink:href="#DejaVuSans-Bold-78" transform="translate(166.992188 0.09375)"/>
     <use xlink:href="#DejaVuSans-Bold-45" transform="translate(231.494141 0.09375)"/>
     <use xlink:href="#DejaVuSans-Bold-6e" transform="translate(299.804688 0.09375)"/>
     <use xlink:href="#DejaVuSans-Bold-74" transform="translate(370.996094 0.09375)"/>
     <use xlink:href="#DejaVuSans-Bold-20" transform="translate(418.798828 0.09375)"/>
     <use xlink:href="#DejaVuSans-Bold-6f" transform="translate(453.613281 0.09375)"/>
     <use xlink:href="#DejaVuSans-Bold-6e" transform="translate(522.314453 0.09375)"/>
     <use xlink:href="#DejaVuSans-Bold-20" transform="translate(593.505859 0.09375)"/>
     <use xlink:href="#DejaVuSans-Oblique-56" transform="translate(628.320312 0.09375)"/>
     <use xlink:href="#DejaVuSans-Oblique-4b" transform="translate(696.728516 -16.3125) scale(0.7)"/>
    </g>
   </g>
   <g id="text_2">
    <!-- $P(\sigma) = \frac{1}{|V_K|}$ -->
    <g transform="translate(142.99 143.9335) scale(0.14 -0.14)">
     <defs>
      <path id="DejaVuSans-Oblique-50" d="M 1081 4666 
L 2541 4666 
Q 3178 4666 3512 4369 
Q 3847 4072 3847 3500 
Q 3847 2731 3353 2303 
Q 2859 1875 1966 1875 
L 1172 1875 
L 806 0 
L 172 0 
L 1081 4666 
z
M 1613 4147 
L 1275 2394 
L 2069 2394 
Q 2606 2394 2893 2669 
Q 3181 2944 3181 3456 
Q 3181 3784 2986 3965 
Q 2791 4147 2438 4147 
L 1613 4147 
z
" transform="scale(0.015625)"/>
      <path id="DejaVuSans-28" d="M 1984 4856 
Q 1566 4138 1362 3434 
Q 1159 2731 1159 2009 
Q 1159 1288 1364 580 
Q 1569 -128 1984 -844 
L 1484 -844 
Q 1016 -109 783 600 
Q 550 1309 550 2009 
Q 550 2706 781 3412 
Q 1013 4119 1484 4856 
L 1984 4856 
z
" transform="scale(0.015625)"/>
      <path id="DejaVuSans-Oblique-3c3" d="M 2219 3044 
Q 1744 3044 1422 2700 
Q 1081 2341 969 1747 
Q 844 1119 1044 756 
Q 1241 397 1706 397 
Q 2166 397 2503 759 
Q 2844 1122 2966 1747 
Q 3075 2319 2881 2700 
Q 2700 3044 2219 3044 
z
M 2309 3503 
L 4219 3500 
L 4106 2925 
L 3463 2925 
Q 3706 2438 3575 1747 
Q 3406 888 2884 400 
Q 2359 -91 1609 -91 
Q 856 -91 525 400 
Q 194 888 363 1747 
Q 528 2609 1050 3097 
Q 1484 3503 2309 3503 
z
" transform="scale(0.015625)"/>
      <path id="DejaVuSans-29" d="M 513 4856 
L 1013 4856 
Q 1481 4119 1714 3412 
Q 1947 2706 1947 2009 
Q 1947 1309 1714 600 
Q 1481 -109 1013 -844 
L 513 -844 
Q 928 -128 1133 580 
Q 1338 1288 1338 2009 
Q 1338 2731 1133 3434 
Q 928 4138 513 4856 
z
" transform="scale(0.015625)"/>
      <path id="DejaVuSans-3d" d="M 678 2906 
L 4684 2906 
L 4684 2381 
L 678 2381 
L 678 2906 
z
M 678 1631 
L 4684 1631 
L 4684 1100 
L 678 1100 
L 678 1631 
z
" transform="scale(0.015625)"/>
      <path id="DejaVuSans-31" d="M 794 531 
L 1825 531 
L 1825 4091 
L 703 3866 
L 703 4441 
L 1819 4666 
L 2450 4666 
L 2450 531 
L 3481 531 
L 3481 0 
L 794 0 
L 794 531 
z
" transform="scale(0.015625)"/>
      <path id="DejaVuSans-7c" d="M 1344 4891 
L 1344 -1509 
L 813 -1509 
L 813 4891 
L 1344 4891 
z
" transform="scale(0.015625)"/>
     </defs>
     <use xlink:href="#DejaVuSans-Oblique-50" transform="translate(0 0.16875)"/>
     <use xlink:href="#DejaVuSans-28" transform="translate(60.302734 0.16875)"/>
     <use xlink:href="#DejaVuSans-Oblique-3c3" transform="translate(99.316406 0.16875)"/>
     <use xlink:href="#DejaVuSans-29" transform="translate(162.695312 0.16875)"/>
     <use xlink:href="#DejaVuSans-3d" transform="translate(221.191406 0.16875)"/>
     <use xlink:href="#DejaVuSans-31" transform="translate(366.462891 43.965625) scale(0.7)"/>
     <use xlink:href="#DejaVuSans-7c" transform="translate(324.462891 -40.779687) scale(0.7)"/>
     <use xlink:href="#DejaVuSans-Oblique-56" transform="translate(348.046875 -40.779687) scale(0.7)"/>
     <use xlink:href="#DejaVuSans-Oblique-4b" transform="translate(395.932617 -52.264062) scale(0.49)"/>
     <use xlink:href="#DejaVuSans-7c" transform="translate(429.979004 -40.779687) scale(0.7)"/>
     <path d="M 324.462891 18.965625 
L 324.462891 25.215625 
L 453.562988 25.215625 
L 453.562988 18.965625 
L 324.462891 18.965625 
z
"/>
    </g>
   </g>
   <g id="text_3">
    <!-- Quantum Amplitudes -->
    <g transform="translate(603.606484 117.7895) scale(0.13 -0.13)">
     <defs>
      <path id="DejaVuSans-Bold-51" d="M 2847 -84 
L 2753 -84 
Q 1600 -84 959 553 
Q 319 1191 319 2328 
Q 319 3463 958 4106 
Q 1597 4750 2719 4750 
Q 3853 4750 4486 4112 
Q 5119 3475 5119 2328 
Q 5119 1541 4783 972 
Q 4447 403 3816 116 
L 4756 -934 
L 3609 -934 
L 2847 -84 
z
M 2719 3878 
Q 2169 3878 1866 3472 
Q 1563 3066 1563 2328 
Q 1563 1578 1859 1179 
Q 2156 781 2719 781 
Q 3272 781 3575 1187 
Q 3878 1594 3878 2328 
Q 3878 3066 3575 3472 
Q 3272 3878 2719 3878 
z
" transform="scale(0.015625)"/>
      <path id="DejaVuSans-Bold-75" d="M 500 1363 
L 500 3500 
L 1625 3500 
L 1625 3150 
Q 1625 2866 1622 2436 
Q 1619 2006 1619 1863 
Q 1619 1441 1641 1255 
Q 1663 1069 1716 984 
Q 1784 875 1895 815 
Q 2006 756 2150 756 
Q 2500 756 2700 1025 
Q 2900 1294 2900 1772 
L 2900 3500 
L 4019 3500 
L 4019 0 
L 2900 0 
L 2900 506 
Q 2647 200 2364 54 
Q 2081 -91 1741 -91 
Q 1134 -91 817 281 
Q 500 653 500 1363 
z
" transform="scale(0.015625)"/>
      <path id="DejaVuSans-Bold-6d" d="M 3781 2919 
Q 3994 3244 4286 3414 
Q 4578 3584 4928 3584 
Q 5531 3584 5847 3212 
Q 6163 2841 6163 2131 
L 6163 0 
L 5038 0 
L 5038 1825 
Q 5041 1866 5042 1909 
Q 5044 1953 5044 2034 
Q 5044 2406 4934 2573 
Q 4825 2741 4581 2741 
Q 4263 2741 4089 2478 
Q 3916 2216 3909 1719 
L 3909 0 
L 2784 0 
L 2784 1825 
Q 2784 2406 2684 2573 
Q 2584 2741 2328 2741 
Q 2006 2741 1831 2477 
Q 1656 2213 1656 1722 
L 1656 0 
L 531 0 
L 531 3500 
L 1656 3500 
L 1656 2988 
Q 1863 3284 2130 3434 
Q 2397 3584 2719 3584 
Q 3081 3584 3359 3409 
Q 3638 3234 3781 2919 
z
" transform="scale(0.015625)"/>
      <path id="DejaVuSans-Bold-41" d="M 3419 850 
L 1538 850 
L 1241 0 
L 31 0 
L 1759 4666 
L 3194 4666 
L 4922 0 
L 3713 0 
L 3419 850 
z
M 1838 1716 
L 3116 1716 
L 2478 3572 
L 1838 1716 
z
" transform="scale(0.015625)"/>
      <path id="DejaVuSans-Bold-70" d="M 1656 506 
L 1656 -1331 
L 538 -1331 
L 538 3500 
L 1656 3500 
L 1656 2988 
Q 1888 3294 2169 3439 
Q 2450 3584 2816 3584 
Q 3463 3584 3878 3070 
Q 4294 2556 4294 1747 
Q 4294 938 3878 423 
Q 3463 -91 2816 -91 
Q 2450 -91 2169 54 
Q 1888 200 1656 506 
z
M 2400 2772 
Q 2041 2772 1848 2508 
Q 1656 2244 1656 1747 
Q 1656 1250 1848 986 
Q 2041 722 2400 722 
Q 2759 722 2948 984 
Q 3138 1247 3138 1747 
Q 3138 2247 2948 2509 
Q 2759 2772 2400 2772 
z
" transform="scale(0.015625)"/>
      <path id="DejaVuSans-Bold-6c" d="M 538 4863 
L 1656 4863 
L 1656 0 
L 538 0 
L 538 4863 
z
" transform="scale(0.015625)"/>
      <path id="DejaVuSans-Bold-69" d="M 538 3500 
L 1656 3500 
L 1656 0 
L 538 0 
L 538 3500 
z
M 538 4863 
L 1656 4863 
L 1656 3950 
L 538 3950 
L 538 4863 
z
" transform="scale(0.015625)"/>
      <path id="DejaVuSans-Bold-64" d="M 2919 2988 
L 2919 4863 
L 4044 4863 
L 4044 0 
L 2919 0 
L 2919 506 
Q 2688 197 2409 53 
Q 2131 -91 1766 -91 
Q 1119 -91 703 423 
Q 288 938 288 1747 
Q 288 2556 703 3070 
Q 1119 3584 1766 3584 
Q 2128 3584 2408 3439 
Q 2688 3294 2919 2988 
z
M 2181 722 
Q 2541 722 2730 984 
Q 2919 1247 2919 1747 
Q 2919 2247 2730 2509 
Q 2541 2772 2181 2772 
Q 1825 2772 1636 2509 
Q 1447 2247 1447 1747 
Q 1447 1247 1636 984 
Q 1825 722 2181 722 
z
" transform="scale(0.015625)"/>
      <path id="DejaVuSans-Bold-65" d="M 4031 1759 
L 4031 1441 
L 1416 1441 
Q 1456 1047 1700 850 
Q 1944 653 2381 653 
Q 2734 653 3104 758 
Q 3475 863 3866 1075 
L 3866 213 
Q 3469 63 3072 -14 
Q 2675 -91 2278 -91 
Q 1328 -91 801 392 
Q 275 875 275 1747 
Q 275 2603 792 3093 
Q 1309 3584 2216 3584 
Q 3041 3584 3536 3087 
Q 4031 2591 4031 1759 
z
M 2881 2131 
Q 2881 2450 2695 2645 
Q 2509 2841 2209 2841 
Q 1884 2841 1681 2658 
Q 1478 2475 1428 2131 
L 2881 2131 
z
" transform="scale(0.015625)"/>
      <path id="DejaVuSans-Bold-73" d="M 3272 3391 
L 3272 2541 
Q 2913 2691 2578 2766 
Q 2244 2841 1947 2841 
Q 1628 2841 1473 2761 
Q 1319 2681 1319 2516 
Q 1319 2381 1436 2309 
Q 1553 2238 1856 2203 
L 2053 2175 
Q 2913 2066 3209 1816 
Q 3506 1566 3506 1031 
Q 3506 472 3093 190 
Q 2681 -91 1863 -91 
Q 1516 -91 1145 -36 
Q 775 19 384 128 
L 384 978 
Q 719 816 1070 734 
Q 1422 653 1784 653 
Q 2113 653 2278 743 
Q 2444 834 2444 1013 
Q 2444 1163 2330 1236 
Q 2216 1309 1875 1350 
L 1678 1375 
Q 931 1469 631 1722 
Q 331 1975 331 2491 
Q 331 3047 712 3315 
Q 1094 3584 1881 3584 
Q 2191 3584 2531 3537 
Q 2872 3491 3272 3391 
z
" transform="scale(0.015625)"/>
     </defs>
     <use xlink:href="#DejaVuSans-Bold-51"/>
     <use xlink:href="#DejaVuSans-Bold-75" transform="translate(85.009766 0)"/>
     <use xlink:href="#DejaVuSans-Bold-61" transform="translate(156.201172 0)"/>
     <use xlink:href="#DejaVuSans-Bold-6e" transform="translate(223.681641 0)"/>
     <use xlink:href="#DejaVuSans-Bold-74" transform="translate(294.873047 0)"/>
     <use xlink:href="#DejaVuSans-Bold-75" transform="translate(342.675781 0)"/>
     <use xlink:href="#DejaVuSans-Bold-6d" transform="translate(413.867188 0)"/>
     <use xlink:href="#DejaVuSans-Bold-20" transform="translate(518.066406 0)"/>
     <use xlink:href="#DejaVuSans-Bold-41" transform="translate(552.880859 0)"/>
     <use xlink:href="#DejaVuSans-Bold-6d" transform="translate(630.273438 0)"/>
     <use xlink:href="#DejaVuSans-Bold-70" transform="translate(734.472656 0)"/>
     <use xlink:href="#DejaVuSans-Bold-6c" transform="translate(806.054688 0)"/>
     <use xlink:href="#DejaVuSans-Bold-69" transform="translate(840.332031 0)"/>
     <use xlink:href="#DejaVuSans-Bold-74" transform="translate(874.609375 0)"/>
     <use xlink:href="#DejaVuSans-Bold-75" transform="translate(922.412109 0)"/>
     <use xlink:href="#DejaVuSans-Bold-64" transform="translate(993.603516 0)"/>
     <use xlink:href="#DejaVuSans-Bold-65" transform="translate(1065.185547 0)"/>
     <use xlink:href="#DejaVuSans-Bold-73" transform="translate(1133.007812 0)"/>
    </g>
   </g>
   <g id="text_4">
    <!-- $a_\sigma \in \mathbb{C}$ -->
    <g transform="translate(659.77 143.9335) scale(0.14 -0.14)">
     <defs>
      <path id="DejaVuSans-Oblique-61" d="M 3438 1997 
L 3047 0 
L 2472 0 
L 2578 531 
Q 2325 219 2001 64 
Q 1678 -91 1281 -91 
Q 834 -91 548 182 
Q 263 456 263 884 
Q 263 1497 752 1853 
Q 1241 2209 2100 2209 
L 2900 2209 
L 2931 2363 
Q 2938 2388 2941 2417 
Q 2944 2447 2944 2509 
Q 2944 2788 2717 2942 
Q 2491 3097 2081 3097 
Q 1800 3097 1504 3025 
Q 1209 2953 897 2809 
L 997 3341 
Q 1322 3463 1633 3523 
Q 1944 3584 2234 3584 
Q 2853 3584 3176 3315 
Q 3500 3047 3500 2534 
Q 3500 2431 3484 2292 
Q 3469 2153 3438 1997 
z
M 2816 1759 
L 2241 1759 
Q 1534 1759 1195 1570 
Q 856 1381 856 984 
Q 856 709 1029 553 
Q 1203 397 1509 397 
Q 1978 397 2328 733 
Q 2678 1069 2791 1631 
L 2816 1759 
z
" transform="scale(0.015625)"/>
      <path id="DejaVuSans-2208" d="M 1072 1959 
Q 1094 1728 1291 1353 
Q 1522 919 1959 675 
Q 2388 438 2850 434 
L 5028 434 
L 5028 -63 
L 2850 -63 
Q 2250 -63 1695 246 
Q 1141 556 844 1106 
Q 547 1656 547 2241 
Q 547 2819 844 3369 
Q 1141 3919 1695 4231 
Q 2250 4544 2850 4544 
L 5028 4544 
L 5028 4047 
L 2850 4047 
Q 2388 4044 1959 3803 
Q 1525 3556 1291 3125 
Q 1091 2750 1063 2459 
L 5028 2459 
L 5028 1959 
L 1072 1959 
z
" transform="scale(0.015625)"/>
      <path id="STIXGeneral-Italic-2102" d="M 4493 3392 
L 4333 3258 
Q 4275 3315 4147 3449 
Q 4019 3584 3971 3629 
Q 3923 3674 3820 3763 
Q 3718 3853 3644 3881 
Q 3571 3910 3452 3955 
Q 3334 4000 3203 4013 
Q 3072 4026 2906 4026 
Q 2150 4026 1715 3693 
L 870 486 
Q 1318 122 1901 122 
Q 2176 122 2400 163 
Q 2624 205 2768 249 
Q 2912 294 3120 435 
Q 3328 576 3421 653 
Q 3514 730 3789 960 
L 3923 794 
Q 3162 -115 1862 -115 
Q 1107 -115 665 297 
Q 224 710 224 1459 
Q 224 2630 973 3446 
Q 1722 4262 2880 4262 
Q 3942 4262 4493 3392 
z
M 678 659 
L 1466 3597 
Q 992 3226 726 2685 
Q 461 2144 461 1549 
Q 461 941 678 659 
z
" transform="scale(0.015625)"/>
     </defs>
     <use xlink:href="#DejaVuSans-Oblique-61"/>
     <use xlink:href="#DejaVuSans-Oblique-3c3" transform="translate(61.279297 -16.40625) scale(0.7)"/>
     <use xlink:href="#DejaVuSans-2208" transform="translate(127.861328 0)"/>
     <use xlink:href="#STIXGeneral-Italic-2102" transform="translate(234.453125 0)"/>
    </g>
   </g>
   <g id="text_5">
    <g id="patch_9">
     <path d="M 340.24125 113.521275 
L 516.55875 113.521275 
Q 520.15875 113.521275 520.15875 109.921275 
L 520.15875 98.213775 
Q 520.15875 94.613775 516.55875 94.613775 
L 340.24125 94.613775 
Q 336.64125 94.613775 336.64125 98.213775 
L 336.64125 109.921275 
Q 336.64125 113.521275 340.24125 113.521275 
z
" style="fill: #f5deb3; opacity: 0.3; stroke: #000000; stroke-width: 0.24; stroke-linejoin: miter"/>
    </g>
    <!-- Entropy-Amplitude Bridge -->
    <g transform="translate(340.24125 107.3319) scale(0.12 -0.12)">
     <defs>
      <path id="DejaVuSans-Bold-72" d="M 3138 2547 
Q 2991 2616 2845 2648 
Q 2700 2681 2553 2681 
Q 2122 2681 1889 2404 
Q 1656 2128 1656 1613 
L 1656 0 
L 538 0 
L 538 3500 
L 1656 3500 
L 1656 2925 
Q 1872 3269 2151 3426 
Q 2431 3584 2822 3584 
Q 2878 3584 2943 3579 
Q 3009 3575 3134 3559 
L 3138 2547 
z
" transform="scale(0.015625)"/>
      <path id="DejaVuSans-Bold-79" d="M 78 3500 
L 1197 3500 
L 2138 1125 
L 2938 3500 
L 4056 3500 
L 2584 -331 
Q 2363 -916 2067 -1148 
Q 1772 -1381 1288 -1381 
L 641 -1381 
L 641 -647 
L 991 -647 
Q 1275 -647 1404 -556 
Q 1534 -466 1606 -231 
L 1638 -134 
L 78 3500 
z
" transform="scale(0.015625)"/>
      <path id="DejaVuSans-Bold-2d" d="M 347 2297 
L 2309 2297 
L 2309 1388 
L 347 1388 
L 347 2297 
z
" transform="scale(0.015625)"/>
      <path id="DejaVuSans-Bold-42" d="M 2456 2859 
Q 2741 2859 2887 2984 
Q 3034 3109 3034 3353 
Q 3034 3594 2887 3720 
Q 2741 3847 2456 3847 
L 1791 3847 
L 1791 2859 
L 2456 2859 
z
M 2497 819 
Q 2859 819 3042 972 
Q 3225 1125 3225 1434 
Q 3225 1738 3044 1889 
Q 2863 2041 2497 2041 
L 1791 2041 
L 1791 819 
L 2497 819 
z
M 3616 2497 
Q 4003 2384 4215 2081 
Q 4428 1778 4428 1338 
Q 4428 663 3972 331 
Q 3516 0 2584 0 
L 588 0 
L 588 4666 
L 2394 4666 
Q 3366 4666 3802 4372 
Q 4238 4078 4238 3431 
Q 4238 3091 4078 2852 
Q 3919 2613 3616 2497 
z
" transform="scale(0.015625)"/>
      <path id="DejaVuSans-Bold-67" d="M 2919 594 
Q 2688 288 2409 144 
Q 2131 0 1766 0 
Q 1125 0 706 504 
Q 288 1009 288 1791 
Q 288 2575 706 3076 
Q 1125 3578 1766 3578 
Q 2131 3578 2409 3434 
Q 2688 3291 2919 2981 
L 2919 3500 
L 4044 3500 
L 4044 353 
Q 4044 -491 3511 -936 
Q 2978 -1381 1966 -1381 
Q 1638 -1381 1331 -1331 
Q 1025 -1281 716 -1178 
L 716 -306 
Q 1009 -475 1290 -558 
Q 1572 -641 1856 -641 
Q 2406 -641 2662 -400 
Q 2919 -159 2919 353 
L 2919 594 
z
M 2181 2772 
Q 1834 2772 1640 2515 
Q 1447 2259 1447 1791 
Q 1447 1309 1634 1061 
Q 1822 813 2181 813 
Q 2531 813 2725 1069 
Q 2919 1325 2919 1791 
Q 2919 2259 2725 2515 
Q 2531 2772 2181 2772 
z
" transform="scale(0.015625)"/>
     </defs>
     <use xlink:href="#DejaVuSans-Bold-45"/>
     <use xlink:href="#DejaVuSans-Bold-6e" transform="translate(68.310547 0)"/>
     <use xlink:href="#DejaVuSans-Bold-74" transform="translate(139.501953 0)"/>
     <use xlink:href="#DejaVuSans-Bold-72" transform="translate(187.304688 0)"/>
     <use xlink:href="#DejaVuSans-Bold-6f" transform="translate(236.621094 0)"/>
     <use xlink:href="#DejaVuSans-Bold-70" transform="translate(305.322266 0)"/>
     <use xlink:href="#DejaVuSans-Bold-79" transform="translate(376.904297 0)"/>
     <use xlink:href="#DejaVuSans-Bold-2d" transform="translate(442.089844 0)"/>
     <use xlink:href="#DejaVuSans-Bold-41" transform="translate(483.59375 0)"/>
     <use xlink:href="#DejaVuSans-Bold-6d" transform="translate(560.986328 0)"/>
     <use xlink:href="#DejaVuSans-Bold-70" transform="translate(665.185547 0)"/>
     <use xlink:href="#DejaVuSans-Bold-6c" transform="translate(736.767578 0)"/>
     <use xlink:href="#DejaVuSans-Bold-69" transform="translate(771.044922 0)"/>
     <use xlink:href="#DejaVuSans-Bold-74" transform="translate(805.322266 0)"/>
     <use xlink:href="#DejaVuSans-Bold-75" transform="translate(853.125 0)"/>
     <use xlink:href="#DejaVuSans-Bold-64" transform="translate(924.316406 0)"/>
     <use xlink:href="#DejaVuSans-Bold-65" transform="translate(995.898438 0)"/>
     <use xlink:href="#DejaVuSans-Bold-20" transform="translate(1063.720703 0)"/>
     <use xlink:href="#DejaVuSans-Bold-42" transform="translate(1098.535156 0)"/>
     <use xlink:href="#DejaVuSans-Bold-72" transform="translate(1174.755859 0)"/>
     <use xlink:href="#DejaVuSans-Bold-69" transform="translate(1224.072266 0)"/>
     <use xlink:href="#DejaVuSans-Bold-64" transform="translate(1258.349609 0)"/>
     <use xlink:href="#DejaVuSans-Bold-67" transform="translate(1329.931641 0)"/>
     <use xlink:href="#DejaVuSans-Bold-65" transform="translate(1401.513672 0)"/>
    </g>
   </g>
   <g id="text_6">
    <!-- 1. Normalization: $\sum |a_\sigma|^2 = 1$ -->
    <g transform="translate(351.675 278.7235) scale(0.11 -0.11)">
     <defs>
      <path id="DejaVuSans-2e" d="M 684 794 
L 1344 794 
L 1344 0 
L 684 0 
L 684 794 
z
" transform="scale(0.015625)"/>
      <path id="DejaVuSans-20" transform="scale(0.015625)"/>
      <path id="DejaVuSans-4e" d="M 628 4666 
L 1478 4666 
L 3547 763 
L 3547 4666 
L 4159 4666 
L 4159 0 
L 3309 0 
L 1241 3903 
L 1241 0 
L 628 0 
L 628 4666 
z
" transform="scale(0.015625)"/>
      <path id="DejaVuSans-6f" d="M 1959 3097 
Q 1497 3097 1228 2736 
Q 959 2375 959 1747 
Q 959 1119 1226 758 
Q 1494 397 1959 397 
Q 2419 397 2687 759 
Q 2956 1122 2956 1747 
Q 2956 2369 2687 2733 
Q 2419 3097 1959 3097 
z
M 1959 3584 
Q 2709 3584 3137 3096 
Q 3566 2609 3566 1747 
Q 3566 888 3137 398 
Q 2709 -91 1959 -91 
Q 1206 -91 779 398 
Q 353 888 353 1747 
Q 353 2609 779 3096 
Q 1206 3584 1959 3584 
z
" transform="scale(0.015625)"/>
      <path id="DejaVuSans-72" d="M 2631 2963 
Q 2534 3019 2420 3045 
Q 2306 3072 2169 3072 
Q 1681 3072 1420 2755 
Q 1159 2438 1159 1844 
L 1159 0 
L 581 0 
L 581 3500 
L 1159 3500 
L 1159 2956 
Q 1341 3275 1631 3429 
Q 1922 3584 2338 3584 
Q 2397 3584 2469 3576 
Q 2541 3569 2628 3553 
L 2631 2963 
z
" transform="scale(0.015625)"/>
      <path id="DejaVuSans-6d" d="M 3328 2828 
Q 3544 3216 3844 3400 
Q 4144 3584 4550 3584 
Q 5097 3584 5394 3201 
Q 5691 2819 5691 2113 
L 5691 0 
L 5113 0 
L 5113 2094 
Q 5113 2597 4934 2840 
Q 4756 3084 4391 3084 
Q 3944 3084 3684 2787 
Q 3425 2491 3425 1978 
L 3425 0 
L 2847 0 
L 2847 2094 
Q 2847 2600 2669 2842 
Q 2491 3084 2119 3084 
Q 1678 3084 1418 2786 
Q 1159 2488 1159 1978 
L 1159 0 
L 581 0 
L 581 3500 
L 1159 3500 
L 1159 2956 
Q 1356 3278 1631 3431 
Q 1906 3584 2284 3584 
Q 2666 3584 2933 3390 
Q 3200 3197 3328 2828 
z
" transform="scale(0.015625)"/>
      <path id="DejaVuSans-61" d="M 2194 1759 
Q 1497 1759 1228 1600 
Q 959 1441 959 1056 
Q 959 750 1161 570 
Q 1363 391 1709 391 
Q 2188 391 2477 730 
Q 2766 1069 2766 1631 
L 2766 1759 
L 2194 1759 
z
M 3341 1997 
L 3341 0 
L 2766 0 
L 2766 531 
Q 2569 213 2275 61 
Q 1981 -91 1556 -91 
Q 1019 -91 701 211 
Q 384 513 384 1019 
Q 384 1609 779 1909 
Q 1175 2209 1959 2209 
L 2766 2209 
L 2766 2266 
Q 2766 2663 2505 2880 
Q 2244 3097 1772 3097 
Q 1472 3097 1187 3025 
Q 903 2953 641 2809 
L 641 3341 
Q 956 3463 1253 3523 
Q 1550 3584 1831 3584 
Q 2591 3584 2966 3190 
Q 3341 2797 3341 1997 
z
" transform="scale(0.015625)"/>
      <path id="DejaVuSans-6c" d="M 603 4863 
L 1178 4863 
L 1178 0 
L 603 0 
L 603 4863 
z
" transform="scale(0.015625)"/>
      <path id="DejaVuSans-69" d="M 603 3500 
L 1178 3500 
L 1178 0 
L 603 0 
L 603 3500 
z
M 603 4863 
L 1178 4863 
L 1178 4134 
L 603 4134 
L 603 4863 
z
" transform="scale(0.015625)"/>
      <path id="DejaVuSans-7a" d="M 353 3500 
L 3084 3500 
L 3084 2975 
L 922 459 
L 3084 459 
L 3084 0 
L 275 0 
L 275 525 
L 2438 3041 
L 353 3041 
L 353 3500 
z
" transform="scale(0.015625)"/>
      <path id="DejaVuSans-74" d="M 1172 4494 
L 1172 3500 
L 2356 3500 
L 2356 3053 
L 1172 3053 
L 1172 1153 
Q 1172 725 1289 603 
Q 1406 481 1766 481 
L 2356 481 
L 2356 0 
L 1766 0 
Q 1100 0 847 248 
Q 594 497 594 1153 
L 594 3053 
L 172 3053 
L 172 3500 
L 594 3500 
L 594 4494 
L 1172 4494 
z
" transform="scale(0.015625)"/>
      <path id="DejaVuSans-6e" d="M 3513 2113 
L 3513 0 
L 2938 0 
L 2938 2094 
Q 2938 2591 2744 2837 
Q 2550 3084 2163 3084 
Q 1697 3084 1428 2787 
Q 1159 2491 1159 1978 
L 1159 0 
L 581 0 
L 581 3500 
L 1159 3500 
L 1159 2956 
Q 1366 3272 1645 3428 
Q 1925 3584 2291 3584 
Q 2894 3584 3203 3211 
Q 3513 2838 3513 2113 
z
" transform="scale(0.015625)"/>
      <path id="DejaVuSans-3a" d="M 750 794 
L 1409 794 
L 1409 0 
L 750 0 
L 750 794 
z
M 750 3309 
L 1409 3309 
L 1409 2516 
L 750 2516 
L 750 3309 
z
" transform="scale(0.015625)"/>
      <path id="DejaVuSansDisplay-2211" d="M 244 6509 
L 5803 6509 
L 5803 5656 
L 1566 5656 
L 4534 2488 
L 1469 -888 
L 5919 -888 
L 5919 -1738 
L 109 -1738 
L 109 -1078 
L 3316 2463 
L 244 5728 
L 244 6509 
z
" transform="scale(0.015625)"/>
      <path id="DejaVuSans-32" d="M 1228 531 
L 3431 531 
L 3431 0 
L 469 0 
L 469 531 
Q 828 903 1448 1529 
Q 2069 2156 2228 2338 
Q 2531 2678 2651 2914 
Q 2772 3150 2772 3378 
Q 2772 3750 2511 3984 
Q 2250 4219 1831 4219 
Q 1534 4219 1204 4116 
Q 875 4013 500 3803 
L 500 4441 
Q 881 4594 1212 4672 
Q 1544 4750 1819 4750 
Q 2544 4750 2975 4387 
Q 3406 4025 3406 3419 
Q 3406 3131 3298 2873 
Q 3191 2616 2906 2266 
Q 2828 2175 2409 1742 
Q 1991 1309 1228 531 
z
" transform="scale(0.015625)"/>
     </defs>
     <use xlink:href="#DejaVuSans-31" transform="translate(0 0.296875)"/>
     <use xlink:href="#DejaVuSans-2e" transform="translate(63.623047 0.296875)"/>
     <use xlink:href="#DejaVuSans-20" transform="translate(95.410156 0.296875)"/>
     <use xlink:href="#DejaVuSans-4e" transform="translate(127.197266 0.296875)"/>
     <use xlink:href="#DejaVuSans-6f" transform="translate(202.001953 0.296875)"/>
     <use xlink:href="#DejaVuSans-72" transform="translate(263.183594 0.296875)"/>
     <use xlink:href="#DejaVuSans-6d" transform="translate(304.296875 0.296875)"/>
     <use xlink:href="#DejaVuSans-61" transform="translate(401.708984 0.296875)"/>
     <use xlink:href="#DejaVuSans-6c" transform="translate(462.988281 0.296875)"/>
     <use xlink:href="#DejaVuSans-69" transform="translate(490.771484 0.296875)"/>
     <use xlink:href="#DejaVuSans-7a" transform="translate(518.554688 0.296875)"/>
     <use xlink:href="#DejaVuSans-61" transform="translate(571.044922 0.296875)"/>
     <use xlink:href="#DejaVuSans-74" transform="translate(632.324219 0.296875)"/>
     <use xlink:href="#DejaVuSans-69" transform="translate(671.533203 0.296875)"/>
     <use xlink:href="#DejaVuSans-6f" transform="translate(699.316406 0.296875)"/>
     <use xlink:href="#DejaVuSans-6e" transform="translate(760.498047 0.296875)"/>
     <use xlink:href="#DejaVuSans-3a" transform="translate(823.876953 0.296875)"/>
     <use xlink:href="#DejaVuSans-20" transform="translate(857.568359 0.296875)"/>
     <use xlink:href="#DejaVuSansDisplay-2211" transform="translate(889.355469 0.296875)"/>
     <use xlink:href="#DejaVuSans-7c" transform="translate(984.619141 0.296875)"/>
     <use xlink:href="#DejaVuSans-Oblique-61" transform="translate(1018.310547 0.296875)"/>
     <use xlink:href="#DejaVuSans-Oblique-3c3" transform="translate(1079.589844 -16.109375) scale(0.7)"/>
     <use xlink:href="#DejaVuSans-7c" transform="translate(1126.689453 0.296875)"/>
     <use xlink:href="#DejaVuSans-32" transform="translate(1161.337891 38.578125) scale(0.7)"/>
     <use xlink:href="#DejaVuSans-3d" transform="translate(1228.09082 0.296875)"/>
     <use xlink:href="#DejaVuSans-31" transform="translate(1331.362305 0.296875)"/>
    </g>
   </g>
   <g id="text_7">
    <!-- 2. Entropy: $H[P] = H[|a|^2]$ maximized -->
    <g transform="translate(327.75 330.6265) scale(0.11 -0.11)">
     <defs>
      <path id="DejaVuSans-45" d="M 628 4666 
L 3578 4666 
L 3578 4134 
L 1259 4134 
L 1259 2753 
L 3481 2753 
L 3481 2222 
L 1259 2222 
L 1259 531 
L 3634 531 
L 3634 0 
L 628 0 
L 628 4666 
z
" transform="scale(0.015625)"/>
      <path id="DejaVuSans-70" d="M 1159 525 
L 1159 -1331 
L 581 -1331 
L 581 3500 
L 1159 3500 
L 1159 2969 
Q 1341 3281 1617 3432 
Q 1894 3584 2278 3584 
Q 2916 3584 3314 3078 
Q 3713 2572 3713 1747 
Q 3713 922 3314 415 
Q 2916 -91 2278 -91 
Q 1894 -91 1617 61 
Q 1341 213 1159 525 
z
M 3116 1747 
Q 3116 2381 2855 2742 
Q 2594 3103 2138 3103 
Q 1681 3103 1420 2742 
Q 1159 2381 1159 1747 
Q 1159 1113 1420 752 
Q 1681 391 2138 391 
Q 2594 391 2855 752 
Q 3116 1113 3116 1747 
z
" transform="scale(0.015625)"/>
      <path id="DejaVuSans-79" d="M 2059 -325 
Q 1816 -950 1584 -1140 
Q 1353 -1331 966 -1331 
L 506 -1331 
L 506 -850 
L 844 -850 
Q 1081 -850 1212 -737 
Q 1344 -625 1503 -206 
L 1606 56 
L 191 3500 
L 800 3500 
L 1894 763 
L 2988 3500 
L 3597 3500 
L 2059 -325 
z
" transform="scale(0.015625)"/>
      <path id="DejaVuSans-Oblique-48" d="M 1081 4666 
L 1716 4666 
L 1344 2753 
L 3634 2753 
L 4006 4666 
L 4641 4666 
L 3731 0 
L 3097 0 
L 3531 2222 
L 1241 2222 
L 806 0 
L 172 0 
L 1081 4666 
z
" transform="scale(0.015625)"/>
      <path id="DejaVuSans-5b" d="M 550 4863 
L 1875 4863 
L 1875 4416 
L 1125 4416 
L 1125 -397 
L 1875 -397 
L 1875 -844 
L 550 -844 
L 550 4863 
z
" transform="scale(0.015625)"/>
      <path id="DejaVuSans-5d" d="M 1947 4863 
L 1947 -844 
L 622 -844 
L 622 -397 
L 1369 -397 
L 1369 4416 
L 622 4416 
L 622 4863 
L 1947 4863 
z
" transform="scale(0.015625)"/>
      <path id="DejaVuSans-78" d="M 3513 3500 
L 2247 1797 
L 3578 0 
L 2900 0 
L 1881 1375 
L 863 0 
L 184 0 
L 1544 1831 
L 300 3500 
L 978 3500 
L 1906 2253 
L 2834 3500 
L 3513 3500 
z
" transform="scale(0.015625)"/>
      <path id="DejaVuSans-65" d="M 3597 1894 
L 3597 1613 
L 953 1613 
Q 991 1019 1311 708 
Q 1631 397 2203 397 
Q 2534 397 2845 478 
Q 3156 559 3463 722 
L 3463 178 
Q 3153 47 2828 -22 
Q 2503 -91 2169 -91 
Q 1331 -91 842 396 
Q 353 884 353 1716 
Q 353 2575 817 3079 
Q 1281 3584 2069 3584 
Q 2775 3584 3186 3129 
Q 3597 2675 3597 1894 
z
M 3022 2063 
Q 3016 2534 2758 2815 
Q 2500 3097 2075 3097 
Q 1594 3097 1305 2825 
Q 1016 2553 972 2059 
L 3022 2063 
z
" transform="scale(0.015625)"/>
      <path id="DejaVuSans-64" d="M 2906 2969 
L 2906 4863 
L 3481 4863 
L 3481 0 
L 2906 0 
L 2906 525 
Q 2725 213 2448 61 
Q 2172 -91 1784 -91 
Q 1150 -91 751 415 
Q 353 922 353 1747 
Q 353 2572 751 3078 
Q 1150 3584 1784 3584 
Q 2172 3584 2448 3432 
Q 2725 3281 2906 2969 
z
M 947 1747 
Q 947 1113 1208 752 
Q 1469 391 1925 391 
Q 2381 391 2643 752 
Q 2906 1113 2906 1747 
Q 2906 2381 2643 2742 
Q 2381 3103 1925 3103 
Q 1469 3103 1208 2742 
Q 947 2381 947 1747 
z
" transform="scale(0.015625)"/>
     </defs>
     <use xlink:href="#DejaVuSans-32" transform="translate(0 0.765625)"/>
     <use xlink:href="#DejaVuSans-2e" transform="translate(63.623047 0.765625)"/>
     <use xlink:href="#DejaVuSans-20" transform="translate(95.410156 0.765625)"/>
     <use xlink:href="#DejaVuSans-45" transform="translate(127.197266 0.765625)"/>
     <use xlink:href="#DejaVuSans-6e" transform="translate(190.380859 0.765625)"/>
     <use xlink:href="#DejaVuSans-74" transform="translate(253.759766 0.765625)"/>
     <use xlink:href="#DejaVuSans-72" transform="translate(292.96875 0.765625)"/>
     <use xlink:href="#DejaVuSans-6f" transform="translate(334.082031 0.765625)"/>
     <use xlink:href="#DejaVuSans-70" transform="translate(395.263672 0.765625)"/>
     <use xlink:href="#DejaVuSans-79" transform="translate(458.740234 0.765625)"/>
     <use xlink:href="#DejaVuSans-3a" transform="translate(517.919922 0.765625)"/>
     <use xlink:href="#DejaVuSans-20" transform="translate(551.611328 0.765625)"/>
     <use xlink:href="#DejaVuSans-Oblique-48" transform="translate(583.398438 0.765625)"/>
     <use xlink:href="#DejaVuSans-5b" transform="translate(658.59375 0.765625)"/>
     <use xlink:href="#DejaVuSans-Oblique-50" transform="translate(697.607422 0.765625)"/>
     <use xlink:href="#DejaVuSans-5d" transform="translate(757.910156 0.765625)"/>
     <use xlink:href="#DejaVuSans-3d" transform="translate(816.40625 0.765625)"/>
     <use xlink:href="#DejaVuSans-Oblique-48" transform="translate(919.677734 0.765625)"/>
     <use xlink:href="#DejaVuSans-5b" transform="translate(994.873047 0.765625)"/>
     <use xlink:href="#DejaVuSans-7c" transform="translate(1033.886719 0.765625)"/>
     <use xlink:href="#DejaVuSans-Oblique-61" transform="translate(1067.578125 0.765625)"/>
     <use xlink:href="#DejaVuSans-7c" transform="translate(1128.857422 0.765625)"/>
     <use xlink:href="#DejaVuSans-32" transform="translate(1163.505859 39.046875) scale(0.7)"/>
     <use xlink:href="#DejaVuSans-5d" transform="translate(1210.776367 0.765625)"/>
     <use xlink:href="#DejaVuSans-20" transform="translate(1249.790039 0.765625)"/>
     <use xlink:href="#DejaVuSans-6d" transform="translate(1281.577148 0.765625)"/>
     <use xlink:href="#DejaVuSans-61" transform="translate(1378.989258 0.765625)"/>
     <use xlink:href="#DejaVuSans-78" transform="translate(1440.268555 0.765625)"/>
     <use xlink:href="#DejaVuSans-69" transform="translate(1499.448242 0.765625)"/>
     <use xlink:href="#DejaVuSans-6d" transform="translate(1527.231445 0.765625)"/>
     <use xlink:href="#DejaVuSans-69" transform="translate(1624.643555 0.765625)"/>
     <use xlink:href="#DejaVuSans-7a" transform="translate(1652.426758 0.765625)"/>
     <use xlink:href="#DejaVuSans-65" transform="translate(1704.916992 0.765625)"/>
     <use xlink:href="#DejaVuSans-64" transform="translate(1766.44043 0.765625)"/>
    </g>
   </g>
   <g id="text_8">
    <!-- 3. Unitary: $U^\dagger U = I$ invariance -->
    <g transform="translate(346.89 383.0245) scale(0.11 -0.11)">
     <defs>
      <path id="DejaVuSans-33" d="M 2597 2516 
Q 3050 2419 3304 2112 
Q 3559 1806 3559 1356 
Q 3559 666 3084 287 
Q 2609 -91 1734 -91 
Q 1441 -91 1130 -33 
Q 819 25 488 141 
L 488 750 
Q 750 597 1062 519 
Q 1375 441 1716 441 
Q 2309 441 2620 675 
Q 2931 909 2931 1356 
Q 2931 1769 2642 2001 
Q 2353 2234 1838 2234 
L 1294 2234 
L 1294 2753 
L 1863 2753 
Q 2328 2753 2575 2939 
Q 2822 3125 2822 3475 
Q 2822 3834 2567 4026 
Q 2313 4219 1838 4219 
Q 1578 4219 1281 4162 
Q 984 4106 628 3988 
L 628 4550 
Q 988 4650 1302 4700 
Q 1616 4750 1894 4750 
Q 2613 4750 3031 4423 
Q 3450 4097 3450 3541 
Q 3450 3153 3228 2886 
Q 3006 2619 2597 2516 
z
" transform="scale(0.015625)"/>
      <path id="DejaVuSans-55" d="M 556 4666 
L 1191 4666 
L 1191 1831 
Q 1191 1081 1462 751 
Q 1734 422 2344 422 
Q 2950 422 3222 751 
Q 3494 1081 3494 1831 
L 3494 4666 
L 4128 4666 
L 4128 1753 
Q 4128 841 3676 375 
Q 3225 -91 2344 -91 
Q 1459 -91 1007 375 
Q 556 841 556 1753 
L 556 4666 
z
" transform="scale(0.015625)"/>
      <path id="DejaVuSans-Oblique-55" d="M 991 4666 
L 1625 4666 
L 1075 1831 
Q 1041 1641 1027 1517 
Q 1013 1394 1013 1300 
Q 1013 869 1253 645 
Q 1494 422 1959 422 
Q 2563 422 2898 753 
Q 3234 1084 3378 1831 
L 3928 4666 
L 4563 4666 
L 4000 1753 
Q 3816 809 3300 359 
Q 2784 -91 1888 -91 
Q 1188 -91 780 261 
Q 372 613 372 1216 
Q 372 1325 387 1461 
Q 403 1597 434 1753 
L 991 4666 
z
" transform="scale(0.015625)"/>
      <path id="DejaVuSans-2020" d="M 1325 4666 
L 1875 4666 
L 1875 3353 
L 3022 3353 
L 3022 2875 
L 1875 2875 
L 1875 -616 
L 1325 -616 
L 1325 2875 
L 178 2875 
L 178 3353 
L 1325 3353 
L 1325 4666 
z
" transform="scale(0.015625)"/>
      <path id="DejaVuSans-Oblique-49" d="M 1081 4666 
L 1716 4666 
L 806 0 
L 172 0 
L 1081 4666 
z
" transform="scale(0.015625)"/>
      <path id="DejaVuSans-76" d="M 191 3500 
L 800 3500 
L 1894 563 
L 2988 3500 
L 3597 3500 
L 2284 0 
L 1503 0 
L 191 3500 
z
" transform="scale(0.015625)"/>
      <path id="DejaVuSans-63" d="M 3122 3366 
L 3122 2828 
Q 2878 2963 2633 3030 
Q 2388 3097 2138 3097 
Q 1578 3097 1268 2742 
Q 959 2388 959 1747 
Q 959 1106 1268 751 
Q 1578 397 2138 397 
Q 2388 397 2633 464 
Q 2878 531 3122 666 
L 3122 134 
Q 2881 22 2623 -34 
Q 2366 -91 2075 -91 
Q 1284 -91 818 406 
Q 353 903 353 1747 
Q 353 2603 823 3093 
Q 1294 3584 2113 3584 
Q 2378 3584 2631 3529 
Q 2884 3475 3122 3366 
z
" transform="scale(0.015625)"/>
     </defs>
     <use xlink:href="#DejaVuSans-33" transform="translate(0 0.684375)"/>
     <use xlink:href="#DejaVuSans-2e" transform="translate(63.623047 0.684375)"/>
     <use xlink:href="#DejaVuSans-20" transform="translate(95.410156 0.684375)"/>
     <use xlink:href="#DejaVuSans-55" transform="translate(127.197266 0.684375)"/>
     <use xlink:href="#DejaVuSans-6e" transform="translate(200.390625 0.684375)"/>
     <use xlink:href="#DejaVuSans-69" transform="translate(263.769531 0.684375)"/>
     <use xlink:href="#DejaVuSans-74" transform="translate(291.552734 0.684375)"/>
     <use xlink:href="#DejaVuSans-61" transform="translate(330.761719 0.684375)"/>
     <use xlink:href="#DejaVuSans-72" transform="translate(392.041016 0.684375)"/>
     <use xlink:href="#DejaVuSans-79" transform="translate(433.154297 0.684375)"/>
     <use xlink:href="#DejaVuSans-3a" transform="translate(492.333984 0.684375)"/>
     <use xlink:href="#DejaVuSans-20" transform="translate(526.025391 0.684375)"/>
     <use xlink:href="#DejaVuSans-Oblique-55" transform="translate(557.8125 0.684375)"/>
     <use xlink:href="#DejaVuSans-2020" transform="translate(651.660326 38.965625) scale(0.7)"/>
     <use xlink:href="#DejaVuSans-Oblique-55" transform="translate(703.032396 0.684375)"/>
     <use xlink:href="#DejaVuSans-3d" transform="translate(795.708177 0.684375)"/>
     <use xlink:href="#DejaVuSans-Oblique-49" transform="translate(898.979661 0.684375)"/>
     <use xlink:href="#DejaVuSans-20" transform="translate(928.471849 0.684375)"/>
     <use xlink:href="#DejaVuSans-69" transform="translate(960.258958 0.684375)"/>
     <use xlink:href="#DejaVuSans-6e" transform="translate(988.042161 0.684375)"/>
     <use xlink:href="#DejaVuSans-76" transform="translate(1051.421068 0.684375)"/>
     <use xlink:href="#DejaVuSans-61" transform="translate(1110.600755 0.684375)"/>
     <use xlink:href="#DejaVuSans-72" transform="translate(1171.880052 0.684375)"/>
     <use xlink:href="#DejaVuSans-69" transform="translate(1212.993333 0.684375)"/>
     <use xlink:href="#DejaVuSans-61" transform="translate(1240.776536 0.684375)"/>
     <use xlink:href="#DejaVuSans-6e" transform="translate(1302.055833 0.684375)"/>
     <use xlink:href="#DejaVuSans-63" transform="translate(1365.43474 0.684375)"/>
     <use xlink:href="#DejaVuSans-65" transform="translate(1420.415208 0.684375)"/>
    </g>
   </g>
   <g id="text_9">
    <!-- \textbf{Theorem 5.1 (Uniqueness):} -->
    <g transform="translate(305.240625 452.4327) scale(0.12 -0.12)">
     <defs>
      <path id="DejaVuSans-Bold-5c" d="M 1644 -594 
L 0 4666 
L 691 4666 
L 2338 -594 
L 1644 -594 
z
" transform="scale(0.015625)"/>
      <path id="DejaVuSans-Bold-62" d="M 2400 722 
Q 2759 722 2948 984 
Q 3138 1247 3138 1747 
Q 3138 2247 2948 2509 
Q 2759 2772 2400 2772 
Q 2041 2772 1848 2508 
Q 1656 2244 1656 1747 
Q 1656 1250 1848 986 
Q 2041 722 2400 722 
z
M 1656 2988 
Q 1888 3294 2169 3439 
Q 2450 3584 2816 3584 
Q 3463 3584 3878 3070 
Q 4294 2556 4294 1747 
Q 4294 938 3878 423 
Q 3463 -91 2816 -91 
Q 2450 -91 2169 54 
Q 1888 200 1656 506 
L 1656 0 
L 538 0 
L 538 4863 
L 1656 4863 
L 1656 2988 
z
" transform="scale(0.015625)"/>
      <path id="DejaVuSans-Bold-66" d="M 2841 4863 
L 2841 4128 
L 2222 4128 
Q 1984 4128 1890 4042 
Q 1797 3956 1797 3744 
L 1797 3500 
L 2753 3500 
L 2753 2700 
L 1797 2700 
L 1797 0 
L 678 0 
L 678 2700 
L 122 2700 
L 122 3500 
L 678 3500 
L 678 3744 
Q 678 4316 997 4589 
Q 1316 4863 1984 4863 
L 2841 4863 
z
" transform="scale(0.015625)"/>
      <path id="DejaVuSans-Bold-7b" d="M 3756 -341 
L 3756 -1044 
L 3078 -1044 
Q 2397 -1044 2084 -769 
Q 1772 -494 1772 109 
L 1772 709 
Q 1772 1178 1603 1361 
Q 1434 1544 991 1544 
L 800 1544 
L 800 2241 
L 991 2241 
Q 1434 2241 1603 2422 
Q 1772 2603 1772 3072 
L 1772 3713 
Q 1772 4316 2084 4589 
Q 2397 4863 3078 4863 
L 3756 4863 
L 3756 4159 
L 3541 4159 
Q 3100 4159 2967 4023 
Q 2834 3888 2834 3444 
L 2834 2925 
Q 2834 2434 2693 2212 
Q 2553 1991 2209 1913 
Q 2556 1828 2695 1606 
Q 2834 1384 2834 897 
L 2834 378 
Q 2834 -69 2967 -205 
Q 3100 -341 3541 -341 
L 3756 -341 
z
" transform="scale(0.015625)"/>
      <path id="DejaVuSans-Bold-54" d="M 31 4666 
L 4331 4666 
L 4331 3756 
L 2784 3756 
L 2784 0 
L 1581 0 
L 1581 3756 
L 31 3756 
L 31 4666 
z
" transform="scale(0.015625)"/>
      <path id="DejaVuSans-Bold-68" d="M 4056 2131 
L 4056 0 
L 2931 0 
L 2931 347 
L 2931 1625 
Q 2931 2084 2911 2256 
Q 2891 2428 2841 2509 
Q 2775 2619 2662 2680 
Q 2550 2741 2406 2741 
Q 2056 2741 1856 2470 
Q 1656 2200 1656 1722 
L 1656 0 
L 538 0 
L 538 4863 
L 1656 4863 
L 1656 2988 
Q 1909 3294 2193 3439 
Q 2478 3584 2822 3584 
Q 3428 3584 3742 3212 
Q 4056 2841 4056 2131 
z
" transform="scale(0.015625)"/>
      <path id="DejaVuSans-Bold-35" d="M 678 4666 
L 3669 4666 
L 3669 3781 
L 1638 3781 
L 1638 3059 
Q 1775 3097 1914 3117 
Q 2053 3138 2203 3138 
Q 3056 3138 3531 2711 
Q 4006 2284 4006 1522 
Q 4006 766 3489 337 
Q 2972 -91 2053 -91 
Q 1656 -91 1267 -14 
Q 878 63 494 219 
L 494 1166 
Q 875 947 1217 837 
Q 1559 728 1863 728 
Q 2300 728 2551 942 
Q 2803 1156 2803 1522 
Q 2803 1891 2551 2103 
Q 2300 2316 1863 2316 
Q 1603 2316 1309 2248 
Q 1016 2181 678 2041 
L 678 4666 
z
" transform="scale(0.015625)"/>
      <path id="DejaVuSans-Bold-2e" d="M 653 1209 
L 1778 1209 
L 1778 0 
L 653 0 
L 653 1209 
z
" transform="scale(0.015625)"/>
      <path id="DejaVuSans-Bold-31" d="M 750 831 
L 1813 831 
L 1813 3847 
L 722 3622 
L 722 4441 
L 1806 4666 
L 2950 4666 
L 2950 831 
L 4013 831 
L 4013 0 
L 750 0 
L 750 831 
z
" transform="scale(0.015625)"/>
      <path id="DejaVuSans-Bold-28" d="M 2413 -844 
L 1484 -844 
Q 1006 -72 778 623 
Q 550 1319 550 2003 
Q 550 2688 779 3389 
Q 1009 4091 1484 4856 
L 2413 4856 
Q 2013 4116 1813 3408 
Q 1613 2700 1613 2009 
Q 1613 1319 1811 609 
Q 2009 -100 2413 -844 
z
" transform="scale(0.015625)"/>
      <path id="DejaVuSans-Bold-55" d="M 588 4666 
L 1791 4666 
L 1791 1869 
Q 1791 1291 1980 1042 
Q 2169 794 2597 794 
Q 3028 794 3217 1042 
Q 3406 1291 3406 1869 
L 3406 4666 
L 4609 4666 
L 4609 1869 
Q 4609 878 4112 393 
Q 3616 -91 2597 -91 
Q 1581 -91 1084 393 
Q 588 878 588 1869 
L 588 4666 
z
" transform="scale(0.015625)"/>
      <path id="DejaVuSans-Bold-71" d="M 2181 2772 
Q 1825 2772 1636 2509 
Q 1447 2247 1447 1747 
Q 1447 1247 1636 984 
Q 1825 722 2181 722 
Q 2541 722 2730 984 
Q 2919 1247 2919 1747 
Q 2919 2247 2730 2509 
Q 2541 2772 2181 2772 
z
M 2919 506 
Q 2688 197 2409 53 
Q 2131 -91 1766 -91 
Q 1119 -91 703 423 
Q 288 938 288 1747 
Q 288 2556 703 3067 
Q 1119 3578 1766 3578 
Q 2131 3578 2409 3434 
Q 2688 3291 2919 2981 
L 2919 3500 
L 4044 3500 
L 4044 -1331 
L 2919 -1331 
L 2919 506 
z
" transform="scale(0.015625)"/>
      <path id="DejaVuSans-Bold-29" d="M 513 -844 
Q 913 -100 1113 609 
Q 1313 1319 1313 2009 
Q 1313 2700 1113 3408 
Q 913 4116 513 4856 
L 1441 4856 
Q 1916 4091 2145 3389 
Q 2375 2688 2375 2003 
Q 2375 1319 2147 623 
Q 1919 -72 1441 -844 
L 513 -844 
z
" transform="scale(0.015625)"/>
      <path id="DejaVuSans-Bold-3a" d="M 716 3500 
L 1844 3500 
L 1844 2291 
L 716 2291 
L 716 3500 
z
M 716 1209 
L 1844 1209 
L 1844 0 
L 716 0 
L 716 1209 
z
" transform="scale(0.015625)"/>
      <path id="DejaVuSans-Bold-7d" d="M 800 -341 
L 1019 -341 
Q 1456 -341 1589 -205 
Q 1722 -69 1722 378 
L 1722 897 
Q 1722 1384 1862 1606 
Q 2003 1828 2350 1913 
Q 2003 1991 1862 2212 
Q 1722 2434 1722 2925 
L 1722 3444 
Q 1722 3888 1589 4023 
Q 1456 4159 1019 4159 
L 800 4159 
L 800 4863 
L 1478 4863 
Q 2159 4863 2471 4589 
Q 2784 4316 2784 3713 
L 2784 3072 
Q 2784 2603 2953 2422 
Q 3122 2241 3566 2241 
L 3756 2241 
L 3756 1544 
L 3566 1544 
Q 3122 1544 2953 1361 
Q 2784 1178 2784 709 
L 2784 109 
Q 2784 -494 2471 -769 
Q 2159 -1044 1478 -1044 
L 800 -1044 
L 800 -341 
z
" transform="scale(0.015625)"/>
     </defs>
     <use xlink:href="#DejaVuSans-Bold-5c"/>
     <use xlink:href="#DejaVuSans-Bold-74" transform="translate(36.523438 0)"/>
     <use xlink:href="#DejaVuSans-Bold-65" transform="translate(84.326172 0)"/>
     <use xlink:href="#DejaVuSans-Bold-78" transform="translate(152.148438 0)"/>
     <use xlink:href="#DejaVuSans-Bold-74" transform="translate(216.650391 0)"/>
     <use xlink:href="#DejaVuSans-Bold-62" transform="translate(264.453125 0)"/>
     <use xlink:href="#DejaVuSans-Bold-66" transform="translate(336.035156 0)"/>
     <use xlink:href="#DejaVuSans-Bold-7b" transform="translate(379.541016 0)"/>
     <use xlink:href="#DejaVuSans-Bold-54" transform="translate(450.732422 0)"/>
     <use xlink:href="#DejaVuSans-Bold-68" transform="translate(518.945312 0)"/>
     <use xlink:href="#DejaVuSans-Bold-65" transform="translate(590.136719 0)"/>
     <use xlink:href="#DejaVuSans-Bold-6f" transform="translate(657.958984 0)"/>
     <use xlink:href="#DejaVuSans-Bold-72" transform="translate(726.660156 0)"/>
     <use xlink:href="#DejaVuSans-Bold-65" transform="translate(775.976562 0)"/>
     <use xlink:href="#DejaVuSans-Bold-6d" transform="translate(843.798828 0)"/>
     <use xlink:href="#DejaVuSans-Bold-20" transform="translate(947.998047 0)"/>
     <use xlink:href="#DejaVuSans-Bold-35" transform="translate(982.8125 0)"/>
     <use xlink:href="#DejaVuSans-Bold-2e" transform="translate(1052.392578 0)"/>
     <use xlink:href="#DejaVuSans-Bold-31" transform="translate(1090.380859 0)"/>
     <use xlink:href="#DejaVuSans-Bold-20" transform="translate(1159.960938 0)"/>
     <use xlink:href="#DejaVuSans-Bold-28" transform="translate(1194.775391 0)"/>
     <use xlink:href="#DejaVuSans-Bold-55" transform="translate(1240.478516 0)"/>
     <use xlink:href="#DejaVuSans-Bold-6e" transform="translate(1321.679688 0)"/>
     <use xlink:href="#DejaVuSans-Bold-69" transform="translate(1392.871094 0)"/>
     <use xlink:href="#DejaVuSans-Bold-71" transform="translate(1427.148438 0)"/>
     <use xlink:href="#DejaVuSans-Bold-75" transform="translate(1498.730469 0)"/>
     <use xlink:href="#DejaVuSans-Bold-65" transform="translate(1569.921875 0)"/>
     <use xlink:href="#DejaVuSans-Bold-6e" transform="translate(1637.744141 0)"/>
     <use xlink:href="#DejaVuSans-Bold-65" transform="translate(1708.935547 0)"/>
     <use xlink:href="#DejaVuSans-Bold-73" transform="translate(1776.757812 0)"/>
     <use xlink:href="#DejaVuSans-Bold-73" transform="translate(1836.279297 0)"/>
     <use xlink:href="#DejaVuSans-Bold-29" transform="translate(1895.800781 0)"/>
     <use xlink:href="#DejaVuSans-Bold-3a" transform="translate(1941.503906 0)"/>
     <use xlink:href="#DejaVuSans-Bold-7d" transform="translate(1981.494141 0)"/>
    </g>
   </g>
   <g id="text_10">
    <!-- $P(\sigma) = |a_\sigma|^2$ is the unique solution -->
    <g transform="translate(337.155 478.5767) scale(0.11 -0.11)">
     <defs>
      <path id="DejaVuSans-73" d="M 2834 3397 
L 2834 2853 
Q 2591 2978 2328 3040 
Q 2066 3103 1784 3103 
Q 1356 3103 1142 2972 
Q 928 2841 928 2578 
Q 928 2378 1081 2264 
Q 1234 2150 1697 2047 
L 1894 2003 
Q 2506 1872 2764 1633 
Q 3022 1394 3022 966 
Q 3022 478 2636 193 
Q 2250 -91 1575 -91 
Q 1294 -91 989 -36 
Q 684 19 347 128 
L 347 722 
Q 666 556 975 473 
Q 1284 391 1588 391 
Q 1994 391 2212 530 
Q 2431 669 2431 922 
Q 2431 1156 2273 1281 
Q 2116 1406 1581 1522 
L 1381 1569 
Q 847 1681 609 1914 
Q 372 2147 372 2553 
Q 372 3047 722 3315 
Q 1072 3584 1716 3584 
Q 2034 3584 2315 3537 
Q 2597 3491 2834 3397 
z
" transform="scale(0.015625)"/>
      <path id="DejaVuSans-68" d="M 3513 2113 
L 3513 0 
L 2938 0 
L 2938 2094 
Q 2938 2591 2744 2837 
Q 2550 3084 2163 3084 
Q 1697 3084 1428 2787 
Q 1159 2491 1159 1978 
L 1159 0 
L 581 0 
L 581 4863 
L 1159 4863 
L 1159 2956 
Q 1366 3272 1645 3428 
Q 1925 3584 2291 3584 
Q 2894 3584 3203 3211 
Q 3513 2838 3513 2113 
z
" transform="scale(0.015625)"/>
      <path id="DejaVuSans-75" d="M 544 1381 
L 544 3500 
L 1119 3500 
L 1119 1403 
Q 1119 906 1312 657 
Q 1506 409 1894 409 
Q 2359 409 2629 706 
Q 2900 1003 2900 1516 
L 2900 3500 
L 3475 3500 
L 3475 0 
L 2900 0 
L 2900 538 
Q 2691 219 2414 64 
Q 2138 -91 1772 -91 
Q 1169 -91 856 284 
Q 544 659 544 1381 
z
M 1991 3584 
L 1991 3584 
z
" transform="scale(0.015625)"/>
      <path id="DejaVuSans-71" d="M 947 1747 
Q 947 1113 1208 752 
Q 1469 391 1925 391 
Q 2381 391 2643 752 
Q 2906 1113 2906 1747 
Q 2906 2381 2643 2742 
Q 2381 3103 1925 3103 
Q 1469 3103 1208 2742 
Q 947 2381 947 1747 
z
M 2906 525 
Q 2725 213 2448 61 
Q 2172 -91 1784 -91 
Q 1150 -91 751 415 
Q 353 922 353 1747 
Q 353 2572 751 3078 
Q 1150 3584 1784 3584 
Q 2172 3584 2448 3432 
Q 2725 3281 2906 2969 
L 2906 3500 
L 3481 3500 
L 3481 -1331 
L 2906 -1331 
L 2906 525 
z
" transform="scale(0.015625)"/>
     </defs>
     <use xlink:href="#DejaVuSans-Oblique-50" transform="translate(0 0.765625)"/>
     <use xlink:href="#DejaVuSans-28" transform="translate(60.302734 0.765625)"/>
     <use xlink:href="#DejaVuSans-Oblique-3c3" transform="translate(99.316406 0.765625)"/>
     <use xlink:href="#DejaVuSans-29" transform="translate(162.695312 0.765625)"/>
     <use xlink:href="#DejaVuSans-3d" transform="translate(221.191406 0.765625)"/>
     <use xlink:href="#DejaVuSans-7c" transform="translate(324.462891 0.765625)"/>
     <use xlink:href="#DejaVuSans-Oblique-61" transform="translate(358.154297 0.765625)"/>
     <use xlink:href="#DejaVuSans-Oblique-3c3" transform="translate(419.433594 -15.640625) scale(0.7)"/>
     <use xlink:href="#DejaVuSans-7c" transform="translate(466.533203 0.765625)"/>
     <use xlink:href="#DejaVuSans-32" transform="translate(501.181641 39.046875) scale(0.7)"/>
     <use xlink:href="#DejaVuSans-20" transform="translate(548.452148 0.765625)"/>
     <use xlink:href="#DejaVuSans-69" transform="translate(580.239258 0.765625)"/>
     <use xlink:href="#DejaVuSans-73" transform="translate(608.022461 0.765625)"/>
     <use xlink:href="#DejaVuSans-20" transform="translate(660.12207 0.765625)"/>
     <use xlink:href="#DejaVuSans-74" transform="translate(691.90918 0.765625)"/>
     <use xlink:href="#DejaVuSans-68" transform="translate(731.118164 0.765625)"/>
     <use xlink:href="#DejaVuSans-65" transform="translate(794.49707 0.765625)"/>
     <use xlink:href="#DejaVuSans-20" transform="translate(856.020508 0.765625)"/>
     <use xlink:href="#DejaVuSans-75" transform="translate(887.807617 0.765625)"/>
     <use xlink:href="#DejaVuSans-6e" transform="translate(951.186523 0.765625)"/>
     <use xlink:href="#DejaVuSans-69" transform="translate(1014.56543 0.765625)"/>
     <use xlink:href="#DejaVuSans-71" transform="translate(1042.348633 0.765625)"/>
     <use xlink:href="#DejaVuSans-75" transform="translate(1105.825195 0.765625)"/>
     <use xlink:href="#DejaVuSans-65" transform="translate(1169.204102 0.765625)"/>
     <use xlink:href="#DejaVuSans-20" transform="translate(1230.727539 0.765625)"/>
     <use xlink:href="#DejaVuSans-73" transform="translate(1262.514648 0.765625)"/>
     <use xlink:href="#DejaVuSans-6f" transform="translate(1314.614258 0.765625)"/>
     <use xlink:href="#DejaVuSans-6c" transform="translate(1375.795898 0.765625)"/>
     <use xlink:href="#DejaVuSans-75" transform="translate(1403.579102 0.765625)"/>
     <use xlink:href="#DejaVuSans-74" transform="translate(1466.958008 0.765625)"/>
     <use xlink:href="#DejaVuSans-69" transform="translate(1506.166992 0.765625)"/>
     <use xlink:href="#DejaVuSans-6f" transform="translate(1533.950195 0.765625)"/>
     <use xlink:href="#DejaVuSans-6e" transform="translate(1595.131836 0.765625)"/>
    </g>
   </g>
   <g id="text_11">
    <!-- (up to global phase) -->
    <g transform="translate(378.030469 499.4919) scale(0.1 -0.1)">
     <defs>
      <path id="DejaVuSans-Oblique-28" d="M 2731 4856 
Q 1903 3822 1495 2892 
Q 1088 1963 1088 1100 
Q 1088 606 1206 120 
Q 1325 -366 1563 -844 
L 1063 -844 
Q 775 -306 634 201 
Q 494 709 494 1197 
Q 494 2125 923 3036 
Q 1353 3947 2222 4856 
L 2731 4856 
z
" transform="scale(0.015625)"/>
      <path id="DejaVuSans-Oblique-75" d="M 428 1388 
L 838 3500 
L 1416 3500 
L 1006 1409 
Q 975 1256 961 1147 
Q 947 1038 947 966 
Q 947 700 1109 554 
Q 1272 409 1569 409 
Q 2031 409 2368 721 
Q 2706 1034 2809 1563 
L 3194 3500 
L 3769 3500 
L 3091 0 
L 2516 0 
L 2631 550 
Q 2388 244 2052 76 
Q 1716 -91 1338 -91 
Q 878 -91 622 161 
Q 366 413 366 863 
Q 366 956 381 1097 
Q 397 1238 428 1388 
z
" transform="scale(0.015625)"/>
      <path id="DejaVuSans-Oblique-70" d="M 3175 2156 
Q 3175 2616 2975 2859 
Q 2775 3103 2400 3103 
Q 2144 3103 1911 2972 
Q 1678 2841 1497 2591 
Q 1319 2344 1212 1994 
Q 1106 1644 1106 1300 
Q 1106 863 1306 627 
Q 1506 391 1875 391 
Q 2147 391 2380 519 
Q 2613 647 2778 891 
Q 2956 1147 3065 1494 
Q 3175 1841 3175 2156 
z
M 1394 2969 
Q 1625 3272 1939 3428 
Q 2253 3584 2638 3584 
Q 3175 3584 3472 3232 
Q 3769 2881 3769 2247 
Q 3769 1728 3584 1258 
Q 3400 788 3053 416 
Q 2822 169 2531 39 
Q 2241 -91 1919 -91 
Q 1547 -91 1294 64 
Q 1041 219 916 525 
L 556 -1331 
L -19 -1331 
L 922 3500 
L 1497 3500 
L 1394 2969 
z
" transform="scale(0.015625)"/>
      <path id="DejaVuSans-Oblique-20" transform="scale(0.015625)"/>
      <path id="DejaVuSans-Oblique-74" d="M 2706 3500 
L 2619 3053 
L 1472 3053 
L 1100 1153 
Q 1081 1047 1072 975 
Q 1063 903 1063 863 
Q 1063 663 1183 572 
Q 1303 481 1569 481 
L 2150 481 
L 2053 0 
L 1503 0 
Q 991 0 739 200 
Q 488 400 488 806 
Q 488 878 497 964 
Q 506 1050 525 1153 
L 897 3053 
L 409 3053 
L 500 3500 
L 978 3500 
L 1172 4494 
L 1747 4494 
L 1556 3500 
L 2706 3500 
z
" transform="scale(0.015625)"/>
      <path id="DejaVuSans-Oblique-6f" d="M 1625 -91 
Q 1009 -91 651 289 
Q 294 669 294 1325 
Q 294 1706 417 2101 
Q 541 2497 738 2766 
Q 1047 3184 1428 3384 
Q 1809 3584 2291 3584 
Q 2888 3584 3255 3212 
Q 3622 2841 3622 2241 
Q 3622 1825 3500 1412 
Q 3378 1000 3181 728 
Q 2875 309 2494 109 
Q 2113 -91 1625 -91 
z
M 891 1344 
Q 891 869 1089 633 
Q 1288 397 1691 397 
Q 2269 397 2648 901 
Q 3028 1406 3028 2181 
Q 3028 2634 2825 2865 
Q 2622 3097 2228 3097 
Q 1903 3097 1650 2945 
Q 1397 2794 1197 2484 
Q 1050 2253 970 1956 
Q 891 1659 891 1344 
z
" transform="scale(0.015625)"/>
      <path id="DejaVuSans-Oblique-67" d="M 3816 3500 
L 3219 434 
Q 3047 -456 2561 -893 
Q 2075 -1331 1253 -1331 
Q 950 -1331 690 -1286 
Q 431 -1241 206 -1147 
L 313 -588 
Q 525 -725 762 -790 
Q 1000 -856 1269 -856 
Q 1816 -856 2167 -557 
Q 2519 -259 2631 300 
L 2681 563 
Q 2441 288 2122 144 
Q 1803 0 1434 0 
Q 903 0 598 351 
Q 294 703 294 1319 
Q 294 1803 478 2267 
Q 663 2731 997 3091 
Q 1219 3328 1514 3456 
Q 1809 3584 2131 3584 
Q 2484 3584 2746 3420 
Q 3009 3256 3138 2956 
L 3238 3500 
L 3816 3500 
z
M 2950 2216 
Q 2950 2641 2750 2872 
Q 2550 3103 2181 3103 
Q 1953 3103 1747 3012 
Q 1541 2922 1394 2759 
Q 1156 2491 1023 2127 
Q 891 1763 891 1375 
Q 891 944 1092 712 
Q 1294 481 1672 481 
Q 2219 481 2584 976 
Q 2950 1472 2950 2216 
z
" transform="scale(0.015625)"/>
      <path id="DejaVuSans-Oblique-6c" d="M 1172 4863 
L 1747 4863 
L 800 0 
L 225 0 
L 1172 4863 
z
" transform="scale(0.015625)"/>
      <path id="DejaVuSans-Oblique-62" d="M 3169 2138 
Q 3169 2591 2961 2847 
Q 2753 3103 2388 3103 
Q 2122 3103 1889 2973 
Q 1656 2844 1484 2597 
Q 1303 2338 1198 1995 
Q 1094 1653 1094 1313 
Q 1094 881 1298 636 
Q 1503 391 1863 391 
Q 2134 391 2365 517 
Q 2597 644 2772 891 
Q 2950 1147 3059 1487 
Q 3169 1828 3169 2138 
z
M 1381 2969 
Q 1594 3256 1914 3420 
Q 2234 3584 2584 3584 
Q 3122 3584 3439 3221 
Q 3756 2859 3756 2241 
Q 3756 1734 3570 1259 
Q 3384 784 3041 416 
Q 2816 172 2522 40 
Q 2228 -91 1906 -91 
Q 1566 -91 1316 65 
Q 1066 222 909 531 
L 806 0 
L 231 0 
L 1178 4863 
L 1753 4863 
L 1381 2969 
z
" transform="scale(0.015625)"/>
      <path id="DejaVuSans-Oblique-68" d="M 3566 2113 
L 3156 0 
L 2578 0 
L 2988 2091 
Q 3016 2238 3031 2350 
Q 3047 2463 3047 2528 
Q 3047 2791 2881 2937 
Q 2716 3084 2419 3084 
Q 1956 3084 1617 2771 
Q 1278 2459 1178 1941 
L 800 0 
L 225 0 
L 1172 4863 
L 1747 4863 
L 1375 2950 
Q 1594 3244 1934 3414 
Q 2275 3584 2650 3584 
Q 3113 3584 3367 3334 
Q 3622 3084 3622 2631 
Q 3622 2519 3608 2391 
Q 3594 2263 3566 2113 
z
" transform="scale(0.015625)"/>
      <path id="DejaVuSans-Oblique-73" d="M 3200 3397 
L 3091 2853 
Q 2863 2978 2609 3040 
Q 2356 3103 2088 3103 
Q 1634 3103 1373 2948 
Q 1113 2794 1113 2528 
Q 1113 2219 1719 2053 
Q 1766 2041 1788 2034 
L 1972 1978 
Q 2547 1819 2739 1644 
Q 2931 1469 2931 1166 
Q 2931 609 2489 259 
Q 2047 -91 1331 -91 
Q 1053 -91 747 -37 
Q 441 16 72 128 
L 184 722 
Q 500 559 806 475 
Q 1113 391 1394 391 
Q 1816 391 2080 572 
Q 2344 753 2344 1031 
Q 2344 1331 1650 1516 
L 1591 1531 
L 1394 1581 
Q 956 1697 753 1886 
Q 550 2075 550 2369 
Q 550 2928 970 3256 
Q 1391 3584 2113 3584 
Q 2397 3584 2667 3537 
Q 2938 3491 3200 3397 
z
" transform="scale(0.015625)"/>
      <path id="DejaVuSans-Oblique-65" d="M 3078 2063 
Q 3088 2113 3092 2166 
Q 3097 2219 3097 2272 
Q 3097 2653 2873 2875 
Q 2650 3097 2266 3097 
Q 1838 3097 1509 2826 
Q 1181 2556 1013 2059 
L 3078 2063 
z
M 3578 1613 
L 903 1613 
Q 884 1494 878 1425 
Q 872 1356 872 1306 
Q 872 872 1139 634 
Q 1406 397 1894 397 
Q 2269 397 2603 481 
Q 2938 566 3225 728 
L 3116 159 
Q 2806 34 2476 -28 
Q 2147 -91 1806 -91 
Q 1078 -91 686 257 
Q 294 606 294 1247 
Q 294 1794 489 2264 
Q 684 2734 1063 3103 
Q 1306 3334 1642 3459 
Q 1978 3584 2356 3584 
Q 2950 3584 3301 3228 
Q 3653 2872 3653 2272 
Q 3653 2128 3634 1964 
Q 3616 1800 3578 1613 
z
" transform="scale(0.015625)"/>
      <path id="DejaVuSans-Oblique-29" d="M -397 -844 
Q 434 191 840 1120 
Q 1247 2050 1247 2913 
Q 1247 3406 1130 3892 
Q 1013 4378 775 4856 
L 1275 4856 
Q 1563 4316 1703 3812 
Q 1844 3309 1844 2822 
Q 1844 1891 1411 973 
Q 978 56 116 -844 
L -397 -844 
z
" transform="scale(0.015625)"/>
     </defs>
     <use xlink:href="#DejaVuSans-Oblique-28"/>
     <use xlink:href="#DejaVuSans-Oblique-75" transform="translate(39.013672 0)"/>
     <use xlink:href="#DejaVuSans-Oblique-70" transform="translate(102.392578 0)"/>
     <use xlink:href="#DejaVuSans-Oblique-20" transform="translate(165.869141 0)"/>
     <use xlink:href="#DejaVuSans-Oblique-74" transform="translate(197.65625 0)"/>
     <use xlink:href="#DejaVuSans-Oblique-6f" transform="translate(236.865234 0)"/>
     <use xlink:href="#DejaVuSans-Oblique-20" transform="translate(298.046875 0)"/>
     <use xlink:href="#DejaVuSans-Oblique-67" transform="translate(329.833984 0)"/>
     <use xlink:href="#DejaVuSans-Oblique-6c" transform="translate(393.310547 0)"/>
     <use xlink:href="#DejaVuSans-Oblique-6f" transform="translate(421.09375 0)"/>
     <use xlink:href="#DejaVuSans-Oblique-62" transform="translate(482.275391 0)"/>
     <use xlink:href="#DejaVuSans-Oblique-61" transform="translate(545.751953 0)"/>
     <use xlink:href="#DejaVuSans-Oblique-6c" transform="translate(607.03125 0)"/>
     <use xlink:href="#DejaVuSans-Oblique-20" transform="translate(634.814453 0)"/>
     <use xlink:href="#DejaVuSans-Oblique-70" transform="translate(666.601562 0)"/>
     <use xlink:href="#DejaVuSans-Oblique-68" transform="translate(730.078125 0)"/>
     <use xlink:href="#DejaVuSans-Oblique-61" transform="translate(793.457031 0)"/>
     <use xlink:href="#DejaVuSans-Oblique-73" transform="translate(854.736328 0)"/>
     <use xlink:href="#DejaVuSans-Oblique-65" transform="translate(906.835938 0)"/>
     <use xlink:href="#DejaVuSans-Oblique-29" transform="translate(968.359375 0)"/>
    </g>
   </g>
   <g id="text_12">
    <g id="patch_10">
     <path d="M 295.2 555.1911 
L 561.6 555.1911 
Q 566.4 555.1911 566.4 550.3911 
L 566.4 531.9911 
Q 566.4 527.1911 561.6 527.1911 
L 295.2 527.1911 
Q 290.4 527.1911 290.4 531.9911 
L 290.4 550.3911 
Q 290.4 555.1911 295.2 555.1911 
z
" style="fill: #ffd700; opacity: 0.4; stroke: #000000; stroke-width: 0.24; stroke-linejoin: miter"/>
    </g>
    <!-- $\Rightarrow$ \textbf{Born Rule:} $P = |a|^2$ -->
    <g transform="translate(295.2 546.5511) scale(0.16 -0.16)">
     <defs>
      <path id="DejaVuSans-21d2" d="M 4113 1678 
L 4441 2006 
L 4113 2334 
L 366 2334 
L 366 2709 
L 3738 2709 
L 3447 3000 
L 3822 3375 
L 5050 2147 
L 5050 1866 
L 3822 638 
L 3447 1013 
L 3738 1303 
L 366 1303 
L 366 1678 
L 4113 1678 
z
" transform="scale(0.015625)"/>
      <path id="DejaVuSans-Bold-52" d="M 2297 2597 
Q 2675 2597 2839 2737 
Q 3003 2878 3003 3200 
Q 3003 3519 2839 3656 
Q 2675 3794 2297 3794 
L 1791 3794 
L 1791 2597 
L 2297 2597 
z
M 1791 1766 
L 1791 0 
L 588 0 
L 588 4666 
L 2425 4666 
Q 3347 4666 3776 4356 
Q 4206 4047 4206 3378 
Q 4206 2916 3982 2619 
Q 3759 2322 3309 2181 
Q 3556 2125 3751 1926 
Q 3947 1728 4147 1325 
L 4800 0 
L 3519 0 
L 2950 1159 
Q 2778 1509 2601 1637 
Q 2425 1766 2131 1766 
L 1791 1766 
z
" transform="scale(0.015625)"/>
     </defs>
     <use xlink:href="#DejaVuSans-21d2" transform="translate(19.482422 0.765625)"/>
     <use xlink:href="#DejaVuSans-Bold-20" transform="translate(122.753906 0.765625)"/>
     <use xlink:href="#DejaVuSans-Bold-5c" transform="translate(157.568359 0.765625)"/>
     <use xlink:href="#DejaVuSans-Bold-74" transform="translate(194.091797 0.765625)"/>
     <use xlink:href="#DejaVuSans-Bold-65" transform="translate(241.894531 0.765625)"/>
     <use xlink:href="#DejaVuSans-Bold-78" transform="translate(309.716797 0.765625)"/>
     <use xlink:href="#DejaVuSans-Bold-74" transform="translate(374.21875 0.765625)"/>
     <use xlink:href="#DejaVuSans-Bold-62" transform="translate(422.021484 0.765625)"/>
     <use xlink:href="#DejaVuSans-Bold-66" transform="translate(493.603516 0.765625)"/>
     <use xlink:href="#DejaVuSans-Bold-7b" transform="translate(537.109375 0.765625)"/>
     <use xlink:href="#DejaVuSans-Bold-42" transform="translate(608.300781 0.765625)"/>
     <use xlink:href="#DejaVuSans-Bold-6f" transform="translate(684.521484 0.765625)"/>
     <use xlink:href="#DejaVuSans-Bold-72" transform="translate(753.222656 0.765625)"/>
     <use xlink:href="#DejaVuSans-Bold-6e" transform="translate(802.539062 0.765625)"/>
     <use xlink:href="#DejaVuSans-Bold-20" transform="translate(873.730469 0.765625)"/>
     <use xlink:href="#DejaVuSans-Bold-52" transform="translate(908.544922 0.765625)"/>
     <use xlink:href="#DejaVuSans-Bold-75" transform="translate(985.546875 0.765625)"/>
     <use xlink:href="#DejaVuSans-Bold-6c" transform="translate(1056.738281 0.765625)"/>
     <use xlink:href="#DejaVuSans-Bold-65" transform="translate(1091.015625 0.765625)"/>
     <use xlink:href="#DejaVuSans-Bold-3a" transform="translate(1158.837891 0.765625)"/>
     <use xlink:href="#DejaVuSans-Bold-7d" transform="translate(1198.828125 0.765625)"/>
     <use xlink:href="#DejaVuSans-Bold-20" transform="translate(1270.019531 0.765625)"/>
     <use xlink:href="#DejaVuSans-Oblique-50" transform="translate(1304.833984 0.765625)"/>
     <use xlink:href="#DejaVuSans-3d" transform="translate(1384.619141 0.765625)"/>
     <use xlink:href="#DejaVuSans-7c" transform="translate(1487.890625 0.765625)"/>
     <use xlink:href="#DejaVuSans-Oblique-61" transform="translate(1521.582031 0.765625)"/>
     <use xlink:href="#DejaVuSans-7c" transform="translate(1582.861328 0.765625)"/>
     <use xlink:href="#DejaVuSans-32" transform="translate(1617.509766 39.046875) scale(0.7)"/>
    </g>
   </g>
   <g id="text_13">
    <!-- Figure 3: The Entropy-Amplitude Bridge -->
    <g transform="translate(248.15625 19.3575) scale(0.16 -0.16)">
     <defs>
      <path id="DejaVuSans-Bold-46" d="M 588 4666 
L 3834 4666 
L 3834 3756 
L 1791 3756 
L 1791 2888 
L 3713 2888 
L 3713 1978 
L 1791 1978 
L 1791 0 
L 588 0 
L 588 4666 
z
" transform="scale(0.015625)"/>
      <path id="DejaVuSans-Bold-33" d="M 2981 2516 
Q 3453 2394 3698 2092 
Q 3944 1791 3944 1325 
Q 3944 631 3412 270 
Q 2881 -91 1863 -91 
Q 1503 -91 1142 -33 
Q 781 25 428 141 
L 428 1069 
Q 766 900 1098 814 
Q 1431 728 1753 728 
Q 2231 728 2486 893 
Q 2741 1059 2741 1369 
Q 2741 1688 2480 1852 
Q 2219 2016 1709 2016 
L 1228 2016 
L 1228 2791 
L 1734 2791 
Q 2188 2791 2409 2933 
Q 2631 3075 2631 3366 
Q 2631 3634 2415 3781 
Q 2200 3928 1806 3928 
Q 1516 3928 1219 3862 
Q 922 3797 628 3669 
L 628 4550 
Q 984 4650 1334 4700 
Q 1684 4750 2022 4750 
Q 2931 4750 3382 4451 
Q 3834 4153 3834 3553 
Q 3834 3144 3618 2883 
Q 3403 2622 2981 2516 
z
" transform="scale(0.015625)"/>
     </defs>
     <use xlink:href="#DejaVuSans-Bold-46"/>
     <use xlink:href="#DejaVuSans-Bold-69" transform="translate(68.310547 0)"/>
     <use xlink:href="#DejaVuSans-Bold-67" transform="translate(102.587891 0)"/>
     <use xlink:href="#DejaVuSans-Bold-75" transform="translate(174.169922 0)"/>
     <use xlink:href="#DejaVuSans-Bold-72" transform="translate(245.361328 0)"/>
     <use xlink:href="#DejaVuSans-Bold-65" transform="translate(294.677734 0)"/>
     <use xlink:href="#DejaVuSans-Bold-20" transform="translate(362.5 0)"/>
     <use xlink:href="#DejaVuSans-Bold-33" transform="translate(397.314453 0)"/>
     <use xlink:href="#DejaVuSans-Bold-3a" transform="translate(466.894531 0)"/>
     <use xlink:href="#DejaVuSans-Bold-20" transform="translate(506.884766 0)"/>
     <use xlink:href="#DejaVuSans-Bold-54" transform="translate(541.699219 0)"/>
     <use xlink:href="#DejaVuSans-Bold-68" transform="translate(609.912109 0)"/>
     <use xlink:href="#DejaVuSans-Bold-65" transform="translate(681.103516 0)"/>
     <use xlink:href="#DejaVuSans-Bold-20" transform="translate(748.925781 0)"/>
     <use xlink:href="#DejaVuSans-Bold-45" transform="translate(783.740234 0)"/>
     <use xlink:href="#DejaVuSans-Bold-6e" transform="translate(852.050781 0)"/>
     <use xlink:href="#DejaVuSans-Bold-74" transform="translate(923.242188 0)"/>
     <use xlink:href="#DejaVuSans-Bold-72" transform="translate(971.044922 0)"/>
     <use xlink:href="#DejaVuSans-Bold-6f" transform="translate(1020.361328 0)"/>
     <use xlink:href="#DejaVuSans-Bold-70" transform="translate(1089.0625 0)"/>
     <use xlink:href="#DejaVuSans-Bold-79" transform="translate(1160.644531 0)"/>
     <use xlink:href="#DejaVuSans-Bold-2d" transform="translate(1225.830078 0)"/>
     <use xlink:href="#DejaVuSans-Bold-41" transform="translate(1267.333984 0)"/>
     <use xlink:href="#DejaVuSans-Bold-6d" transform="translate(1344.726562 0)"/>
     <use xlink:href="#DejaVuSans-Bold-70" transform="translate(1448.925781 0)"/>
     <use xlink:href="#DejaVuSans-Bold-6c" transform="translate(1520.507812 0)"/>
     <use xlink:href="#DejaVuSans-Bold-69" transform="translate(1554.785156 0)"/>
     <use xlink:href="#DejaVuSans-Bold-74" transform="translate(1589.0625 0)"/>
     <use xlink:href="#DejaVuSans-Bold-75" transform="translate(1636.865234 0)"/>
     <use xlink:href="#DejaVuSans-Bold-64" transform="translate(1708.056641 0)"/>
     <use xlink:href="#DejaVuSans-Bold-65" transform="translate(1779.638672 0)"/>
     <use xlink:href="#DejaVuSans-Bold-20" transform="translate(1847.460938 0)"/>
     <use xlink:href="#DejaVuSans-Bold-42" transform="translate(1882.275391 0)"/>
     <use xlink:href="#DejaVuSans-Bold-72" transform="translate(1958.496094 0)"/>
     <use xlink:href="#DejaVuSans-Bold-69" transform="translate(2007.8125 0)"/>
     <use xlink:href="#DejaVuSans-Bold-64" transform="translate(2042.089844 0)"/>
     <use xlink:href="#DejaVuSans-Bold-67" transform="translate(2113.671875 0)"/>
     <use xlink:href="#DejaVuSans-Bold-65" transform="translate(2185.253906 0)"/>
    </g>
   </g>
  </g>
 </g>
 <defs>
  <clipPath id="pd445ab6f89">
   <rect x="7.2" y="39.3575" width="842.4" height="522.88"/>
  </clipPath>
 </defs>
</svg>
