<?xml version="1.0" encoding="utf-8" standalone="no"?>
<!DOCTYPE svg PUBLIC "-//W3C//DTD SVG 1.1//EN"
  "http://www.w3.org/Graphics/SVG/1.1/DTD/svg11.dtd">
<svg xmlns:xlink="http://www.w3.org/1999/xlink" width="856.8pt" height="569.4375pt" viewBox="0 0 856.8 569.4375" xmlns="http://www.w3.org/2000/svg" version="1.1">
 <metadata>
  <rdf:RDF xmlns:dc="http://purl.org/dc/elements/1.1/" xmlns:cc="http://creativecommons.org/ns#" xmlns:rdf="http://www.w3.org/1999/02/22-rdf-syntax-ns#">
   <cc:Work>
    <dc:type rdf:resource="http://purl.org/dc/dcmitype/StillImage"/>
    <dc:date>2025-10-07T11:33:08.964529</dc:date>
    <dc:format>image/svg+xml</dc:format>
    <dc:creator>
     <cc:Agent>
      <dc:title>Matplotlib v3.10.1, https://matplotlib.org/</dc:title>
     </cc:Agent>
    </dc:creator>
   </cc:Work>
  </rdf:RDF>
 </metadata>
 <defs>
  <style type="text/css">*{stroke-linejoin: round; stroke-linecap: butt}</style>
 </defs>
 <g id="figure_1">
  <g id="patch_1">
   <path d="M 0 569.4375 
L 856.8 569.4375 
L 856.8 0 
L 0 0 
z
" style="fill: #ffffff"/>
  </g>
  <g id="axes_1">
   <g id="patch_2">
    <path d="M 49.32 282.4967 
L 386.28 282.4967 
Q 398.916 282.4967 398.916 274.6535 
L 398.916 117.7895 
Q 398.916 109.9463 386.28 109.9463 
L 49.32 109.9463 
Q 36.684 109.9463 36.684 117.7895 
L 36.684 274.6535 
Q 36.684 282.4967 49.32 282.4967 
z
" clip-path="url(#pd298781e03)" style="fill: #2e86ab; opacity: 0.15; stroke: #2e86ab; stroke-width: 3; stroke-linejoin: miter"/>
   </g>
   <g id="patch_3">
    <path d="M 470.52 282.4967 
L 807.48 282.4967 
Q 820.116 282.4967 820.116 274.6535 
L 820.116 117.7895 
Q 820.116 109.9463 807.48 109.9463 
L 470.52 109.9463 
Q 457.884 109.9463 457.884 117.7895 
L 457.884 274.6535 
Q 457.884 282.4967 470.52 282.4967 
z
" clip-path="url(#pd298781e03)" style="fill: #06a77d; opacity: 0.15; stroke: #06a77d; stroke-width: 3; stroke-linejoin: miter"/>
   </g>
   <g id="patch_4">
    <path d="M 396.707168 170.0775 
Q 428.401834 170.0775 456.742398 170.0775 
" clip-path="url(#pd298781e03)" style="fill: none; stroke: #f18f01; stroke-width: 3; stroke-linecap: round"/>
    <path d="M 446.742398 165.0775 
L 456.742398 170.0775 
L 446.742398 175.0775 
" clip-path="url(#pd298781e03)" style="fill: none; stroke: #f18f01; stroke-width: 3; stroke-linecap: round"/>
   </g>
   <g id="patch_5">
    <path d="M 460.092832 222.3655 
Q 428.398166 222.3655 400.057602 222.3655 
" clip-path="url(#pd298781e03)" style="fill: none; stroke: #f18f01; stroke-width: 3; stroke-linecap: round"/>
    <path d="M 410.057602 227.3655 
L 400.057602 222.3655 
L 410.057602 217.3655 
" clip-path="url(#pd298781e03)" style="fill: none; stroke: #f18f01; stroke-width: 3; stroke-linecap: round"/>
   </g>
   <g id="patch_6">
    <path d="M 49.32 410.6023 
L 386.28 410.6023 
Q 394.704 410.6023 394.704 405.3735 
L 394.704 311.2551 
Q 394.704 306.0263 386.28 306.0263 
L 49.32 306.0263 
Q 40.896 306.0263 40.896 311.2551 
L 40.896 405.3735 
Q 40.896 410.6023 49.32 410.6023 
z
" clip-path="url(#pd298781e03)" style="fill: #e6e6fa; opacity: 0.4; stroke: #a23b72; stroke-width: 2; stroke-linejoin: miter"/>
   </g>
   <g id="patch_7">
    <path d="M 470.52 410.6023 
L 807.48 410.6023 
Q 815.904 410.6023 815.904 405.3735 
L 815.904 311.2551 
Q 815.904 306.0263 807.48 306.0263 
L 470.52 306.0263 
Q 462.096 306.0263 462.096 311.2551 
L 462.096 405.3735 
Q 462.096 410.6023 470.52 410.6023 
z
" clip-path="url(#pd298781e03)" style="fill: #e6e6fa; opacity: 0.4; stroke: #a23b72; stroke-width: 2; stroke-linejoin: miter"/>
   </g>
   <g id="patch_8">
    <path d="M 133.56 543.9367 
L 723.24 543.9367 
Q 735.876 543.9367 735.876 536.0935 
L 735.876 431.5175 
Q 735.876 423.6743 723.24 423.6743 
L 133.56 423.6743 
Q 120.924 423.6743 120.924 431.5175 
L 120.924 536.0935 
Q 120.924 543.9367 133.56 543.9367 
z
" clip-path="url(#pd298781e03)" style="fill: #f08080; opacity: 0.2; stroke: #8b0000; stroke-width: 3; stroke-linejoin: miter"/>
   </g>
   <g id="text_1">
    <!-- \textbf{Lagrangian Formulation} -->
    <g transform="translate(86.657187 133.4759) scale(0.14 -0.14)">
     <defs>
      <path id="DejaVuSans-Bold-5c" d="M 1644 -594 
L 0 4666 
L 691 4666 
L 2338 -594 
L 1644 -594 
z
" transform="scale(0.015625)"/>
      <path id="DejaVuSans-Bold-74" d="M 1759 4494 
L 1759 3500 
L 2913 3500 
L 2913 2700 
L 1759 2700 
L 1759 1216 
Q 1759 972 1856 886 
Q 1953 800 2241 800 
L 2816 800 
L 2816 0 
L 1856 0 
Q 1194 0 917 276 
Q 641 553 641 1216 
L 641 2700 
L 84 2700 
L 84 3500 
L 641 3500 
L 641 4494 
L 1759 4494 
z
" transform="scale(0.015625)"/>
      <path id="DejaVuSans-Bold-65" d="M 4031 1759 
L 4031 1441 
L 1416 1441 
Q 1456 1047 1700 850 
Q 1944 653 2381 653 
Q 2734 653 3104 758 
Q 3475 863 3866 1075 
L 3866 213 
Q 3469 63 3072 -14 
Q 2675 -91 2278 -91 
Q 1328 -91 801 392 
Q 275 875 275 1747 
Q 275 2603 792 3093 
Q 1309 3584 2216 3584 
Q 3041 3584 3536 3087 
Q 4031 2591 4031 1759 
z
M 2881 2131 
Q 2881 2450 2695 2645 
Q 2509 2841 2209 2841 
Q 1884 2841 1681 2658 
Q 1478 2475 1428 2131 
L 2881 2131 
z
" transform="scale(0.015625)"/>
      <path id="DejaVuSans-Bold-78" d="M 1422 1791 
L 159 3500 
L 1344 3500 
L 2059 2463 
L 2784 3500 
L 3969 3500 
L 2706 1797 
L 4031 0 
L 2847 0 
L 2059 1106 
L 1281 0 
L 97 0 
L 1422 1791 
z
" transform="scale(0.015625)"/>
      <path id="DejaVuSans-Bold-62" d="M 2400 722 
Q 2759 722 2948 984 
Q 3138 1247 3138 1747 
Q 3138 2247 2948 2509 
Q 2759 2772 2400 2772 
Q 2041 2772 1848 2508 
Q 1656 2244 1656 1747 
Q 1656 1250 1848 986 
Q 2041 722 2400 722 
z
M 1656 2988 
Q 1888 3294 2169 3439 
Q 2450 3584 2816 3584 
Q 3463 3584 3878 3070 
Q 4294 2556 4294 1747 
Q 4294 938 3878 423 
Q 3463 -91 2816 -91 
Q 2450 -91 2169 54 
Q 1888 200 1656 506 
L 1656 0 
L 538 0 
L 538 4863 
L 1656 4863 
L 1656 2988 
z
" transform="scale(0.015625)"/>
      <path id="DejaVuSans-Bold-66" d="M 2841 4863 
L 2841 4128 
L 2222 4128 
Q 1984 4128 1890 4042 
Q 1797 3956 1797 3744 
L 1797 3500 
L 2753 3500 
L 2753 2700 
L 1797 2700 
L 1797 0 
L 678 0 
L 678 2700 
L 122 2700 
L 122 3500 
L 678 3500 
L 678 3744 
Q 678 4316 997 4589 
Q 1316 4863 1984 4863 
L 2841 4863 
z
" transform="scale(0.015625)"/>
      <path id="DejaVuSans-Bold-7b" d="M 3756 -341 
L 3756 -1044 
L 3078 -1044 
Q 2397 -1044 2084 -769 
Q 1772 -494 1772 109 
L 1772 709 
Q 1772 1178 1603 1361 
Q 1434 1544 991 1544 
L 800 1544 
L 800 2241 
L 991 2241 
Q 1434 2241 1603 2422 
Q 1772 2603 1772 3072 
L 1772 3713 
Q 1772 4316 2084 4589 
Q 2397 4863 3078 4863 
L 3756 4863 
L 3756 4159 
L 3541 4159 
Q 3100 4159 2967 4023 
Q 2834 3888 2834 3444 
L 2834 2925 
Q 2834 2434 2693 2212 
Q 2553 1991 2209 1913 
Q 2556 1828 2695 1606 
Q 2834 1384 2834 897 
L 2834 378 
Q 2834 -69 2967 -205 
Q 3100 -341 3541 -341 
L 3756 -341 
z
" transform="scale(0.015625)"/>
      <path id="DejaVuSans-Bold-4c" d="M 588 4666 
L 1791 4666 
L 1791 909 
L 3903 909 
L 3903 0 
L 588 0 
L 588 4666 
z
" transform="scale(0.015625)"/>
      <path id="DejaVuSans-Bold-61" d="M 2106 1575 
Q 1756 1575 1579 1456 
Q 1403 1338 1403 1106 
Q 1403 894 1545 773 
Q 1688 653 1941 653 
Q 2256 653 2472 879 
Q 2688 1106 2688 1447 
L 2688 1575 
L 2106 1575 
z
M 3816 1997 
L 3816 0 
L 2688 0 
L 2688 519 
Q 2463 200 2181 54 
Q 1900 -91 1497 -91 
Q 953 -91 614 226 
Q 275 544 275 1050 
Q 275 1666 698 1953 
Q 1122 2241 2028 2241 
L 2688 2241 
L 2688 2328 
Q 2688 2594 2478 2717 
Q 2269 2841 1825 2841 
Q 1466 2841 1156 2769 
Q 847 2697 581 2553 
L 581 3406 
Q 941 3494 1303 3539 
Q 1666 3584 2028 3584 
Q 2975 3584 3395 3211 
Q 3816 2838 3816 1997 
z
" transform="scale(0.015625)"/>
      <path id="DejaVuSans-Bold-67" d="M 2919 594 
Q 2688 288 2409 144 
Q 2131 0 1766 0 
Q 1125 0 706 504 
Q 288 1009 288 1791 
Q 288 2575 706 3076 
Q 1125 3578 1766 3578 
Q 2131 3578 2409 3434 
Q 2688 3291 2919 2981 
L 2919 3500 
L 4044 3500 
L 4044 353 
Q 4044 -491 3511 -936 
Q 2978 -1381 1966 -1381 
Q 1638 -1381 1331 -1331 
Q 1025 -1281 716 -1178 
L 716 -306 
Q 1009 -475 1290 -558 
Q 1572 -641 1856 -641 
Q 2406 -641 2662 -400 
Q 2919 -159 2919 353 
L 2919 594 
z
M 2181 2772 
Q 1834 2772 1640 2515 
Q 1447 2259 1447 1791 
Q 1447 1309 1634 1061 
Q 1822 813 2181 813 
Q 2531 813 2725 1069 
Q 2919 1325 2919 1791 
Q 2919 2259 2725 2515 
Q 2531 2772 2181 2772 
z
" transform="scale(0.015625)"/>
      <path id="DejaVuSans-Bold-72" d="M 3138 2547 
Q 2991 2616 2845 2648 
Q 2700 2681 2553 2681 
Q 2122 2681 1889 2404 
Q 1656 2128 1656 1613 
L 1656 0 
L 538 0 
L 538 3500 
L 1656 3500 
L 1656 2925 
Q 1872 3269 2151 3426 
Q 2431 3584 2822 3584 
Q 2878 3584 2943 3579 
Q 3009 3575 3134 3559 
L 3138 2547 
z
" transform="scale(0.015625)"/>
      <path id="DejaVuSans-Bold-6e" d="M 4056 2131 
L 4056 0 
L 2931 0 
L 2931 347 
L 2931 1631 
Q 2931 2084 2911 2256 
Q 2891 2428 2841 2509 
Q 2775 2619 2662 2680 
Q 2550 2741 2406 2741 
Q 2056 2741 1856 2470 
Q 1656 2200 1656 1722 
L 1656 0 
L 538 0 
L 538 3500 
L 1656 3500 
L 1656 2988 
Q 1909 3294 2193 3439 
Q 2478 3584 2822 3584 
Q 3428 3584 3742 3212 
Q 4056 2841 4056 2131 
z
" transform="scale(0.015625)"/>
      <path id="DejaVuSans-Bold-69" d="M 538 3500 
L 1656 3500 
L 1656 0 
L 538 0 
L 538 3500 
z
M 538 4863 
L 1656 4863 
L 1656 3950 
L 538 3950 
L 538 4863 
z
" transform="scale(0.015625)"/>
      <path id="DejaVuSans-Bold-20" transform="scale(0.015625)"/>
      <path id="DejaVuSans-Bold-46" d="M 588 4666 
L 3834 4666 
L 3834 3756 
L 1791 3756 
L 1791 2888 
L 3713 2888 
L 3713 1978 
L 1791 1978 
L 1791 0 
L 588 0 
L 588 4666 
z
" transform="scale(0.015625)"/>
      <path id="DejaVuSans-Bold-6f" d="M 2203 2784 
Q 1831 2784 1636 2517 
Q 1441 2250 1441 1747 
Q 1441 1244 1636 976 
Q 1831 709 2203 709 
Q 2569 709 2762 976 
Q 2956 1244 2956 1747 
Q 2956 2250 2762 2517 
Q 2569 2784 2203 2784 
z
M 2203 3584 
Q 3106 3584 3614 3096 
Q 4122 2609 4122 1747 
Q 4122 884 3614 396 
Q 3106 -91 2203 -91 
Q 1297 -91 786 396 
Q 275 884 275 1747 
Q 275 2609 786 3096 
Q 1297 3584 2203 3584 
z
" transform="scale(0.015625)"/>
      <path id="DejaVuSans-Bold-6d" d="M 3781 2919 
Q 3994 3244 4286 3414 
Q 4578 3584 4928 3584 
Q 5531 3584 5847 3212 
Q 6163 2841 6163 2131 
L 6163 0 
L 5038 0 
L 5038 1825 
Q 5041 1866 5042 1909 
Q 5044 1953 5044 2034 
Q 5044 2406 4934 2573 
Q 4825 2741 4581 2741 
Q 4263 2741 4089 2478 
Q 3916 2216 3909 1719 
L 3909 0 
L 2784 0 
L 2784 1825 
Q 2784 2406 2684 2573 
Q 2584 2741 2328 2741 
Q 2006 2741 1831 2477 
Q 1656 2213 1656 1722 
L 1656 0 
L 531 0 
L 531 3500 
L 1656 3500 
L 1656 2988 
Q 1863 3284 2130 3434 
Q 2397 3584 2719 3584 
Q 3081 3584 3359 3409 
Q 3638 3234 3781 2919 
z
" transform="scale(0.015625)"/>
      <path id="DejaVuSans-Bold-75" d="M 500 1363 
L 500 3500 
L 1625 3500 
L 1625 3150 
Q 1625 2866 1622 2436 
Q 1619 2006 1619 1863 
Q 1619 1441 1641 1255 
Q 1663 1069 1716 984 
Q 1784 875 1895 815 
Q 2006 756 2150 756 
Q 2500 756 2700 1025 
Q 2900 1294 2900 1772 
L 2900 3500 
L 4019 3500 
L 4019 0 
L 2900 0 
L 2900 506 
Q 2647 200 2364 54 
Q 2081 -91 1741 -91 
Q 1134 -91 817 281 
Q 500 653 500 1363 
z
" transform="scale(0.015625)"/>
      <path id="DejaVuSans-Bold-6c" d="M 538 4863 
L 1656 4863 
L 1656 0 
L 538 0 
L 538 4863 
z
" transform="scale(0.015625)"/>
      <path id="DejaVuSans-Bold-7d" d="M 800 -341 
L 1019 -341 
Q 1456 -341 1589 -205 
Q 1722 -69 1722 378 
L 1722 897 
Q 1722 1384 1862 1606 
Q 2003 1828 2350 1913 
Q 2003 1991 1862 2212 
Q 1722 2434 1722 2925 
L 1722 3444 
Q 1722 3888 1589 4023 
Q 1456 4159 1019 4159 
L 800 4159 
L 800 4863 
L 1478 4863 
Q 2159 4863 2471 4589 
Q 2784 4316 2784 3713 
L 2784 3072 
Q 2784 2603 2953 2422 
Q 3122 2241 3566 2241 
L 3756 2241 
L 3756 1544 
L 3566 1544 
Q 3122 1544 2953 1361 
Q 2784 1178 2784 709 
L 2784 109 
Q 2784 -494 2471 -769 
Q 2159 -1044 1478 -1044 
L 800 -1044 
L 800 -341 
z
" transform="scale(0.015625)"/>
     </defs>
     <use xlink:href="#DejaVuSans-Bold-5c"/>
     <use xlink:href="#DejaVuSans-Bold-74" transform="translate(36.523438 0)"/>
     <use xlink:href="#DejaVuSans-Bold-65" transform="translate(84.326172 0)"/>
     <use xlink:href="#DejaVuSans-Bold-78" transform="translate(152.148438 0)"/>
     <use xlink:href="#DejaVuSans-Bold-74" transform="translate(216.650391 0)"/>
     <use xlink:href="#DejaVuSans-Bold-62" transform="translate(264.453125 0)"/>
     <use xlink:href="#DejaVuSans-Bold-66" transform="translate(336.035156 0)"/>
     <use xlink:href="#DejaVuSans-Bold-7b" transform="translate(379.541016 0)"/>
     <use xlink:href="#DejaVuSans-Bold-4c" transform="translate(450.732422 0)"/>
     <use xlink:href="#DejaVuSans-Bold-61" transform="translate(514.453125 0)"/>
     <use xlink:href="#DejaVuSans-Bold-67" transform="translate(581.933594 0)"/>
     <use xlink:href="#DejaVuSans-Bold-72" transform="translate(653.515625 0)"/>
     <use xlink:href="#DejaVuSans-Bold-61" transform="translate(702.832031 0)"/>
     <use xlink:href="#DejaVuSans-Bold-6e" transform="translate(770.3125 0)"/>
     <use xlink:href="#DejaVuSans-Bold-67" transform="translate(841.503906 0)"/>
     <use xlink:href="#DejaVuSans-Bold-69" transform="translate(913.085938 0)"/>
     <use xlink:href="#DejaVuSans-Bold-61" transform="translate(947.363281 0)"/>
     <use xlink:href="#DejaVuSans-Bold-6e" transform="translate(1014.84375 0)"/>
     <use xlink:href="#DejaVuSans-Bold-20" transform="translate(1086.035156 0)"/>
     <use xlink:href="#DejaVuSans-Bold-46" transform="translate(1120.849609 0)"/>
     <use xlink:href="#DejaVuSans-Bold-6f" transform="translate(1185.160156 0)"/>
     <use xlink:href="#DejaVuSans-Bold-72" transform="translate(1253.861328 0)"/>
     <use xlink:href="#DejaVuSans-Bold-6d" transform="translate(1303.177734 0)"/>
     <use xlink:href="#DejaVuSans-Bold-75" transform="translate(1407.376953 0)"/>
     <use xlink:href="#DejaVuSans-Bold-6c" transform="translate(1478.568359 0)"/>
     <use xlink:href="#DejaVuSans-Bold-61" transform="translate(1512.845703 0)"/>
     <use xlink:href="#DejaVuSans-Bold-74" transform="translate(1580.326172 0)"/>
     <use xlink:href="#DejaVuSans-Bold-69" transform="translate(1628.128906 0)"/>
     <use xlink:href="#DejaVuSans-Bold-6f" transform="translate(1662.40625 0)"/>
     <use xlink:href="#DejaVuSans-Bold-6e" transform="translate(1731.107422 0)"/>
     <use xlink:href="#DejaVuSans-Bold-7d" transform="translate(1802.298828 0)"/>
    </g>
   </g>
   <g id="text_2">
    <!-- $L = \frac{\chi}{2}\dot{h}^2 - \frac{\mu^2}{2}h^2$ -->
    <g transform="translate(173.47 164.8487) scale(0.13 -0.13)">
     <defs>
      <path id="DejaVuSans-Oblique-4c" d="M 1075 4666 
L 1709 4666 
L 909 525 
L 3181 525 
L 3078 0 
L 172 0 
L 1075 4666 
z
" transform="scale(0.015625)"/>
      <path id="DejaVuSans-3d" d="M 678 2906 
L 4684 2906 
L 4684 2381 
L 678 2381 
L 678 2906 
z
M 678 1631 
L 4684 1631 
L 4684 1100 
L 678 1100 
L 678 1631 
z
" transform="scale(0.015625)"/>
      <path id="DejaVuSans-Oblique-3c7" d="M 1922 -781 
L 1691 416 
L 394 -1334 
L -284 -1334 
L 1553 1141 
L 1269 2613 
Q 1194 3006 713 3006 
L 559 3006 
L 653 3500 
L 872 3494 
Q 1675 3472 1775 2950 
L 2006 1753 
L 3303 3503 
L 3981 3503 
L 2144 1028 
L 2428 -444 
Q 2503 -838 2984 -838 
L 3138 -838 
L 3044 -1331 
L 2825 -1325 
Q 2022 -1303 1922 -781 
z
" transform="scale(0.015625)"/>
      <path id="DejaVuSans-32" d="M 1228 531 
L 3431 531 
L 3431 0 
L 469 0 
L 469 531 
Q 828 903 1448 1529 
Q 2069 2156 2228 2338 
Q 2531 2678 2651 2914 
Q 2772 3150 2772 3378 
Q 2772 3750 2511 3984 
Q 2250 4219 1831 4219 
Q 1534 4219 1204 4116 
Q 875 4013 500 3803 
L 500 4441 
Q 881 4594 1212 4672 
Q 1544 4750 1819 4750 
Q 2544 4750 2975 4387 
Q 3406 4025 3406 3419 
Q 3406 3131 3298 2873 
Q 3191 2616 2906 2266 
Q 2828 2175 2409 1742 
Q 1991 1309 1228 531 
z
" transform="scale(0.015625)"/>
      <path id="DejaVuSans-307" d="M -1894 4863 
L -1319 4863 
L -1319 4134 
L -1894 4134 
L -1894 4863 
z
M -1600 3584 
L -1600 3584 
z
" transform="scale(0.015625)"/>
      <path id="DejaVuSans-Oblique-68" d="M 3566 2113 
L 3156 0 
L 2578 0 
L 2988 2091 
Q 3016 2238 3031 2350 
Q 3047 2463 3047 2528 
Q 3047 2791 2881 2937 
Q 2716 3084 2419 3084 
Q 1956 3084 1617 2771 
Q 1278 2459 1178 1941 
L 800 0 
L 225 0 
L 1172 4863 
L 1747 4863 
L 1375 2950 
Q 1594 3244 1934 3414 
Q 2275 3584 2650 3584 
Q 3113 3584 3367 3334 
Q 3622 3084 3622 2631 
Q 3622 2519 3608 2391 
Q 3594 2263 3566 2113 
z
" transform="scale(0.015625)"/>
      <path id="DejaVuSans-2212" d="M 678 2272 
L 4684 2272 
L 4684 1741 
L 678 1741 
L 678 2272 
z
" transform="scale(0.015625)"/>
      <path id="DejaVuSans-Oblique-3bc" d="M -84 -1331 
L 856 3500 
L 1434 3500 
L 1009 1322 
Q 997 1256 987 1175 
Q 978 1094 978 1013 
Q 978 722 1161 565 
Q 1344 409 1684 409 
Q 2147 409 2431 671 
Q 2716 934 2816 1459 
L 3213 3500 
L 3788 3500 
L 3266 809 
Q 3253 750 3248 706 
Q 3244 663 3244 628 
Q 3244 531 3283 486 
Q 3322 441 3406 441 
Q 3438 441 3492 456 
Q 3547 472 3647 513 
L 3559 50 
Q 3422 -19 3297 -55 
Q 3172 -91 3053 -91 
Q 2847 -91 2730 40 
Q 2613 172 2613 403 
Q 2438 153 2195 31 
Q 1953 -91 1625 -91 
Q 1334 -91 1117 43 
Q 900 178 831 397 
L 494 -1331 
L -84 -1331 
z
" transform="scale(0.015625)"/>
     </defs>
     <use xlink:href="#DejaVuSans-Oblique-4c" transform="translate(0 0.48125)"/>
     <use xlink:href="#DejaVuSans-3d" transform="translate(75.195312 0.48125)"/>
     <use xlink:href="#DejaVuSans-Oblique-3c7" transform="translate(180.466797 58.86875) scale(0.7)"/>
     <use xlink:href="#DejaVuSans-32" transform="translate(178.466797 -38.925) scale(0.7)"/>
     <use xlink:href="#DejaVuSans-307" transform="translate(299.941406 32.965625)"/>
     <use xlink:href="#DejaVuSans-Oblique-68" transform="translate(235.50293 0.48125)"/>
     <use xlink:href="#DejaVuSans-32" transform="translate(299.838867 38.7625) scale(0.7)"/>
     <use xlink:href="#DejaVuSans-2212" transform="translate(366.591797 0.48125)"/>
     <use xlink:href="#DejaVuSans-Oblique-3bc" transform="translate(469.863281 58.835938) scale(0.7)"/>
     <use xlink:href="#DejaVuSans-32" transform="translate(517.525716 85.632812) scale(0.49)"/>
     <use xlink:href="#DejaVuSans-32" transform="translate(487.863281 -38.925) scale(0.7)"/>
     <use xlink:href="#DejaVuSans-Oblique-68" transform="translate(563.115072 0.48125)"/>
     <use xlink:href="#DejaVuSans-32" transform="translate(633.941686 38.7625) scale(0.7)"/>
     <path d="M 178.466797 19.278125 
L 178.466797 25.528125 
L 223.00293 25.528125 
L 223.00293 19.278125 
L 178.466797 19.278125 
z
"/>
     <path d="M 469.863281 19.278125 
L 469.863281 25.528125 
L 550.615072 25.528125 
L 550.615072 19.278125 
L 469.863281 19.278125 
z
"/>
    </g>
   </g>
   <g id="text_3">
    <!-- Action: $S = \int L \, dt$ -->
    <g transform="translate(172.975 196.2215) scale(0.11 -0.11)">
     <defs>
      <path id="DejaVuSans-41" d="M 2188 4044 
L 1331 1722 
L 3047 1722 
L 2188 4044 
z
M 1831 4666 
L 2547 4666 
L 4325 0 
L 3669 0 
L 3244 1197 
L 1141 1197 
L 716 0 
L 50 0 
L 1831 4666 
z
" transform="scale(0.015625)"/>
      <path id="DejaVuSans-63" d="M 3122 3366 
L 3122 2828 
Q 2878 2963 2633 3030 
Q 2388 3097 2138 3097 
Q 1578 3097 1268 2742 
Q 959 2388 959 1747 
Q 959 1106 1268 751 
Q 1578 397 2138 397 
Q 2388 397 2633 464 
Q 2878 531 3122 666 
L 3122 134 
Q 2881 22 2623 -34 
Q 2366 -91 2075 -91 
Q 1284 -91 818 406 
Q 353 903 353 1747 
Q 353 2603 823 3093 
Q 1294 3584 2113 3584 
Q 2378 3584 2631 3529 
Q 2884 3475 3122 3366 
z
" transform="scale(0.015625)"/>
      <path id="DejaVuSans-74" d="M 1172 4494 
L 1172 3500 
L 2356 3500 
L 2356 3053 
L 1172 3053 
L 1172 1153 
Q 1172 725 1289 603 
Q 1406 481 1766 481 
L 2356 481 
L 2356 0 
L 1766 0 
Q 1100 0 847 248 
Q 594 497 594 1153 
L 594 3053 
L 172 3053 
L 172 3500 
L 594 3500 
L 594 4494 
L 1172 4494 
z
" transform="scale(0.015625)"/>
      <path id="DejaVuSans-69" d="M 603 3500 
L 1178 3500 
L 1178 0 
L 603 0 
L 603 3500 
z
M 603 4863 
L 1178 4863 
L 1178 4134 
L 603 4134 
L 603 4863 
z
" transform="scale(0.015625)"/>
      <path id="DejaVuSans-6f" d="M 1959 3097 
Q 1497 3097 1228 2736 
Q 959 2375 959 1747 
Q 959 1119 1226 758 
Q 1494 397 1959 397 
Q 2419 397 2687 759 
Q 2956 1122 2956 1747 
Q 2956 2369 2687 2733 
Q 2419 3097 1959 3097 
z
M 1959 3584 
Q 2709 3584 3137 3096 
Q 3566 2609 3566 1747 
Q 3566 888 3137 398 
Q 2709 -91 1959 -91 
Q 1206 -91 779 398 
Q 353 888 353 1747 
Q 353 2609 779 3096 
Q 1206 3584 1959 3584 
z
" transform="scale(0.015625)"/>
      <path id="DejaVuSans-6e" d="M 3513 2113 
L 3513 0 
L 2938 0 
L 2938 2094 
Q 2938 2591 2744 2837 
Q 2550 3084 2163 3084 
Q 1697 3084 1428 2787 
Q 1159 2491 1159 1978 
L 1159 0 
L 581 0 
L 581 3500 
L 1159 3500 
L 1159 2956 
Q 1366 3272 1645 3428 
Q 1925 3584 2291 3584 
Q 2894 3584 3203 3211 
Q 3513 2838 3513 2113 
z
" transform="scale(0.015625)"/>
      <path id="DejaVuSans-3a" d="M 750 794 
L 1409 794 
L 1409 0 
L 750 0 
L 750 794 
z
M 750 3309 
L 1409 3309 
L 1409 2516 
L 750 2516 
L 750 3309 
z
" transform="scale(0.015625)"/>
      <path id="DejaVuSans-20" transform="scale(0.015625)"/>
      <path id="DejaVuSans-Oblique-53" d="M 3859 4513 
L 3738 3897 
Q 3422 4066 3111 4152 
Q 2800 4238 2509 4238 
Q 1944 4238 1609 3991 
Q 1275 3744 1275 3334 
Q 1275 3109 1398 2989 
Q 1522 2869 2034 2731 
L 2413 2638 
Q 3053 2472 3303 2217 
Q 3553 1963 3553 1503 
Q 3553 797 2998 353 
Q 2444 -91 1538 -91 
Q 1166 -91 791 -17 
Q 416 56 38 206 
L 166 856 
Q 513 641 861 531 
Q 1209 422 1556 422 
Q 2147 422 2503 684 
Q 2859 947 2859 1369 
Q 2859 1650 2717 1795 
Q 2575 1941 2106 2059 
L 1728 2156 
Q 1081 2325 845 2545 
Q 609 2766 609 3163 
Q 609 3859 1145 4304 
Q 1681 4750 2541 4750 
Q 2875 4750 3203 4690 
Q 3531 4631 3859 4513 
z
" transform="scale(0.015625)"/>
      <path id="DejaVuSansDisplay-222b" d="M 2134 5525 
Q 2172 6263 2528 6556 
Q 2884 6850 3218 6850 
Q 3553 6850 3833 6575 
Q 4113 6300 4200 5678 
L 3544 5613 
Q 3469 6188 3219 6188 
Q 2906 6188 2869 5413 
L 2581 -597 
Q 2547 -1334 2187 -1628 
Q 1828 -1922 1497 -1922 
Q 1163 -1922 883 -1647 
Q 603 -1372 516 -750 
L 1172 -684 
Q 1247 -1259 1497 -1259 
Q 1809 -1259 1847 -488 
L 2134 5525 
z
" transform="scale(0.015625)"/>
      <path id="DejaVuSans-Oblique-64" d="M 2675 525 
Q 2444 222 2128 65 
Q 1813 -91 1428 -91 
Q 903 -91 598 267 
Q 294 625 294 1247 
Q 294 1766 478 2236 
Q 663 2706 1013 3078 
Q 1244 3325 1534 3454 
Q 1825 3584 2144 3584 
Q 2481 3584 2739 3421 
Q 2997 3259 3138 2956 
L 3513 4863 
L 4091 4863 
L 3144 0 
L 2566 0 
L 2675 525 
z
M 891 1350 
Q 891 897 1095 644 
Q 1300 391 1663 391 
Q 1931 391 2161 520 
Q 2391 650 2566 903 
Q 2750 1166 2856 1509 
Q 2963 1853 2963 2188 
Q 2963 2622 2758 2865 
Q 2553 3109 2194 3109 
Q 1922 3109 1687 2981 
Q 1453 2853 1288 2613 
Q 1106 2353 998 2009 
Q 891 1666 891 1350 
z
" transform="scale(0.015625)"/>
      <path id="DejaVuSans-Oblique-74" d="M 2706 3500 
L 2619 3053 
L 1472 3053 
L 1100 1153 
Q 1081 1047 1072 975 
Q 1063 903 1063 863 
Q 1063 663 1183 572 
Q 1303 481 1569 481 
L 2150 481 
L 2053 0 
L 1503 0 
Q 991 0 739 200 
Q 488 400 488 806 
Q 488 878 497 964 
Q 506 1050 525 1153 
L 897 3053 
L 409 3053 
L 500 3500 
L 978 3500 
L 1172 4494 
L 1747 4494 
L 1556 3500 
L 2706 3500 
z
" transform="scale(0.015625)"/>
     </defs>
     <use xlink:href="#DejaVuSans-41" transform="translate(0 0.96875)"/>
     <use xlink:href="#DejaVuSans-63" transform="translate(68.408203 0.96875)"/>
     <use xlink:href="#DejaVuSans-74" transform="translate(123.388672 0.96875)"/>
     <use xlink:href="#DejaVuSans-69" transform="translate(162.597656 0.96875)"/>
     <use xlink:href="#DejaVuSans-6f" transform="translate(190.380859 0.96875)"/>
     <use xlink:href="#DejaVuSans-6e" transform="translate(251.5625 0.96875)"/>
     <use xlink:href="#DejaVuSans-3a" transform="translate(314.941406 0.96875)"/>
     <use xlink:href="#DejaVuSans-20" transform="translate(348.632812 0.96875)"/>
     <use xlink:href="#DejaVuSans-Oblique-53" transform="translate(380.419922 0.96875)"/>
     <use xlink:href="#DejaVuSans-3d" transform="translate(463.378906 0.96875)"/>
     <use xlink:href="#DejaVuSansDisplay-222b" transform="translate(566.650391 0.96875)"/>
     <use xlink:href="#DejaVuSans-Oblique-4c" transform="translate(640.283203 0.96875)"/>
     <use xlink:href="#DejaVuSans-Oblique-64" transform="translate(712.23177 0.96875)"/>
     <use xlink:href="#DejaVuSans-Oblique-74" transform="translate(775.708333 0.96875)"/>
    </g>
   </g>
   <g id="text_4">
    <!-- Principle: $\delta S = 0$ -->
    <g transform="translate(173.525 227.5943) scale(0.11 -0.11)">
     <defs>
      <path id="DejaVuSans-50" d="M 1259 4147 
L 1259 2394 
L 2053 2394 
Q 2494 2394 2734 2622 
Q 2975 2850 2975 3272 
Q 2975 3691 2734 3919 
Q 2494 4147 2053 4147 
L 1259 4147 
z
M 628 4666 
L 2053 4666 
Q 2838 4666 3239 4311 
Q 3641 3956 3641 3272 
Q 3641 2581 3239 2228 
Q 2838 1875 2053 1875 
L 1259 1875 
L 1259 0 
L 628 0 
L 628 4666 
z
" transform="scale(0.015625)"/>
      <path id="DejaVuSans-72" d="M 2631 2963 
Q 2534 3019 2420 3045 
Q 2306 3072 2169 3072 
Q 1681 3072 1420 2755 
Q 1159 2438 1159 1844 
L 1159 0 
L 581 0 
L 581 3500 
L 1159 3500 
L 1159 2956 
Q 1341 3275 1631 3429 
Q 1922 3584 2338 3584 
Q 2397 3584 2469 3576 
Q 2541 3569 2628 3553 
L 2631 2963 
z
" transform="scale(0.015625)"/>
      <path id="DejaVuSans-70" d="M 1159 525 
L 1159 -1331 
L 581 -1331 
L 581 3500 
L 1159 3500 
L 1159 2969 
Q 1341 3281 1617 3432 
Q 1894 3584 2278 3584 
Q 2916 3584 3314 3078 
Q 3713 2572 3713 1747 
Q 3713 922 3314 415 
Q 2916 -91 2278 -91 
Q 1894 -91 1617 61 
Q 1341 213 1159 525 
z
M 3116 1747 
Q 3116 2381 2855 2742 
Q 2594 3103 2138 3103 
Q 1681 3103 1420 2742 
Q 1159 2381 1159 1747 
Q 1159 1113 1420 752 
Q 1681 391 2138 391 
Q 2594 391 2855 752 
Q 3116 1113 3116 1747 
z
" transform="scale(0.015625)"/>
      <path id="DejaVuSans-6c" d="M 603 4863 
L 1178 4863 
L 1178 0 
L 603 0 
L 603 4863 
z
" transform="scale(0.015625)"/>
      <path id="DejaVuSans-65" d="M 3597 1894 
L 3597 1613 
L 953 1613 
Q 991 1019 1311 708 
Q 1631 397 2203 397 
Q 2534 397 2845 478 
Q 3156 559 3463 722 
L 3463 178 
Q 3153 47 2828 -22 
Q 2503 -91 2169 -91 
Q 1331 -91 842 396 
Q 353 884 353 1716 
Q 353 2575 817 3079 
Q 1281 3584 2069 3584 
Q 2775 3584 3186 3129 
Q 3597 2675 3597 1894 
z
M 3022 2063 
Q 3016 2534 2758 2815 
Q 2500 3097 2075 3097 
Q 1594 3097 1305 2825 
Q 1016 2553 972 2059 
L 3022 2063 
z
" transform="scale(0.015625)"/>
      <path id="DejaVuSans-Oblique-3b4" d="M 3472 4053 
Q 3197 4272 2450 4272 
Q 1659 4272 1588 3906 
Q 1531 3619 2328 3469 
Q 2953 3353 3253 3003 
Q 3616 2581 3447 1716 
Q 3284 888 2763 400 
Q 2238 -91 1488 -91 
Q 741 -91 406 400 
Q 72 888 241 1747 
Q 363 2384 891 2900 
Q 1097 3100 1353 3213 
Q 913 3459 1000 3900 
Q 1166 4750 2544 4750 
Q 3234 4750 3566 4531 
L 3472 4053 
z
M 1753 3056 
Q 1525 2966 1306 2738 
Q 969 2384 847 1747 
Q 722 1113 919 756 
Q 1119 397 1584 397 
Q 2044 397 2381 759 
Q 2722 1122 2838 1716 
Q 2956 2338 2731 2638 
Q 2491 2959 2103 2994 
Q 1906 3013 1753 3056 
z
" transform="scale(0.015625)"/>
      <path id="DejaVuSans-30" d="M 2034 4250 
Q 1547 4250 1301 3770 
Q 1056 3291 1056 2328 
Q 1056 1369 1301 889 
Q 1547 409 2034 409 
Q 2525 409 2770 889 
Q 3016 1369 3016 2328 
Q 3016 3291 2770 3770 
Q 2525 4250 2034 4250 
z
M 2034 4750 
Q 2819 4750 3233 4129 
Q 3647 3509 3647 2328 
Q 3647 1150 3233 529 
Q 2819 -91 2034 -91 
Q 1250 -91 836 529 
Q 422 1150 422 2328 
Q 422 3509 836 4129 
Q 1250 4750 2034 4750 
z
" transform="scale(0.015625)"/>
     </defs>
     <use xlink:href="#DejaVuSans-50" transform="translate(0 0.015625)"/>
     <use xlink:href="#DejaVuSans-72" transform="translate(60.302734 0.015625)"/>
     <use xlink:href="#DejaVuSans-69" transform="translate(101.416016 0.015625)"/>
     <use xlink:href="#DejaVuSans-6e" transform="translate(129.199219 0.015625)"/>
     <use xlink:href="#DejaVuSans-63" transform="translate(192.578125 0.015625)"/>
     <use xlink:href="#DejaVuSans-69" transform="translate(247.558594 0.015625)"/>
     <use xlink:href="#DejaVuSans-70" transform="translate(275.341797 0.015625)"/>
     <use xlink:href="#DejaVuSans-6c" transform="translate(338.818359 0.015625)"/>
     <use xlink:href="#DejaVuSans-65" transform="translate(366.601562 0.015625)"/>
     <use xlink:href="#DejaVuSans-3a" transform="translate(428.125 0.015625)"/>
     <use xlink:href="#DejaVuSans-20" transform="translate(461.816406 0.015625)"/>
     <use xlink:href="#DejaVuSans-Oblique-3b4" transform="translate(493.603516 0.015625)"/>
     <use xlink:href="#DejaVuSans-Oblique-53" transform="translate(554.785156 0.015625)"/>
     <use xlink:href="#DejaVuSans-3d" transform="translate(637.744141 0.015625)"/>
     <use xlink:href="#DejaVuSans-30" transform="translate(741.015625 0.015625)"/>
    </g>
   </g>
   <g id="text_5">
    <!-- (Minimal Inconsistency) -->
    <g transform="translate(158.591406 253.7383) scale(0.1 -0.1)">
     <defs>
      <path id="DejaVuSans-Oblique-28" d="M 2731 4856 
Q 1903 3822 1495 2892 
Q 1088 1963 1088 1100 
Q 1088 606 1206 120 
Q 1325 -366 1563 -844 
L 1063 -844 
Q 775 -306 634 201 
Q 494 709 494 1197 
Q 494 2125 923 3036 
Q 1353 3947 2222 4856 
L 2731 4856 
z
" transform="scale(0.015625)"/>
      <path id="DejaVuSans-Oblique-4d" d="M 1081 4666 
L 2028 4666 
L 2572 1522 
L 4378 4666 
L 5350 4666 
L 4441 0 
L 3828 0 
L 4622 4091 
L 2791 897 
L 2175 897 
L 1581 4103 
L 788 0 
L 172 0 
L 1081 4666 
z
" transform="scale(0.015625)"/>
      <path id="DejaVuSans-Oblique-69" d="M 1172 4863 
L 1747 4863 
L 1606 4134 
L 1031 4134 
L 1172 4863 
z
M 909 3500 
L 1484 3500 
L 800 0 
L 225 0 
L 909 3500 
z
" transform="scale(0.015625)"/>
      <path id="DejaVuSans-Oblique-6e" d="M 3566 2113 
L 3156 0 
L 2578 0 
L 2988 2091 
Q 3016 2238 3031 2350 
Q 3047 2463 3047 2528 
Q 3047 2791 2881 2937 
Q 2716 3084 2419 3084 
Q 1956 3084 1622 2776 
Q 1288 2469 1184 1941 
L 800 0 
L 225 0 
L 903 3500 
L 1478 3500 
L 1363 2950 
Q 1603 3253 1940 3418 
Q 2278 3584 2650 3584 
Q 3113 3584 3367 3334 
Q 3622 3084 3622 2631 
Q 3622 2519 3608 2391 
Q 3594 2263 3566 2113 
z
" transform="scale(0.015625)"/>
      <path id="DejaVuSans-Oblique-6d" d="M 5747 2113 
L 5338 0 
L 4763 0 
L 5166 2094 
Q 5191 2228 5203 2325 
Q 5216 2422 5216 2491 
Q 5216 2772 5059 2928 
Q 4903 3084 4622 3084 
Q 4203 3084 3875 2770 
Q 3547 2456 3450 1953 
L 3066 0 
L 2491 0 
L 2900 2094 
Q 2925 2209 2937 2307 
Q 2950 2406 2950 2484 
Q 2950 2769 2794 2926 
Q 2638 3084 2363 3084 
Q 1938 3084 1609 2770 
Q 1281 2456 1184 1953 
L 800 0 
L 225 0 
L 909 3500 
L 1484 3500 
L 1375 2956 
Q 1609 3263 1923 3423 
Q 2238 3584 2597 3584 
Q 2978 3584 3223 3384 
Q 3469 3184 3519 2828 
Q 3781 3197 4126 3390 
Q 4472 3584 4856 3584 
Q 5306 3584 5551 3325 
Q 5797 3066 5797 2591 
Q 5797 2488 5784 2364 
Q 5772 2241 5747 2113 
z
" transform="scale(0.015625)"/>
      <path id="DejaVuSans-Oblique-61" d="M 3438 1997 
L 3047 0 
L 2472 0 
L 2578 531 
Q 2325 219 2001 64 
Q 1678 -91 1281 -91 
Q 834 -91 548 182 
Q 263 456 263 884 
Q 263 1497 752 1853 
Q 1241 2209 2100 2209 
L 2900 2209 
L 2931 2363 
Q 2938 2388 2941 2417 
Q 2944 2447 2944 2509 
Q 2944 2788 2717 2942 
Q 2491 3097 2081 3097 
Q 1800 3097 1504 3025 
Q 1209 2953 897 2809 
L 997 3341 
Q 1322 3463 1633 3523 
Q 1944 3584 2234 3584 
Q 2853 3584 3176 3315 
Q 3500 3047 3500 2534 
Q 3500 2431 3484 2292 
Q 3469 2153 3438 1997 
z
M 2816 1759 
L 2241 1759 
Q 1534 1759 1195 1570 
Q 856 1381 856 984 
Q 856 709 1029 553 
Q 1203 397 1509 397 
Q 1978 397 2328 733 
Q 2678 1069 2791 1631 
L 2816 1759 
z
" transform="scale(0.015625)"/>
      <path id="DejaVuSans-Oblique-6c" d="M 1172 4863 
L 1747 4863 
L 800 0 
L 225 0 
L 1172 4863 
z
" transform="scale(0.015625)"/>
      <path id="DejaVuSans-Oblique-20" transform="scale(0.015625)"/>
      <path id="DejaVuSans-Oblique-49" d="M 1081 4666 
L 1716 4666 
L 806 0 
L 172 0 
L 1081 4666 
z
" transform="scale(0.015625)"/>
      <path id="DejaVuSans-Oblique-63" d="M 3431 3366 
L 3316 2797 
Q 3109 2947 2876 3022 
Q 2644 3097 2394 3097 
Q 2119 3097 1870 3000 
Q 1622 2903 1453 2725 
Q 1184 2453 1037 2087 
Q 891 1722 891 1331 
Q 891 859 1127 628 
Q 1363 397 1844 397 
Q 2081 397 2348 469 
Q 2616 541 2906 684 
L 2797 116 
Q 2547 13 2283 -39 
Q 2019 -91 1741 -91 
Q 1044 -91 669 257 
Q 294 606 294 1253 
Q 294 1797 489 2255 
Q 684 2713 1069 3078 
Q 1331 3328 1684 3456 
Q 2038 3584 2456 3584 
Q 2700 3584 2940 3529 
Q 3181 3475 3431 3366 
z
" transform="scale(0.015625)"/>
      <path id="DejaVuSans-Oblique-6f" d="M 1625 -91 
Q 1009 -91 651 289 
Q 294 669 294 1325 
Q 294 1706 417 2101 
Q 541 2497 738 2766 
Q 1047 3184 1428 3384 
Q 1809 3584 2291 3584 
Q 2888 3584 3255 3212 
Q 3622 2841 3622 2241 
Q 3622 1825 3500 1412 
Q 3378 1000 3181 728 
Q 2875 309 2494 109 
Q 2113 -91 1625 -91 
z
M 891 1344 
Q 891 869 1089 633 
Q 1288 397 1691 397 
Q 2269 397 2648 901 
Q 3028 1406 3028 2181 
Q 3028 2634 2825 2865 
Q 2622 3097 2228 3097 
Q 1903 3097 1650 2945 
Q 1397 2794 1197 2484 
Q 1050 2253 970 1956 
Q 891 1659 891 1344 
z
" transform="scale(0.015625)"/>
      <path id="DejaVuSans-Oblique-73" d="M 3200 3397 
L 3091 2853 
Q 2863 2978 2609 3040 
Q 2356 3103 2088 3103 
Q 1634 3103 1373 2948 
Q 1113 2794 1113 2528 
Q 1113 2219 1719 2053 
Q 1766 2041 1788 2034 
L 1972 1978 
Q 2547 1819 2739 1644 
Q 2931 1469 2931 1166 
Q 2931 609 2489 259 
Q 2047 -91 1331 -91 
Q 1053 -91 747 -37 
Q 441 16 72 128 
L 184 722 
Q 500 559 806 475 
Q 1113 391 1394 391 
Q 1816 391 2080 572 
Q 2344 753 2344 1031 
Q 2344 1331 1650 1516 
L 1591 1531 
L 1394 1581 
Q 956 1697 753 1886 
Q 550 2075 550 2369 
Q 550 2928 970 3256 
Q 1391 3584 2113 3584 
Q 2397 3584 2667 3537 
Q 2938 3491 3200 3397 
z
" transform="scale(0.015625)"/>
      <path id="DejaVuSans-Oblique-65" d="M 3078 2063 
Q 3088 2113 3092 2166 
Q 3097 2219 3097 2272 
Q 3097 2653 2873 2875 
Q 2650 3097 2266 3097 
Q 1838 3097 1509 2826 
Q 1181 2556 1013 2059 
L 3078 2063 
z
M 3578 1613 
L 903 1613 
Q 884 1494 878 1425 
Q 872 1356 872 1306 
Q 872 872 1139 634 
Q 1406 397 1894 397 
Q 2269 397 2603 481 
Q 2938 566 3225 728 
L 3116 159 
Q 2806 34 2476 -28 
Q 2147 -91 1806 -91 
Q 1078 -91 686 257 
Q 294 606 294 1247 
Q 294 1794 489 2264 
Q 684 2734 1063 3103 
Q 1306 3334 1642 3459 
Q 1978 3584 2356 3584 
Q 2950 3584 3301 3228 
Q 3653 2872 3653 2272 
Q 3653 2128 3634 1964 
Q 3616 1800 3578 1613 
z
" transform="scale(0.015625)"/>
      <path id="DejaVuSans-Oblique-79" d="M 1588 -325 
Q 1188 -997 936 -1164 
Q 684 -1331 294 -1331 
L -159 -1331 
L -63 -850 
L 269 -850 
Q 509 -850 678 -719 
Q 847 -588 1056 -206 
L 1234 128 
L 459 3500 
L 1069 3500 
L 1650 819 
L 3256 3500 
L 3859 3500 
L 1588 -325 
z
" transform="scale(0.015625)"/>
      <path id="DejaVuSans-Oblique-29" d="M -397 -844 
Q 434 191 840 1120 
Q 1247 2050 1247 2913 
Q 1247 3406 1130 3892 
Q 1013 4378 775 4856 
L 1275 4856 
Q 1563 4316 1703 3812 
Q 1844 3309 1844 2822 
Q 1844 1891 1411 973 
Q 978 56 116 -844 
L -397 -844 
z
" transform="scale(0.015625)"/>
     </defs>
     <use xlink:href="#DejaVuSans-Oblique-28"/>
     <use xlink:href="#DejaVuSans-Oblique-4d" transform="translate(39.013672 0)"/>
     <use xlink:href="#DejaVuSans-Oblique-69" transform="translate(125.292969 0)"/>
     <use xlink:href="#DejaVuSans-Oblique-6e" transform="translate(153.076172 0)"/>
     <use xlink:href="#DejaVuSans-Oblique-69" transform="translate(216.455078 0)"/>
     <use xlink:href="#DejaVuSans-Oblique-6d" transform="translate(244.238281 0)"/>
     <use xlink:href="#DejaVuSans-Oblique-61" transform="translate(341.650391 0)"/>
     <use xlink:href="#DejaVuSans-Oblique-6c" transform="translate(402.929688 0)"/>
     <use xlink:href="#DejaVuSans-Oblique-20" transform="translate(430.712891 0)"/>
     <use xlink:href="#DejaVuSans-Oblique-49" transform="translate(462.5 0)"/>
     <use xlink:href="#DejaVuSans-Oblique-6e" transform="translate(491.992188 0)"/>
     <use xlink:href="#DejaVuSans-Oblique-63" transform="translate(555.371094 0)"/>
     <use xlink:href="#DejaVuSans-Oblique-6f" transform="translate(610.351562 0)"/>
     <use xlink:href="#DejaVuSans-Oblique-6e" transform="translate(671.533203 0)"/>
     <use xlink:href="#DejaVuSans-Oblique-73" transform="translate(734.912109 0)"/>
     <use xlink:href="#DejaVuSans-Oblique-69" transform="translate(787.011719 0)"/>
     <use xlink:href="#DejaVuSans-Oblique-73" transform="translate(814.794922 0)"/>
     <use xlink:href="#DejaVuSans-Oblique-74" transform="translate(866.894531 0)"/>
     <use xlink:href="#DejaVuSans-Oblique-65" transform="translate(906.103516 0)"/>
     <use xlink:href="#DejaVuSans-Oblique-6e" transform="translate(967.626953 0)"/>
     <use xlink:href="#DejaVuSans-Oblique-63" transform="translate(1031.005859 0)"/>
     <use xlink:href="#DejaVuSans-Oblique-79" transform="translate(1085.986328 0)"/>
     <use xlink:href="#DejaVuSans-Oblique-29" transform="translate(1145.166016 0)"/>
    </g>
   </g>
   <g id="text_6">
    <!-- \textbf{Hamiltonian Formulation} -->
    <g transform="translate(504.4075 133.4759) scale(0.14 -0.14)">
     <defs>
      <path id="DejaVuSans-Bold-48" d="M 588 4666 
L 1791 4666 
L 1791 2888 
L 3566 2888 
L 3566 4666 
L 4769 4666 
L 4769 0 
L 3566 0 
L 3566 1978 
L 1791 1978 
L 1791 0 
L 588 0 
L 588 4666 
z
" transform="scale(0.015625)"/>
     </defs>
     <use xlink:href="#DejaVuSans-Bold-5c"/>
     <use xlink:href="#DejaVuSans-Bold-74" transform="translate(36.523438 0)"/>
     <use xlink:href="#DejaVuSans-Bold-65" transform="translate(84.326172 0)"/>
     <use xlink:href="#DejaVuSans-Bold-78" transform="translate(152.148438 0)"/>
     <use xlink:href="#DejaVuSans-Bold-74" transform="translate(216.650391 0)"/>
     <use xlink:href="#DejaVuSans-Bold-62" transform="translate(264.453125 0)"/>
     <use xlink:href="#DejaVuSans-Bold-66" transform="translate(336.035156 0)"/>
     <use xlink:href="#DejaVuSans-Bold-7b" transform="translate(379.541016 0)"/>
     <use xlink:href="#DejaVuSans-Bold-48" transform="translate(450.732422 0)"/>
     <use xlink:href="#DejaVuSans-Bold-61" transform="translate(534.423828 0)"/>
     <use xlink:href="#DejaVuSans-Bold-6d" transform="translate(601.904297 0)"/>
     <use xlink:href="#DejaVuSans-Bold-69" transform="translate(706.103516 0)"/>
     <use xlink:href="#DejaVuSans-Bold-6c" transform="translate(740.380859 0)"/>
     <use xlink:href="#DejaVuSans-Bold-74" transform="translate(774.658203 0)"/>
     <use xlink:href="#DejaVuSans-Bold-6f" transform="translate(822.460938 0)"/>
     <use xlink:href="#DejaVuSans-Bold-6e" transform="translate(891.162109 0)"/>
     <use xlink:href="#DejaVuSans-Bold-69" transform="translate(962.353516 0)"/>
     <use xlink:href="#DejaVuSans-Bold-61" transform="translate(996.630859 0)"/>
     <use xlink:href="#DejaVuSans-Bold-6e" transform="translate(1064.111328 0)"/>
     <use xlink:href="#DejaVuSans-Bold-20" transform="translate(1135.302734 0)"/>
     <use xlink:href="#DejaVuSans-Bold-46" transform="translate(1170.117188 0)"/>
     <use xlink:href="#DejaVuSans-Bold-6f" transform="translate(1234.427734 0)"/>
     <use xlink:href="#DejaVuSans-Bold-72" transform="translate(1303.128906 0)"/>
     <use xlink:href="#DejaVuSans-Bold-6d" transform="translate(1352.445312 0)"/>
     <use xlink:href="#DejaVuSans-Bold-75" transform="translate(1456.644531 0)"/>
     <use xlink:href="#DejaVuSans-Bold-6c" transform="translate(1527.835938 0)"/>
     <use xlink:href="#DejaVuSans-Bold-61" transform="translate(1562.113281 0)"/>
     <use xlink:href="#DejaVuSans-Bold-74" transform="translate(1629.59375 0)"/>
     <use xlink:href="#DejaVuSans-Bold-69" transform="translate(1677.396484 0)"/>
     <use xlink:href="#DejaVuSans-Bold-6f" transform="translate(1711.673828 0)"/>
     <use xlink:href="#DejaVuSans-Bold-6e" transform="translate(1780.375 0)"/>
     <use xlink:href="#DejaVuSans-Bold-7d" transform="translate(1851.566406 0)"/>
    </g>
   </g>
   <g id="text_7">
    <!-- $\hat{H} = D - A$ -->
    <g transform="translate(608.645 164.8487) scale(0.13 -0.13)">
     <defs>
      <path id="DejaVuSans-302" d="M -1831 5119 
L -1369 5119 
L -603 3944 
L -1038 3944 
L -1600 4709 
L -2163 3944 
L -2597 3944 
L -1831 5119 
z
M -1600 3584 
L -1600 3584 
z
" transform="scale(0.015625)"/>
      <path id="DejaVuSans-Oblique-48" d="M 1081 4666 
L 1716 4666 
L 1344 2753 
L 3634 2753 
L 4006 4666 
L 4641 4666 
L 3731 0 
L 3097 0 
L 3531 2222 
L 1241 2222 
L 806 0 
L 172 0 
L 1081 4666 
z
" transform="scale(0.015625)"/>
      <path id="DejaVuSans-Oblique-44" d="M 1081 4666 
L 2438 4666 
Q 3519 4666 4070 4208 
Q 4622 3750 4622 2847 
Q 4622 2250 4412 1698 
Q 4203 1147 3834 769 
Q 3463 381 2891 190 
Q 2319 0 1538 0 
L 172 0 
L 1081 4666 
z
M 1613 4147 
L 909 519 
L 1734 519 
Q 2794 519 3375 1128 
Q 3956 1738 3956 2847 
Q 3956 3519 3581 3833 
Q 3206 4147 2406 4147 
L 1613 4147 
z
" transform="scale(0.015625)"/>
      <path id="DejaVuSans-Oblique-41" d="M 2356 4666 
L 3072 4666 
L 3938 0 
L 3278 0 
L 3084 1197 
L 984 1197 
L 325 0 
L -341 0 
L 2356 4666 
z
M 2584 4044 
L 1275 1722 
L 2988 1722 
L 2584 4044 
z
" transform="scale(0.015625)"/>
     </defs>
     <use xlink:href="#DejaVuSans-302" transform="translate(72.376953 30.015625)"/>
     <use xlink:href="#DejaVuSans-Oblique-48" transform="translate(0 0.609375)"/>
     <use xlink:href="#DejaVuSans-3d" transform="translate(94.677734 0.609375)"/>
     <use xlink:href="#DejaVuSans-Oblique-44" transform="translate(197.949219 0.609375)"/>
     <use xlink:href="#DejaVuSans-2212" transform="translate(294.433594 0.609375)"/>
     <use xlink:href="#DejaVuSans-Oblique-41" transform="translate(397.705078 0.609375)"/>
    </g>
   </g>
   <g id="text_8">
    <!-- (Graph Laplacian) -->
    <g transform="translate(589.856641 196.2215) scale(0.11 -0.11)">
     <defs>
      <path id="DejaVuSans-28" d="M 1984 4856 
Q 1566 4138 1362 3434 
Q 1159 2731 1159 2009 
Q 1159 1288 1364 580 
Q 1569 -128 1984 -844 
L 1484 -844 
Q 1016 -109 783 600 
Q 550 1309 550 2009 
Q 550 2706 781 3412 
Q 1013 4119 1484 4856 
L 1984 4856 
z
" transform="scale(0.015625)"/>
      <path id="DejaVuSans-47" d="M 3809 666 
L 3809 1919 
L 2778 1919 
L 2778 2438 
L 4434 2438 
L 4434 434 
Q 4069 175 3628 42 
Q 3188 -91 2688 -91 
Q 1594 -91 976 548 
Q 359 1188 359 2328 
Q 359 3472 976 4111 
Q 1594 4750 2688 4750 
Q 3144 4750 3555 4637 
Q 3966 4525 4313 4306 
L 4313 3634 
Q 3963 3931 3569 4081 
Q 3175 4231 2741 4231 
Q 1884 4231 1454 3753 
Q 1025 3275 1025 2328 
Q 1025 1384 1454 906 
Q 1884 428 2741 428 
Q 3075 428 3337 486 
Q 3600 544 3809 666 
z
" transform="scale(0.015625)"/>
      <path id="DejaVuSans-61" d="M 2194 1759 
Q 1497 1759 1228 1600 
Q 959 1441 959 1056 
Q 959 750 1161 570 
Q 1363 391 1709 391 
Q 2188 391 2477 730 
Q 2766 1069 2766 1631 
L 2766 1759 
L 2194 1759 
z
M 3341 1997 
L 3341 0 
L 2766 0 
L 2766 531 
Q 2569 213 2275 61 
Q 1981 -91 1556 -91 
Q 1019 -91 701 211 
Q 384 513 384 1019 
Q 384 1609 779 1909 
Q 1175 2209 1959 2209 
L 2766 2209 
L 2766 2266 
Q 2766 2663 2505 2880 
Q 2244 3097 1772 3097 
Q 1472 3097 1187 3025 
Q 903 2953 641 2809 
L 641 3341 
Q 956 3463 1253 3523 
Q 1550 3584 1831 3584 
Q 2591 3584 2966 3190 
Q 3341 2797 3341 1997 
z
" transform="scale(0.015625)"/>
      <path id="DejaVuSans-68" d="M 3513 2113 
L 3513 0 
L 2938 0 
L 2938 2094 
Q 2938 2591 2744 2837 
Q 2550 3084 2163 3084 
Q 1697 3084 1428 2787 
Q 1159 2491 1159 1978 
L 1159 0 
L 581 0 
L 581 4863 
L 1159 4863 
L 1159 2956 
Q 1366 3272 1645 3428 
Q 1925 3584 2291 3584 
Q 2894 3584 3203 3211 
Q 3513 2838 3513 2113 
z
" transform="scale(0.015625)"/>
      <path id="DejaVuSans-4c" d="M 628 4666 
L 1259 4666 
L 1259 531 
L 3531 531 
L 3531 0 
L 628 0 
L 628 4666 
z
" transform="scale(0.015625)"/>
      <path id="DejaVuSans-29" d="M 513 4856 
L 1013 4856 
Q 1481 4119 1714 3412 
Q 1947 2706 1947 2009 
Q 1947 1309 1714 600 
Q 1481 -109 1013 -844 
L 513 -844 
Q 928 -128 1133 580 
Q 1338 1288 1338 2009 
Q 1338 2731 1133 3434 
Q 928 4138 513 4856 
z
" transform="scale(0.015625)"/>
     </defs>
     <use xlink:href="#DejaVuSans-28"/>
     <use xlink:href="#DejaVuSans-47" transform="translate(39.013672 0)"/>
     <use xlink:href="#DejaVuSans-72" transform="translate(116.503906 0)"/>
     <use xlink:href="#DejaVuSans-61" transform="translate(157.617188 0)"/>
     <use xlink:href="#DejaVuSans-70" transform="translate(218.896484 0)"/>
     <use xlink:href="#DejaVuSans-68" transform="translate(282.373047 0)"/>
     <use xlink:href="#DejaVuSans-20" transform="translate(345.751953 0)"/>
     <use xlink:href="#DejaVuSans-4c" transform="translate(377.539062 0)"/>
     <use xlink:href="#DejaVuSans-61" transform="translate(433.251953 0)"/>
     <use xlink:href="#DejaVuSans-70" transform="translate(494.53125 0)"/>
     <use xlink:href="#DejaVuSans-6c" transform="translate(558.007812 0)"/>
     <use xlink:href="#DejaVuSans-61" transform="translate(585.791016 0)"/>
     <use xlink:href="#DejaVuSans-63" transform="translate(647.070312 0)"/>
     <use xlink:href="#DejaVuSans-69" transform="translate(702.050781 0)"/>
     <use xlink:href="#DejaVuSans-61" transform="translate(729.833984 0)"/>
     <use xlink:href="#DejaVuSans-6e" transform="translate(791.113281 0)"/>
     <use xlink:href="#DejaVuSans-29" transform="translate(854.492188 0)"/>
    </g>
   </g>
   <g id="text_9">
    <!-- Dynamics: $i\hbar\partial_t|\psi\rangle = \hat{H}|\psi\rangle$ -->
    <g transform="translate(572.23 227.5943) scale(0.11 -0.11)">
     <defs>
      <path id="DejaVuSans-44" d="M 1259 4147 
L 1259 519 
L 2022 519 
Q 2988 519 3436 956 
Q 3884 1394 3884 2338 
Q 3884 3275 3436 3711 
Q 2988 4147 2022 4147 
L 1259 4147 
z
M 628 4666 
L 1925 4666 
Q 3281 4666 3915 4102 
Q 4550 3538 4550 2338 
Q 4550 1131 3912 565 
Q 3275 0 1925 0 
L 628 0 
L 628 4666 
z
" transform="scale(0.015625)"/>
      <path id="DejaVuSans-79" d="M 2059 -325 
Q 1816 -950 1584 -1140 
Q 1353 -1331 966 -1331 
L 506 -1331 
L 506 -850 
L 844 -850 
Q 1081 -850 1212 -737 
Q 1344 -625 1503 -206 
L 1606 56 
L 191 3500 
L 800 3500 
L 1894 763 
L 2988 3500 
L 3597 3500 
L 2059 -325 
z
" transform="scale(0.015625)"/>
      <path id="DejaVuSans-6d" d="M 3328 2828 
Q 3544 3216 3844 3400 
Q 4144 3584 4550 3584 
Q 5097 3584 5394 3201 
Q 5691 2819 5691 2113 
L 5691 0 
L 5113 0 
L 5113 2094 
Q 5113 2597 4934 2840 
Q 4756 3084 4391 3084 
Q 3944 3084 3684 2787 
Q 3425 2491 3425 1978 
L 3425 0 
L 2847 0 
L 2847 2094 
Q 2847 2600 2669 2842 
Q 2491 3084 2119 3084 
Q 1678 3084 1418 2786 
Q 1159 2488 1159 1978 
L 1159 0 
L 581 0 
L 581 3500 
L 1159 3500 
L 1159 2956 
Q 1356 3278 1631 3431 
Q 1906 3584 2284 3584 
Q 2666 3584 2933 3390 
Q 3200 3197 3328 2828 
z
" transform="scale(0.015625)"/>
      <path id="DejaVuSans-73" d="M 2834 3397 
L 2834 2853 
Q 2591 2978 2328 3040 
Q 2066 3103 1784 3103 
Q 1356 3103 1142 2972 
Q 928 2841 928 2578 
Q 928 2378 1081 2264 
Q 1234 2150 1697 2047 
L 1894 2003 
Q 2506 1872 2764 1633 
Q 3022 1394 3022 966 
Q 3022 478 2636 193 
Q 2250 -91 1575 -91 
Q 1294 -91 989 -36 
Q 684 19 347 128 
L 347 722 
Q 666 556 975 473 
Q 1284 391 1588 391 
Q 1994 391 2212 530 
Q 2431 669 2431 922 
Q 2431 1156 2273 1281 
Q 2116 1406 1581 1522 
L 1381 1569 
Q 847 1681 609 1914 
Q 372 2147 372 2553 
Q 372 3047 722 3315 
Q 1072 3584 1716 3584 
Q 2034 3584 2315 3537 
Q 2597 3491 2834 3397 
z
" transform="scale(0.015625)"/>
      <path id="DejaVuSans-Oblique-127" d="M 3634 2113 
L 3225 0 
L 2650 0 
L 3056 2094 
Q 3094 2291 3094 2450 
Q 3094 2688 3006 2838 
Q 2863 3084 2475 3084 
Q 2009 3084 1681 2788 
Q 1356 2491 1256 1978 
L 872 0 
L 294 0 
L 1066 3969 
L 675 3969 
L 775 4481 
L 1166 4481 
L 1238 4863 
L 1816 4863 
L 1744 4481 
L 2844 4481 
L 2744 3969 
L 1644 3969 
L 1447 2956 
Q 1713 3272 2025 3428 
Q 2331 3584 2700 3584 
Q 3300 3584 3538 3213 
Q 3688 2975 3688 2606 
Q 3688 2381 3634 2113 
z
" transform="scale(0.015625)"/>
      <path id="DejaVuSans-2202" d="M 1366 -91 
Q 925 -91 638 175 
Q 297 491 297 1063 
Q 297 1656 597 2119 
Q 906 2594 1463 2594 
Q 1828 2594 2116 2366 
Q 2284 2231 2400 2006 
Q 2441 2259 2441 2547 
Q 2441 2969 2341 3213 
Q 2119 3753 1531 3753 
Q 1309 3753 966 3616 
L 966 4141 
Q 1328 4238 1653 4238 
Q 2491 4238 2847 3469 
Q 3013 3106 3013 2566 
Q 3013 2213 2934 1803 
Q 2738 778 2228 291 
Q 1828 -91 1366 -91 
z
M 831 969 
Q 831 656 969 488 
Q 1116 309 1341 309 
Q 1541 309 1700 450 
Q 1925 644 2091 959 
Q 2228 1219 2297 1497 
Q 2019 2169 1538 2169 
Q 1125 2169 944 1625 
Q 831 1288 831 969 
z
" transform="scale(0.015625)"/>
      <path id="DejaVuSans-7c" d="M 1344 4891 
L 1344 -1509 
L 813 -1509 
L 813 4891 
L 1344 4891 
z
" transform="scale(0.015625)"/>
      <path id="DejaVuSans-Oblique-3c8" d="M 1591 -78 
Q 891 38 616 341 
Q 278 713 425 1472 
L 819 3500 
L 1400 3500 
L 1009 1494 
Q 900 922 1119 684 
Q 1313 478 1691 434 
L 2284 3500 
L 2856 3500 
L 2263 438 
Q 2681 481 2928 688 
Q 3247 950 3353 1497 
L 3741 3500 
L 4322 3500 
L 3928 1475 
Q 3775 688 3300 344 
Q 2872 34 2163 -75 
L 1919 -1331 
L 1347 -1331 
L 1591 -78 
z
" transform="scale(0.015625)"/>
      <path id="DejaVuSans-27e9" d="M 1925 2006 
L 1044 -844 
L 513 -844 
L 1394 2006 
L 513 4856 
L 1044 4856 
L 1925 2006 
z
" transform="scale(0.015625)"/>
     </defs>
     <use xlink:href="#DejaVuSans-44" transform="translate(0 0.609375)"/>
     <use xlink:href="#DejaVuSans-79" transform="translate(77.001953 0.609375)"/>
     <use xlink:href="#DejaVuSans-6e" transform="translate(136.181641 0.609375)"/>
     <use xlink:href="#DejaVuSans-61" transform="translate(199.560547 0.609375)"/>
     <use xlink:href="#DejaVuSans-6d" transform="translate(260.839844 0.609375)"/>
     <use xlink:href="#DejaVuSans-69" transform="translate(358.251953 0.609375)"/>
     <use xlink:href="#DejaVuSans-63" transform="translate(386.035156 0.609375)"/>
     <use xlink:href="#DejaVuSans-73" transform="translate(441.015625 0.609375)"/>
     <use xlink:href="#DejaVuSans-3a" transform="translate(493.115234 0.609375)"/>
     <use xlink:href="#DejaVuSans-20" transform="translate(526.806641 0.609375)"/>
     <use xlink:href="#DejaVuSans-Oblique-69" transform="translate(558.59375 0.609375)"/>
     <use xlink:href="#DejaVuSans-Oblique-127" transform="translate(586.376953 0.609375)"/>
     <use xlink:href="#DejaVuSans-2202" transform="translate(655.859375 0.609375)"/>
     <use xlink:href="#DejaVuSans-Oblique-74" transform="translate(708.525391 -15.796875) scale(0.7)"/>
     <use xlink:href="#DejaVuSans-7c" transform="translate(738.706055 0.609375)"/>
     <use xlink:href="#DejaVuSans-Oblique-3c8" transform="translate(772.397461 0.609375)"/>
     <use xlink:href="#DejaVuSans-27e9" transform="translate(838.364258 0.609375)"/>
     <use xlink:href="#DejaVuSans-3d" transform="translate(896.860352 0.609375)"/>
     <use xlink:href="#DejaVuSans-302" transform="translate(1072.508789 30.015625)"/>
     <use xlink:href="#DejaVuSans-Oblique-48" transform="translate(1000.131836 0.609375)"/>
     <use xlink:href="#DejaVuSans-7c" transform="translate(1075.327148 0.609375)"/>
     <use xlink:href="#DejaVuSans-Oblique-3c8" transform="translate(1109.018555 0.609375)"/>
     <use xlink:href="#DejaVuSans-27e9" transform="translate(1174.985352 0.609375)"/>
    </g>
   </g>
   <g id="text_10">
    <!-- (Minimal Fisher Info) -->
    <g transform="translate(587.702344 253.7383) scale(0.1 -0.1)">
     <defs>
      <path id="DejaVuSans-Oblique-46" d="M 1081 4666 
L 3756 4666 
L 3653 4134 
L 1606 4134 
L 1338 2759 
L 3188 2759 
L 3084 2228 
L 1234 2228 
L 800 0 
L 172 0 
L 1081 4666 
z
" transform="scale(0.015625)"/>
      <path id="DejaVuSans-Oblique-72" d="M 2853 2969 
Q 2766 3016 2653 3041 
Q 2541 3066 2413 3066 
Q 1953 3066 1609 2717 
Q 1266 2369 1153 1784 
L 800 0 
L 225 0 
L 909 3500 
L 1484 3500 
L 1375 2956 
Q 1603 3259 1920 3421 
Q 2238 3584 2597 3584 
Q 2691 3584 2781 3573 
Q 2872 3563 2963 3538 
L 2853 2969 
z
" transform="scale(0.015625)"/>
      <path id="DejaVuSans-Oblique-66" d="M 3059 4863 
L 2969 4384 
L 2419 4384 
Q 2106 4384 1964 4261 
Q 1822 4138 1753 3809 
L 1691 3500 
L 2638 3500 
L 2553 3053 
L 1606 3053 
L 1013 0 
L 434 0 
L 1031 3053 
L 481 3053 
L 563 3500 
L 1113 3500 
L 1159 3744 
Q 1278 4363 1576 4613 
Q 1875 4863 2516 4863 
L 3059 4863 
z
" transform="scale(0.015625)"/>
     </defs>
     <use xlink:href="#DejaVuSans-Oblique-28"/>
     <use xlink:href="#DejaVuSans-Oblique-4d" transform="translate(39.013672 0)"/>
     <use xlink:href="#DejaVuSans-Oblique-69" transform="translate(125.292969 0)"/>
     <use xlink:href="#DejaVuSans-Oblique-6e" transform="translate(153.076172 0)"/>
     <use xlink:href="#DejaVuSans-Oblique-69" transform="translate(216.455078 0)"/>
     <use xlink:href="#DejaVuSans-Oblique-6d" transform="translate(244.238281 0)"/>
     <use xlink:href="#DejaVuSans-Oblique-61" transform="translate(341.650391 0)"/>
     <use xlink:href="#DejaVuSans-Oblique-6c" transform="translate(402.929688 0)"/>
     <use xlink:href="#DejaVuSans-Oblique-20" transform="translate(430.712891 0)"/>
     <use xlink:href="#DejaVuSans-Oblique-46" transform="translate(462.5 0)"/>
     <use xlink:href="#DejaVuSans-Oblique-69" transform="translate(520.019531 0)"/>
     <use xlink:href="#DejaVuSans-Oblique-73" transform="translate(547.802734 0)"/>
     <use xlink:href="#DejaVuSans-Oblique-68" transform="translate(599.902344 0)"/>
     <use xlink:href="#DejaVuSans-Oblique-65" transform="translate(663.28125 0)"/>
     <use xlink:href="#DejaVuSans-Oblique-72" transform="translate(724.804688 0)"/>
     <use xlink:href="#DejaVuSans-Oblique-20" transform="translate(765.917969 0)"/>
     <use xlink:href="#DejaVuSans-Oblique-49" transform="translate(797.705078 0)"/>
     <use xlink:href="#DejaVuSans-Oblique-6e" transform="translate(827.197266 0)"/>
     <use xlink:href="#DejaVuSans-Oblique-66" transform="translate(890.576172 0)"/>
     <use xlink:href="#DejaVuSans-Oblique-6f" transform="translate(925.78125 0)"/>
     <use xlink:href="#DejaVuSans-Oblique-29" transform="translate(986.962891 0)"/>
    </g>
   </g>
   <g id="text_11">
    <!-- Legendre -->
    <g transform="translate(399.202734 154.3911) scale(0.11 -0.11)">
     <defs>
      <path id="DejaVuSans-Bold-64" d="M 2919 2988 
L 2919 4863 
L 4044 4863 
L 4044 0 
L 2919 0 
L 2919 506 
Q 2688 197 2409 53 
Q 2131 -91 1766 -91 
Q 1119 -91 703 423 
Q 288 938 288 1747 
Q 288 2556 703 3070 
Q 1119 3584 1766 3584 
Q 2128 3584 2408 3439 
Q 2688 3294 2919 2988 
z
M 2181 722 
Q 2541 722 2730 984 
Q 2919 1247 2919 1747 
Q 2919 2247 2730 2509 
Q 2541 2772 2181 2772 
Q 1825 2772 1636 2509 
Q 1447 2247 1447 1747 
Q 1447 1247 1636 984 
Q 1825 722 2181 722 
z
" transform="scale(0.015625)"/>
     </defs>
     <use xlink:href="#DejaVuSans-Bold-4c"/>
     <use xlink:href="#DejaVuSans-Bold-65" transform="translate(63.720703 0)"/>
     <use xlink:href="#DejaVuSans-Bold-67" transform="translate(131.542969 0)"/>
     <use xlink:href="#DejaVuSans-Bold-65" transform="translate(203.125 0)"/>
     <use xlink:href="#DejaVuSans-Bold-6e" transform="translate(270.947266 0)"/>
     <use xlink:href="#DejaVuSans-Bold-64" transform="translate(342.138672 0)"/>
     <use xlink:href="#DejaVuSans-Bold-72" transform="translate(413.720703 0)"/>
     <use xlink:href="#DejaVuSans-Bold-65" transform="translate(463.037109 0)"/>
    </g>
   </g>
   <g id="text_12">
    <!-- $p = \partial L/\partial\dot{h}$ -->
    <g transform="translate(406.25 170.0775) scale(0.1 -0.1)">
     <defs>
      <path id="DejaVuSans-Oblique-70" d="M 3175 2156 
Q 3175 2616 2975 2859 
Q 2775 3103 2400 3103 
Q 2144 3103 1911 2972 
Q 1678 2841 1497 2591 
Q 1319 2344 1212 1994 
Q 1106 1644 1106 1300 
Q 1106 863 1306 627 
Q 1506 391 1875 391 
Q 2147 391 2380 519 
Q 2613 647 2778 891 
Q 2956 1147 3065 1494 
Q 3175 1841 3175 2156 
z
M 1394 2969 
Q 1625 3272 1939 3428 
Q 2253 3584 2638 3584 
Q 3175 3584 3472 3232 
Q 3769 2881 3769 2247 
Q 3769 1728 3584 1258 
Q 3400 788 3053 416 
Q 2822 169 2531 39 
Q 2241 -91 1919 -91 
Q 1547 -91 1294 64 
Q 1041 219 916 525 
L 556 -1331 
L -19 -1331 
L 922 3500 
L 1497 3500 
L 1394 2969 
z
" transform="scale(0.015625)"/>
      <path id="DejaVuSans-2f" d="M 1625 4666 
L 2156 4666 
L 531 -594 
L 0 -594 
L 1625 4666 
z
" transform="scale(0.015625)"/>
     </defs>
     <use xlink:href="#DejaVuSans-Oblique-70" transform="translate(0 0.53125)"/>
     <use xlink:href="#DejaVuSans-3d" transform="translate(82.958984 0.53125)"/>
     <use xlink:href="#DejaVuSans-2202" transform="translate(186.230469 0.53125)"/>
     <use xlink:href="#DejaVuSans-Oblique-4c" transform="translate(237.939453 0.53125)"/>
     <use xlink:href="#DejaVuSans-2f" transform="translate(293.652344 0.53125)"/>
     <use xlink:href="#DejaVuSans-2202" transform="translate(327.34375 0.53125)"/>
     <use xlink:href="#DejaVuSans-307" transform="translate(443.491211 33.015625)"/>
     <use xlink:href="#DejaVuSans-Oblique-68" transform="translate(379.052734 0.53125)"/>
    </g>
   </g>
   <g id="text_13">
    <!-- Transform -->
    <g transform="translate(397.025938 238.0519) scale(0.11 -0.11)">
     <defs>
      <path id="DejaVuSans-Bold-54" d="M 31 4666 
L 4331 4666 
L 4331 3756 
L 2784 3756 
L 2784 0 
L 1581 0 
L 1581 3756 
L 31 3756 
L 31 4666 
z
" transform="scale(0.015625)"/>
      <path id="DejaVuSans-Bold-73" d="M 3272 3391 
L 3272 2541 
Q 2913 2691 2578 2766 
Q 2244 2841 1947 2841 
Q 1628 2841 1473 2761 
Q 1319 2681 1319 2516 
Q 1319 2381 1436 2309 
Q 1553 2238 1856 2203 
L 2053 2175 
Q 2913 2066 3209 1816 
Q 3506 1566 3506 1031 
Q 3506 472 3093 190 
Q 2681 -91 1863 -91 
Q 1516 -91 1145 -36 
Q 775 19 384 128 
L 384 978 
Q 719 816 1070 734 
Q 1422 653 1784 653 
Q 2113 653 2278 743 
Q 2444 834 2444 1013 
Q 2444 1163 2330 1236 
Q 2216 1309 1875 1350 
L 1678 1375 
Q 931 1469 631 1722 
Q 331 1975 331 2491 
Q 331 3047 712 3315 
Q 1094 3584 1881 3584 
Q 2191 3584 2531 3537 
Q 2872 3491 3272 3391 
z
" transform="scale(0.015625)"/>
     </defs>
     <use xlink:href="#DejaVuSans-Bold-54"/>
     <use xlink:href="#DejaVuSans-Bold-72" transform="translate(57.212891 0)"/>
     <use xlink:href="#DejaVuSans-Bold-61" transform="translate(106.529297 0)"/>
     <use xlink:href="#DejaVuSans-Bold-6e" transform="translate(174.009766 0)"/>
     <use xlink:href="#DejaVuSans-Bold-73" transform="translate(245.201172 0)"/>
     <use xlink:href="#DejaVuSans-Bold-66" transform="translate(304.722656 0)"/>
     <use xlink:href="#DejaVuSans-Bold-6f" transform="translate(348.228516 0)"/>
     <use xlink:href="#DejaVuSans-Bold-72" transform="translate(416.929688 0)"/>
     <use xlink:href="#DejaVuSans-Bold-6d" transform="translate(466.246094 0)"/>
    </g>
   </g>
   <g id="text_14">
    <!-- $H = p\dot{h} - L$ -->
    <g transform="translate(403.2 253.7383) scale(0.1 -0.1)">
     <use xlink:href="#DejaVuSans-Oblique-48" transform="translate(0 0.53125)"/>
     <use xlink:href="#DejaVuSans-3d" transform="translate(94.677734 0.53125)"/>
     <use xlink:href="#DejaVuSans-Oblique-70" transform="translate(197.949219 0.53125)"/>
     <use xlink:href="#DejaVuSans-307" transform="translate(325.864258 33.015625)"/>
     <use xlink:href="#DejaVuSans-Oblique-68" transform="translate(261.425781 0.53125)"/>
     <use xlink:href="#DejaVuSans-2212" transform="translate(344.287109 0.53125)"/>
     <use xlink:href="#DejaVuSans-Oblique-4c" transform="translate(447.558594 0.53125)"/>
    </g>
   </g>
   <g id="text_15">
    <!-- Euler-Lagrange: -->
    <g transform="translate(168.158203 326.9415) scale(0.11 -0.11)">
     <defs>
      <path id="DejaVuSans-Bold-45" d="M 588 4666 
L 3834 4666 
L 3834 3756 
L 1791 3756 
L 1791 2888 
L 3713 2888 
L 3713 1978 
L 1791 1978 
L 1791 909 
L 3903 909 
L 3903 0 
L 588 0 
L 588 4666 
z
" transform="scale(0.015625)"/>
      <path id="DejaVuSans-Bold-2d" d="M 347 2297 
L 2309 2297 
L 2309 1388 
L 347 1388 
L 347 2297 
z
" transform="scale(0.015625)"/>
      <path id="DejaVuSans-Bold-3a" d="M 716 3500 
L 1844 3500 
L 1844 2291 
L 716 2291 
L 716 3500 
z
M 716 1209 
L 1844 1209 
L 1844 0 
L 716 0 
L 716 1209 
z
" transform="scale(0.015625)"/>
     </defs>
     <use xlink:href="#DejaVuSans-Bold-45"/>
     <use xlink:href="#DejaVuSans-Bold-75" transform="translate(68.310547 0)"/>
     <use xlink:href="#DejaVuSans-Bold-6c" transform="translate(139.501953 0)"/>
     <use xlink:href="#DejaVuSans-Bold-65" transform="translate(173.779297 0)"/>
     <use xlink:href="#DejaVuSans-Bold-72" transform="translate(241.601562 0)"/>
     <use xlink:href="#DejaVuSans-Bold-2d" transform="translate(290.917969 0)"/>
     <use xlink:href="#DejaVuSans-Bold-4c" transform="translate(332.421875 0)"/>
     <use xlink:href="#DejaVuSans-Bold-61" transform="translate(396.142578 0)"/>
     <use xlink:href="#DejaVuSans-Bold-67" transform="translate(463.623047 0)"/>
     <use xlink:href="#DejaVuSans-Bold-72" transform="translate(535.205078 0)"/>
     <use xlink:href="#DejaVuSans-Bold-61" transform="translate(584.521484 0)"/>
     <use xlink:href="#DejaVuSans-Bold-6e" transform="translate(652.001953 0)"/>
     <use xlink:href="#DejaVuSans-Bold-67" transform="translate(723.193359 0)"/>
     <use xlink:href="#DejaVuSans-Bold-65" transform="translate(794.775391 0)"/>
     <use xlink:href="#DejaVuSans-Bold-3a" transform="translate(862.597656 0)"/>
    </g>
   </g>
   <g id="text_16">
    <!-- $\chi\ddot{h} + \mu^2 h = 0$ -->
    <g transform="translate(181.14 353.0855) scale(0.12 -0.12)">
     <defs>
      <path id="DejaVuSans-308" d="M -1306 4850 
L -672 4850 
L -672 4219 
L -1306 4219 
L -1306 4850 
z
M -2528 4850 
L -1894 4850 
L -1894 4219 
L -2528 4219 
L -2528 4850 
z
M -1600 3584 
L -1600 3584 
z
" transform="scale(0.015625)"/>
      <path id="DejaVuSans-2b" d="M 2944 4013 
L 2944 2272 
L 4684 2272 
L 4684 1741 
L 2944 1741 
L 2944 0 
L 2419 0 
L 2419 1741 
L 678 1741 
L 678 2272 
L 2419 2272 
L 2419 4013 
L 2944 4013 
z
" transform="scale(0.015625)"/>
     </defs>
     <use xlink:href="#DejaVuSans-Oblique-3c7" transform="translate(0 0.734375)"/>
     <use xlink:href="#DejaVuSans-308" transform="translate(123.524414 33.21875)"/>
     <use xlink:href="#DejaVuSans-Oblique-68" transform="translate(59.179688 0.734375)"/>
     <use xlink:href="#DejaVuSans-2b" transform="translate(142.041016 0.734375)"/>
     <use xlink:href="#DejaVuSans-Oblique-3bc" transform="translate(245.3125 0.734375)"/>
     <use xlink:href="#DejaVuSans-32" transform="translate(313.401693 39.015625) scale(0.7)"/>
     <use xlink:href="#DejaVuSans-Oblique-68" transform="translate(360.672201 0.734375)"/>
     <use xlink:href="#DejaVuSans-3d" transform="translate(443.533529 0.734375)"/>
     <use xlink:href="#DejaVuSans-30" transform="translate(546.805013 0.734375)"/>
    </g>
   </g>
   <g id="text_17">
    <!-- (Wave equation on graph) -->
    <g transform="translate(158.973047 384.4583) scale(0.09 -0.09)">
     <defs>
      <path id="DejaVuSans-Oblique-57" d="M 616 4666 
L 1228 4666 
L 1453 697 
L 3213 4666 
L 3916 4666 
L 4147 697 
L 5888 4666 
L 6528 4666 
L 4453 0 
L 3659 0 
L 3444 3891 
L 1697 0 
L 903 0 
L 616 4666 
z
" transform="scale(0.015625)"/>
      <path id="DejaVuSans-Oblique-76" d="M 459 3500 
L 1069 3500 
L 1581 525 
L 3256 3500 
L 3866 3500 
L 1875 0 
L 1100 0 
L 459 3500 
z
" transform="scale(0.015625)"/>
      <path id="DejaVuSans-Oblique-71" d="M 2669 525 
Q 2438 222 2123 65 
Q 1809 -91 1428 -91 
Q 897 -91 595 267 
Q 294 625 294 1253 
Q 294 1759 480 2231 
Q 666 2703 1013 3078 
Q 1238 3322 1530 3453 
Q 1822 3584 2144 3584 
Q 2531 3584 2781 3431 
Q 3031 3278 3144 2969 
L 3244 3494 
L 3822 3494 
L 2888 -1319 
L 2309 -1319 
L 2669 525 
z
M 891 1338 
Q 891 875 1084 633 
Q 1278 391 1644 391 
Q 2188 391 2572 911 
Q 2956 1431 2956 2175 
Q 2956 2625 2757 2864 
Q 2559 3103 2188 3103 
Q 1916 3103 1684 2976 
Q 1453 2850 1281 2606 
Q 1100 2350 995 2006 
Q 891 1663 891 1338 
z
" transform="scale(0.015625)"/>
      <path id="DejaVuSans-Oblique-75" d="M 428 1388 
L 838 3500 
L 1416 3500 
L 1006 1409 
Q 975 1256 961 1147 
Q 947 1038 947 966 
Q 947 700 1109 554 
Q 1272 409 1569 409 
Q 2031 409 2368 721 
Q 2706 1034 2809 1563 
L 3194 3500 
L 3769 3500 
L 3091 0 
L 2516 0 
L 2631 550 
Q 2388 244 2052 76 
Q 1716 -91 1338 -91 
Q 878 -91 622 161 
Q 366 413 366 863 
Q 366 956 381 1097 
Q 397 1238 428 1388 
z
" transform="scale(0.015625)"/>
      <path id="DejaVuSans-Oblique-67" d="M 3816 3500 
L 3219 434 
Q 3047 -456 2561 -893 
Q 2075 -1331 1253 -1331 
Q 950 -1331 690 -1286 
Q 431 -1241 206 -1147 
L 313 -588 
Q 525 -725 762 -790 
Q 1000 -856 1269 -856 
Q 1816 -856 2167 -557 
Q 2519 -259 2631 300 
L 2681 563 
Q 2441 288 2122 144 
Q 1803 0 1434 0 
Q 903 0 598 351 
Q 294 703 294 1319 
Q 294 1803 478 2267 
Q 663 2731 997 3091 
Q 1219 3328 1514 3456 
Q 1809 3584 2131 3584 
Q 2484 3584 2746 3420 
Q 3009 3256 3138 2956 
L 3238 3500 
L 3816 3500 
z
M 2950 2216 
Q 2950 2641 2750 2872 
Q 2550 3103 2181 3103 
Q 1953 3103 1747 3012 
Q 1541 2922 1394 2759 
Q 1156 2491 1023 2127 
Q 891 1763 891 1375 
Q 891 944 1092 712 
Q 1294 481 1672 481 
Q 2219 481 2584 976 
Q 2950 1472 2950 2216 
z
" transform="scale(0.015625)"/>
     </defs>
     <use xlink:href="#DejaVuSans-Oblique-28"/>
     <use xlink:href="#DejaVuSans-Oblique-57" transform="translate(39.013672 0)"/>
     <use xlink:href="#DejaVuSans-Oblique-61" transform="translate(132.390625 0)"/>
     <use xlink:href="#DejaVuSans-Oblique-76" transform="translate(193.669922 0)"/>
     <use xlink:href="#DejaVuSans-Oblique-65" transform="translate(252.849609 0)"/>
     <use xlink:href="#DejaVuSans-Oblique-20" transform="translate(314.373047 0)"/>
     <use xlink:href="#DejaVuSans-Oblique-65" transform="translate(346.160156 0)"/>
     <use xlink:href="#DejaVuSans-Oblique-71" transform="translate(407.683594 0)"/>
     <use xlink:href="#DejaVuSans-Oblique-75" transform="translate(471.160156 0)"/>
     <use xlink:href="#DejaVuSans-Oblique-61" transform="translate(534.539062 0)"/>
     <use xlink:href="#DejaVuSans-Oblique-74" transform="translate(595.818359 0)"/>
     <use xlink:href="#DejaVuSans-Oblique-69" transform="translate(635.027344 0)"/>
     <use xlink:href="#DejaVuSans-Oblique-6f" transform="translate(662.810547 0)"/>
     <use xlink:href="#DejaVuSans-Oblique-6e" transform="translate(723.992188 0)"/>
     <use xlink:href="#DejaVuSans-Oblique-20" transform="translate(787.371094 0)"/>
     <use xlink:href="#DejaVuSans-Oblique-6f" transform="translate(819.158203 0)"/>
     <use xlink:href="#DejaVuSans-Oblique-6e" transform="translate(880.339844 0)"/>
     <use xlink:href="#DejaVuSans-Oblique-20" transform="translate(943.71875 0)"/>
     <use xlink:href="#DejaVuSans-Oblique-67" transform="translate(975.505859 0)"/>
     <use xlink:href="#DejaVuSans-Oblique-72" transform="translate(1038.982422 0)"/>
     <use xlink:href="#DejaVuSans-Oblique-61" transform="translate(1080.095703 0)"/>
     <use xlink:href="#DejaVuSans-Oblique-70" transform="translate(1141.375 0)"/>
     <use xlink:href="#DejaVuSans-Oblique-68" transform="translate(1204.851562 0)"/>
     <use xlink:href="#DejaVuSans-Oblique-29" transform="translate(1268.230469 0)"/>
    </g>
   </g>
   <g id="text_18">
    <!-- Hamilton's Equations: -->
    <g transform="translate(570.987344 326.9415) scale(0.11 -0.11)">
     <defs>
      <path id="DejaVuSans-Bold-27" d="M 1350 4666 
L 1350 2931 
L 609 2931 
L 609 4666 
L 1350 4666 
z
" transform="scale(0.015625)"/>
      <path id="DejaVuSans-Bold-71" d="M 2181 2772 
Q 1825 2772 1636 2509 
Q 1447 2247 1447 1747 
Q 1447 1247 1636 984 
Q 1825 722 2181 722 
Q 2541 722 2730 984 
Q 2919 1247 2919 1747 
Q 2919 2247 2730 2509 
Q 2541 2772 2181 2772 
z
M 2919 506 
Q 2688 197 2409 53 
Q 2131 -91 1766 -91 
Q 1119 -91 703 423 
Q 288 938 288 1747 
Q 288 2556 703 3067 
Q 1119 3578 1766 3578 
Q 2131 3578 2409 3434 
Q 2688 3291 2919 2981 
L 2919 3500 
L 4044 3500 
L 4044 -1331 
L 2919 -1331 
L 2919 506 
z
" transform="scale(0.015625)"/>
     </defs>
     <use xlink:href="#DejaVuSans-Bold-48"/>
     <use xlink:href="#DejaVuSans-Bold-61" transform="translate(83.691406 0)"/>
     <use xlink:href="#DejaVuSans-Bold-6d" transform="translate(151.171875 0)"/>
     <use xlink:href="#DejaVuSans-Bold-69" transform="translate(255.371094 0)"/>
     <use xlink:href="#DejaVuSans-Bold-6c" transform="translate(289.648438 0)"/>
     <use xlink:href="#DejaVuSans-Bold-74" transform="translate(323.925781 0)"/>
     <use xlink:href="#DejaVuSans-Bold-6f" transform="translate(371.728516 0)"/>
     <use xlink:href="#DejaVuSans-Bold-6e" transform="translate(440.429688 0)"/>
     <use xlink:href="#DejaVuSans-Bold-27" transform="translate(511.621094 0)"/>
     <use xlink:href="#DejaVuSans-Bold-73" transform="translate(542.236328 0)"/>
     <use xlink:href="#DejaVuSans-Bold-20" transform="translate(601.757812 0)"/>
     <use xlink:href="#DejaVuSans-Bold-45" transform="translate(636.572266 0)"/>
     <use xlink:href="#DejaVuSans-Bold-71" transform="translate(704.882812 0)"/>
     <use xlink:href="#DejaVuSans-Bold-75" transform="translate(776.464844 0)"/>
     <use xlink:href="#DejaVuSans-Bold-61" transform="translate(847.65625 0)"/>
     <use xlink:href="#DejaVuSans-Bold-74" transform="translate(915.136719 0)"/>
     <use xlink:href="#DejaVuSans-Bold-69" transform="translate(962.939453 0)"/>
     <use xlink:href="#DejaVuSans-Bold-6f" transform="translate(997.216797 0)"/>
     <use xlink:href="#DejaVuSans-Bold-6e" transform="translate(1065.917969 0)"/>
     <use xlink:href="#DejaVuSans-Bold-73" transform="translate(1137.109375 0)"/>
     <use xlink:href="#DejaVuSans-Bold-3a" transform="translate(1196.630859 0)"/>
    </g>
   </g>
   <g id="text_19">
    <!-- $\dot{h} = \partial H/\partial p$ -->
    <g transform="translate(613.59 353.0855) scale(0.11 -0.11)">
     <use xlink:href="#DejaVuSans-307" transform="translate(64.438477 33.015625)"/>
     <use xlink:href="#DejaVuSans-Oblique-68" transform="translate(0 0.53125)"/>
     <use xlink:href="#DejaVuSans-3d" transform="translate(82.861328 0.53125)"/>
     <use xlink:href="#DejaVuSans-2202" transform="translate(186.132812 0.53125)"/>
     <use xlink:href="#DejaVuSans-Oblique-48" transform="translate(237.841797 0.53125)"/>
     <use xlink:href="#DejaVuSans-2f" transform="translate(313.037109 0.53125)"/>
     <use xlink:href="#DejaVuSans-2202" transform="translate(346.728516 0.53125)"/>
     <use xlink:href="#DejaVuSans-Oblique-70" transform="translate(398.4375 0.53125)"/>
    </g>
   </g>
   <g id="text_20">
    <!-- $\dot{p} = -\partial H/\partial h$ -->
    <g transform="translate(608.97 379.2295) scale(0.11 -0.11)">
     <use xlink:href="#DejaVuSans-307" transform="translate(64.462891 13.015625)"/>
     <use xlink:href="#DejaVuSans-Oblique-70" transform="translate(0 0.515625)"/>
     <use xlink:href="#DejaVuSans-3d" transform="translate(82.958984 0.515625)"/>
     <use xlink:href="#DejaVuSans-2212" transform="translate(186.230469 0.515625)"/>
     <use xlink:href="#DejaVuSans-2202" transform="translate(270.019531 0.515625)"/>
     <use xlink:href="#DejaVuSans-Oblique-48" transform="translate(321.728516 0.515625)"/>
     <use xlink:href="#DejaVuSans-2f" transform="translate(396.923828 0.515625)"/>
     <use xlink:href="#DejaVuSans-2202" transform="translate(430.615234 0.515625)"/>
     <use xlink:href="#DejaVuSans-Oblique-68" transform="translate(482.324219 0.515625)"/>
    </g>
   </g>
   <g id="text_21">
    <!-- \textbf{Theorem 6.1 (Duality):} -->
    <g transform="translate(311.362422 452.4327) scale(0.13 -0.13)">
     <defs>
      <path id="DejaVuSans-Bold-68" d="M 4056 2131 
L 4056 0 
L 2931 0 
L 2931 347 
L 2931 1625 
Q 2931 2084 2911 2256 
Q 2891 2428 2841 2509 
Q 2775 2619 2662 2680 
Q 2550 2741 2406 2741 
Q 2056 2741 1856 2470 
Q 1656 2200 1656 1722 
L 1656 0 
L 538 0 
L 538 4863 
L 1656 4863 
L 1656 2988 
Q 1909 3294 2193 3439 
Q 2478 3584 2822 3584 
Q 3428 3584 3742 3212 
Q 4056 2841 4056 2131 
z
" transform="scale(0.015625)"/>
      <path id="DejaVuSans-Bold-36" d="M 2316 2303 
Q 2000 2303 1842 2098 
Q 1684 1894 1684 1484 
Q 1684 1075 1842 870 
Q 2000 666 2316 666 
Q 2634 666 2792 870 
Q 2950 1075 2950 1484 
Q 2950 1894 2792 2098 
Q 2634 2303 2316 2303 
z
M 3803 4544 
L 3803 3681 
Q 3506 3822 3243 3889 
Q 2981 3956 2731 3956 
Q 2194 3956 1894 3657 
Q 1594 3359 1544 2772 
Q 1750 2925 1990 3001 
Q 2231 3078 2516 3078 
Q 3231 3078 3670 2659 
Q 4109 2241 4109 1563 
Q 4109 813 3618 361 
Q 3128 -91 2303 -91 
Q 1394 -91 895 523 
Q 397 1138 397 2266 
Q 397 3422 980 4083 
Q 1563 4744 2578 4744 
Q 2900 4744 3203 4694 
Q 3506 4644 3803 4544 
z
" transform="scale(0.015625)"/>
      <path id="DejaVuSans-Bold-2e" d="M 653 1209 
L 1778 1209 
L 1778 0 
L 653 0 
L 653 1209 
z
" transform="scale(0.015625)"/>
      <path id="DejaVuSans-Bold-31" d="M 750 831 
L 1813 831 
L 1813 3847 
L 722 3622 
L 722 4441 
L 1806 4666 
L 2950 4666 
L 2950 831 
L 4013 831 
L 4013 0 
L 750 0 
L 750 831 
z
" transform="scale(0.015625)"/>
      <path id="DejaVuSans-Bold-28" d="M 2413 -844 
L 1484 -844 
Q 1006 -72 778 623 
Q 550 1319 550 2003 
Q 550 2688 779 3389 
Q 1009 4091 1484 4856 
L 2413 4856 
Q 2013 4116 1813 3408 
Q 1613 2700 1613 2009 
Q 1613 1319 1811 609 
Q 2009 -100 2413 -844 
z
" transform="scale(0.015625)"/>
      <path id="DejaVuSans-Bold-44" d="M 1791 3756 
L 1791 909 
L 2222 909 
Q 2959 909 3348 1275 
Q 3738 1641 3738 2338 
Q 3738 3031 3350 3393 
Q 2963 3756 2222 3756 
L 1791 3756 
z
M 588 4666 
L 1856 4666 
Q 2919 4666 3439 4514 
Q 3959 4363 4331 4000 
Q 4659 3684 4818 3271 
Q 4978 2859 4978 2338 
Q 4978 1809 4818 1395 
Q 4659 981 4331 666 
Q 3956 303 3431 151 
Q 2906 0 1856 0 
L 588 0 
L 588 4666 
z
" transform="scale(0.015625)"/>
      <path id="DejaVuSans-Bold-79" d="M 78 3500 
L 1197 3500 
L 2138 1125 
L 2938 3500 
L 4056 3500 
L 2584 -331 
Q 2363 -916 2067 -1148 
Q 1772 -1381 1288 -1381 
L 641 -1381 
L 641 -647 
L 991 -647 
Q 1275 -647 1404 -556 
Q 1534 -466 1606 -231 
L 1638 -134 
L 78 3500 
z
" transform="scale(0.015625)"/>
      <path id="DejaVuSans-Bold-29" d="M 513 -844 
Q 913 -100 1113 609 
Q 1313 1319 1313 2009 
Q 1313 2700 1113 3408 
Q 913 4116 513 4856 
L 1441 4856 
Q 1916 4091 2145 3389 
Q 2375 2688 2375 2003 
Q 2375 1319 2147 623 
Q 1919 -72 1441 -844 
L 513 -844 
z
" transform="scale(0.015625)"/>
     </defs>
     <use xlink:href="#DejaVuSans-Bold-5c"/>
     <use xlink:href="#DejaVuSans-Bold-74" transform="translate(36.523438 0)"/>
     <use xlink:href="#DejaVuSans-Bold-65" transform="translate(84.326172 0)"/>
     <use xlink:href="#DejaVuSans-Bold-78" transform="translate(152.148438 0)"/>
     <use xlink:href="#DejaVuSans-Bold-74" transform="translate(216.650391 0)"/>
     <use xlink:href="#DejaVuSans-Bold-62" transform="translate(264.453125 0)"/>
     <use xlink:href="#DejaVuSans-Bold-66" transform="translate(336.035156 0)"/>
     <use xlink:href="#DejaVuSans-Bold-7b" transform="translate(379.541016 0)"/>
     <use xlink:href="#DejaVuSans-Bold-54" transform="translate(450.732422 0)"/>
     <use xlink:href="#DejaVuSans-Bold-68" transform="translate(518.945312 0)"/>
     <use xlink:href="#DejaVuSans-Bold-65" transform="translate(590.136719 0)"/>
     <use xlink:href="#DejaVuSans-Bold-6f" transform="translate(657.958984 0)"/>
     <use xlink:href="#DejaVuSans-Bold-72" transform="translate(726.660156 0)"/>
     <use xlink:href="#DejaVuSans-Bold-65" transform="translate(775.976562 0)"/>
     <use xlink:href="#DejaVuSans-Bold-6d" transform="translate(843.798828 0)"/>
     <use xlink:href="#DejaVuSans-Bold-20" transform="translate(947.998047 0)"/>
     <use xlink:href="#DejaVuSans-Bold-36" transform="translate(982.8125 0)"/>
     <use xlink:href="#DejaVuSans-Bold-2e" transform="translate(1052.392578 0)"/>
     <use xlink:href="#DejaVuSans-Bold-31" transform="translate(1090.380859 0)"/>
     <use xlink:href="#DejaVuSans-Bold-20" transform="translate(1159.960938 0)"/>
     <use xlink:href="#DejaVuSans-Bold-28" transform="translate(1194.775391 0)"/>
     <use xlink:href="#DejaVuSans-Bold-44" transform="translate(1240.478516 0)"/>
     <use xlink:href="#DejaVuSans-Bold-75" transform="translate(1323.486328 0)"/>
     <use xlink:href="#DejaVuSans-Bold-61" transform="translate(1394.677734 0)"/>
     <use xlink:href="#DejaVuSans-Bold-6c" transform="translate(1462.158203 0)"/>
     <use xlink:href="#DejaVuSans-Bold-69" transform="translate(1496.435547 0)"/>
     <use xlink:href="#DejaVuSans-Bold-74" transform="translate(1530.712891 0)"/>
     <use xlink:href="#DejaVuSans-Bold-79" transform="translate(1578.515625 0)"/>
     <use xlink:href="#DejaVuSans-Bold-29" transform="translate(1643.701172 0)"/>
     <use xlink:href="#DejaVuSans-Bold-3a" transform="translate(1689.404297 0)"/>
     <use xlink:href="#DejaVuSans-Bold-7d" transform="translate(1729.394531 0)"/>
    </g>
   </g>
   <g id="text_22">
    <!-- Minimal Inconsistency $\equiv$ Minimal Fisher Information -->
    <g transform="translate(270.48 478.5767) scale(0.12 -0.12)">
     <defs>
      <path id="DejaVuSans-4d" d="M 628 4666 
L 1569 4666 
L 2759 1491 
L 3956 4666 
L 4897 4666 
L 4897 0 
L 4281 0 
L 4281 4097 
L 3078 897 
L 2444 897 
L 1241 4097 
L 1241 0 
L 628 0 
L 628 4666 
z
" transform="scale(0.015625)"/>
      <path id="DejaVuSans-49" d="M 628 4666 
L 1259 4666 
L 1259 0 
L 628 0 
L 628 4666 
z
" transform="scale(0.015625)"/>
      <path id="DejaVuSans-2261" d="M 678 2272 
L 4684 2272 
L 4684 1741 
L 678 1741 
L 678 2272 
z
M 678 3438 
L 4684 3438 
L 4684 2906 
L 678 2906 
L 678 3438 
z
M 678 1106 
L 4684 1106 
L 4684 575 
L 678 575 
L 678 1106 
z
" transform="scale(0.015625)"/>
      <path id="DejaVuSans-46" d="M 628 4666 
L 3309 4666 
L 3309 4134 
L 1259 4134 
L 1259 2759 
L 3109 2759 
L 3109 2228 
L 1259 2228 
L 1259 0 
L 628 0 
L 628 4666 
z
" transform="scale(0.015625)"/>
      <path id="DejaVuSans-66" d="M 2375 4863 
L 2375 4384 
L 1825 4384 
Q 1516 4384 1395 4259 
Q 1275 4134 1275 3809 
L 1275 3500 
L 2222 3500 
L 2222 3053 
L 1275 3053 
L 1275 0 
L 697 0 
L 697 3053 
L 147 3053 
L 147 3500 
L 697 3500 
L 697 3744 
Q 697 4328 969 4595 
Q 1241 4863 1831 4863 
L 2375 4863 
z
" transform="scale(0.015625)"/>
     </defs>
     <use xlink:href="#DejaVuSans-4d" transform="translate(0 0.015625)"/>
     <use xlink:href="#DejaVuSans-69" transform="translate(86.279297 0.015625)"/>
     <use xlink:href="#DejaVuSans-6e" transform="translate(114.0625 0.015625)"/>
     <use xlink:href="#DejaVuSans-69" transform="translate(177.441406 0.015625)"/>
     <use xlink:href="#DejaVuSans-6d" transform="translate(205.224609 0.015625)"/>
     <use xlink:href="#DejaVuSans-61" transform="translate(302.636719 0.015625)"/>
     <use xlink:href="#DejaVuSans-6c" transform="translate(363.916016 0.015625)"/>
     <use xlink:href="#DejaVuSans-20" transform="translate(391.699219 0.015625)"/>
     <use xlink:href="#DejaVuSans-49" transform="translate(423.486328 0.015625)"/>
     <use xlink:href="#DejaVuSans-6e" transform="translate(452.978516 0.015625)"/>
     <use xlink:href="#DejaVuSans-63" transform="translate(516.357422 0.015625)"/>
     <use xlink:href="#DejaVuSans-6f" transform="translate(571.337891 0.015625)"/>
     <use xlink:href="#DejaVuSans-6e" transform="translate(632.519531 0.015625)"/>
     <use xlink:href="#DejaVuSans-73" transform="translate(695.898438 0.015625)"/>
     <use xlink:href="#DejaVuSans-69" transform="translate(747.998047 0.015625)"/>
     <use xlink:href="#DejaVuSans-73" transform="translate(775.78125 0.015625)"/>
     <use xlink:href="#DejaVuSans-74" transform="translate(827.880859 0.015625)"/>
     <use xlink:href="#DejaVuSans-65" transform="translate(867.089844 0.015625)"/>
     <use xlink:href="#DejaVuSans-6e" transform="translate(928.613281 0.015625)"/>
     <use xlink:href="#DejaVuSans-63" transform="translate(991.992188 0.015625)"/>
     <use xlink:href="#DejaVuSans-79" transform="translate(1046.972656 0.015625)"/>
     <use xlink:href="#DejaVuSans-20" transform="translate(1106.152344 0.015625)"/>
     <use xlink:href="#DejaVuSans-2261" transform="translate(1157.421875 0.015625)"/>
     <use xlink:href="#DejaVuSans-20" transform="translate(1260.693359 0.015625)"/>
     <use xlink:href="#DejaVuSans-4d" transform="translate(1292.480469 0.015625)"/>
     <use xlink:href="#DejaVuSans-69" transform="translate(1378.759766 0.015625)"/>
     <use xlink:href="#DejaVuSans-6e" transform="translate(1406.542969 0.015625)"/>
     <use xlink:href="#DejaVuSans-69" transform="translate(1469.921875 0.015625)"/>
     <use xlink:href="#DejaVuSans-6d" transform="translate(1497.705078 0.015625)"/>
     <use xlink:href="#DejaVuSans-61" transform="translate(1595.117188 0.015625)"/>
     <use xlink:href="#DejaVuSans-6c" transform="translate(1656.396484 0.015625)"/>
     <use xlink:href="#DejaVuSans-20" transform="translate(1684.179688 0.015625)"/>
     <use xlink:href="#DejaVuSans-46" transform="translate(1715.966797 0.015625)"/>
     <use xlink:href="#DejaVuSans-69" transform="translate(1773.486328 0.015625)"/>
     <use xlink:href="#DejaVuSans-73" transform="translate(1801.269531 0.015625)"/>
     <use xlink:href="#DejaVuSans-68" transform="translate(1853.369141 0.015625)"/>
     <use xlink:href="#DejaVuSans-65" transform="translate(1916.748047 0.015625)"/>
     <use xlink:href="#DejaVuSans-72" transform="translate(1978.271484 0.015625)"/>
     <use xlink:href="#DejaVuSans-20" transform="translate(2019.384766 0.015625)"/>
     <use xlink:href="#DejaVuSans-49" transform="translate(2051.171875 0.015625)"/>
     <use xlink:href="#DejaVuSans-6e" transform="translate(2080.664062 0.015625)"/>
     <use xlink:href="#DejaVuSans-66" transform="translate(2144.042969 0.015625)"/>
     <use xlink:href="#DejaVuSans-6f" transform="translate(2179.248047 0.015625)"/>
     <use xlink:href="#DejaVuSans-72" transform="translate(2240.429688 0.015625)"/>
     <use xlink:href="#DejaVuSans-6d" transform="translate(2281.542969 0.015625)"/>
     <use xlink:href="#DejaVuSans-61" transform="translate(2378.955078 0.015625)"/>
     <use xlink:href="#DejaVuSans-74" transform="translate(2440.234375 0.015625)"/>
     <use xlink:href="#DejaVuSans-69" transform="translate(2479.443359 0.015625)"/>
     <use xlink:href="#DejaVuSans-6f" transform="translate(2507.226562 0.015625)"/>
     <use xlink:href="#DejaVuSans-6e" transform="translate(2568.408203 0.015625)"/>
    </g>
   </g>
   <g id="text_23">
    <!-- Lagrangian and Hamiltonian formulations are equivalent -->
    <g transform="translate(272.512812 504.7207) scale(0.11 -0.11)">
     <defs>
      <path id="DejaVuSans-67" d="M 2906 1791 
Q 2906 2416 2648 2759 
Q 2391 3103 1925 3103 
Q 1463 3103 1205 2759 
Q 947 2416 947 1791 
Q 947 1169 1205 825 
Q 1463 481 1925 481 
Q 2391 481 2648 825 
Q 2906 1169 2906 1791 
z
M 3481 434 
Q 3481 -459 3084 -895 
Q 2688 -1331 1869 -1331 
Q 1566 -1331 1297 -1286 
Q 1028 -1241 775 -1147 
L 775 -588 
Q 1028 -725 1275 -790 
Q 1522 -856 1778 -856 
Q 2344 -856 2625 -561 
Q 2906 -266 2906 331 
L 2906 616 
Q 2728 306 2450 153 
Q 2172 0 1784 0 
Q 1141 0 747 490 
Q 353 981 353 1791 
Q 353 2603 747 3093 
Q 1141 3584 1784 3584 
Q 2172 3584 2450 3431 
Q 2728 3278 2906 2969 
L 2906 3500 
L 3481 3500 
L 3481 434 
z
" transform="scale(0.015625)"/>
      <path id="DejaVuSans-64" d="M 2906 2969 
L 2906 4863 
L 3481 4863 
L 3481 0 
L 2906 0 
L 2906 525 
Q 2725 213 2448 61 
Q 2172 -91 1784 -91 
Q 1150 -91 751 415 
Q 353 922 353 1747 
Q 353 2572 751 3078 
Q 1150 3584 1784 3584 
Q 2172 3584 2448 3432 
Q 2725 3281 2906 2969 
z
M 947 1747 
Q 947 1113 1208 752 
Q 1469 391 1925 391 
Q 2381 391 2643 752 
Q 2906 1113 2906 1747 
Q 2906 2381 2643 2742 
Q 2381 3103 1925 3103 
Q 1469 3103 1208 2742 
Q 947 2381 947 1747 
z
" transform="scale(0.015625)"/>
      <path id="DejaVuSans-48" d="M 628 4666 
L 1259 4666 
L 1259 2753 
L 3553 2753 
L 3553 4666 
L 4184 4666 
L 4184 0 
L 3553 0 
L 3553 2222 
L 1259 2222 
L 1259 0 
L 628 0 
L 628 4666 
z
" transform="scale(0.015625)"/>
      <path id="DejaVuSans-75" d="M 544 1381 
L 544 3500 
L 1119 3500 
L 1119 1403 
Q 1119 906 1312 657 
Q 1506 409 1894 409 
Q 2359 409 2629 706 
Q 2900 1003 2900 1516 
L 2900 3500 
L 3475 3500 
L 3475 0 
L 2900 0 
L 2900 538 
Q 2691 219 2414 64 
Q 2138 -91 1772 -91 
Q 1169 -91 856 284 
Q 544 659 544 1381 
z
M 1991 3584 
L 1991 3584 
z
" transform="scale(0.015625)"/>
      <path id="DejaVuSans-71" d="M 947 1747 
Q 947 1113 1208 752 
Q 1469 391 1925 391 
Q 2381 391 2643 752 
Q 2906 1113 2906 1747 
Q 2906 2381 2643 2742 
Q 2381 3103 1925 3103 
Q 1469 3103 1208 2742 
Q 947 2381 947 1747 
z
M 2906 525 
Q 2725 213 2448 61 
Q 2172 -91 1784 -91 
Q 1150 -91 751 415 
Q 353 922 353 1747 
Q 353 2572 751 3078 
Q 1150 3584 1784 3584 
Q 2172 3584 2448 3432 
Q 2725 3281 2906 2969 
L 2906 3500 
L 3481 3500 
L 3481 -1331 
L 2906 -1331 
L 2906 525 
z
" transform="scale(0.015625)"/>
      <path id="DejaVuSans-76" d="M 191 3500 
L 800 3500 
L 1894 563 
L 2988 3500 
L 3597 3500 
L 2284 0 
L 1503 0 
L 191 3500 
z
" transform="scale(0.015625)"/>
     </defs>
     <use xlink:href="#DejaVuSans-4c"/>
     <use xlink:href="#DejaVuSans-61" transform="translate(55.712891 0)"/>
     <use xlink:href="#DejaVuSans-67" transform="translate(116.992188 0)"/>
     <use xlink:href="#DejaVuSans-72" transform="translate(180.46875 0)"/>
     <use xlink:href="#DejaVuSans-61" transform="translate(221.582031 0)"/>
     <use xlink:href="#DejaVuSans-6e" transform="translate(282.861328 0)"/>
     <use xlink:href="#DejaVuSans-67" transform="translate(346.240234 0)"/>
     <use xlink:href="#DejaVuSans-69" transform="translate(409.716797 0)"/>
     <use xlink:href="#DejaVuSans-61" transform="translate(437.5 0)"/>
     <use xlink:href="#DejaVuSans-6e" transform="translate(498.779297 0)"/>
     <use xlink:href="#DejaVuSans-20" transform="translate(562.158203 0)"/>
     <use xlink:href="#DejaVuSans-61" transform="translate(593.945312 0)"/>
     <use xlink:href="#DejaVuSans-6e" transform="translate(655.224609 0)"/>
     <use xlink:href="#DejaVuSans-64" transform="translate(718.603516 0)"/>
     <use xlink:href="#DejaVuSans-20" transform="translate(782.080078 0)"/>
     <use xlink:href="#DejaVuSans-48" transform="translate(813.867188 0)"/>
     <use xlink:href="#DejaVuSans-61" transform="translate(889.0625 0)"/>
     <use xlink:href="#DejaVuSans-6d" transform="translate(950.341797 0)"/>
     <use xlink:href="#DejaVuSans-69" transform="translate(1047.753906 0)"/>
     <use xlink:href="#DejaVuSans-6c" transform="translate(1075.537109 0)"/>
     <use xlink:href="#DejaVuSans-74" transform="translate(1103.320312 0)"/>
     <use xlink:href="#DejaVuSans-6f" transform="translate(1142.529297 0)"/>
     <use xlink:href="#DejaVuSans-6e" transform="translate(1203.710938 0)"/>
     <use xlink:href="#DejaVuSans-69" transform="translate(1267.089844 0)"/>
     <use xlink:href="#DejaVuSans-61" transform="translate(1294.873047 0)"/>
     <use xlink:href="#DejaVuSans-6e" transform="translate(1356.152344 0)"/>
     <use xlink:href="#DejaVuSans-20" transform="translate(1419.53125 0)"/>
     <use xlink:href="#DejaVuSans-66" transform="translate(1451.318359 0)"/>
     <use xlink:href="#DejaVuSans-6f" transform="translate(1486.523438 0)"/>
     <use xlink:href="#DejaVuSans-72" transform="translate(1547.705078 0)"/>
     <use xlink:href="#DejaVuSans-6d" transform="translate(1587.068359 0)"/>
     <use xlink:href="#DejaVuSans-75" transform="translate(1684.480469 0)"/>
     <use xlink:href="#DejaVuSans-6c" transform="translate(1747.859375 0)"/>
     <use xlink:href="#DejaVuSans-61" transform="translate(1775.642578 0)"/>
     <use xlink:href="#DejaVuSans-74" transform="translate(1836.921875 0)"/>
     <use xlink:href="#DejaVuSans-69" transform="translate(1876.130859 0)"/>
     <use xlink:href="#DejaVuSans-6f" transform="translate(1903.914062 0)"/>
     <use xlink:href="#DejaVuSans-6e" transform="translate(1965.095703 0)"/>
     <use xlink:href="#DejaVuSans-73" transform="translate(2028.474609 0)"/>
     <use xlink:href="#DejaVuSans-20" transform="translate(2080.574219 0)"/>
     <use xlink:href="#DejaVuSans-61" transform="translate(2112.361328 0)"/>
     <use xlink:href="#DejaVuSans-72" transform="translate(2173.640625 0)"/>
     <use xlink:href="#DejaVuSans-65" transform="translate(2212.503906 0)"/>
     <use xlink:href="#DejaVuSans-20" transform="translate(2274.027344 0)"/>
     <use xlink:href="#DejaVuSans-65" transform="translate(2305.814453 0)"/>
     <use xlink:href="#DejaVuSans-71" transform="translate(2367.337891 0)"/>
     <use xlink:href="#DejaVuSans-75" transform="translate(2430.814453 0)"/>
     <use xlink:href="#DejaVuSans-69" transform="translate(2494.193359 0)"/>
     <use xlink:href="#DejaVuSans-76" transform="translate(2521.976562 0)"/>
     <use xlink:href="#DejaVuSans-61" transform="translate(2581.15625 0)"/>
     <use xlink:href="#DejaVuSans-6c" transform="translate(2642.435547 0)"/>
     <use xlink:href="#DejaVuSans-65" transform="translate(2670.21875 0)"/>
     <use xlink:href="#DejaVuSans-6e" transform="translate(2731.742188 0)"/>
     <use xlink:href="#DejaVuSans-74" transform="translate(2795.121094 0)"/>
    </g>
   </g>
   <g id="text_24">
    <!-- via Legendre transform -->
    <g transform="translate(369.622656 525.6359) scale(0.1 -0.1)">
     <use xlink:href="#DejaVuSans-Oblique-76"/>
     <use xlink:href="#DejaVuSans-Oblique-69" transform="translate(59.179688 0)"/>
     <use xlink:href="#DejaVuSans-Oblique-61" transform="translate(86.962891 0)"/>
     <use xlink:href="#DejaVuSans-Oblique-20" transform="translate(148.242188 0)"/>
     <use xlink:href="#DejaVuSans-Oblique-4c" transform="translate(180.029297 0)"/>
     <use xlink:href="#DejaVuSans-Oblique-65" transform="translate(235.742188 0)"/>
     <use xlink:href="#DejaVuSans-Oblique-67" transform="translate(297.265625 0)"/>
     <use xlink:href="#DejaVuSans-Oblique-65" transform="translate(360.742188 0)"/>
     <use xlink:href="#DejaVuSans-Oblique-6e" transform="translate(422.265625 0)"/>
     <use xlink:href="#DejaVuSans-Oblique-64" transform="translate(485.644531 0)"/>
     <use xlink:href="#DejaVuSans-Oblique-72" transform="translate(549.121094 0)"/>
     <use xlink:href="#DejaVuSans-Oblique-65" transform="translate(590.234375 0)"/>
     <use xlink:href="#DejaVuSans-Oblique-20" transform="translate(651.757812 0)"/>
     <use xlink:href="#DejaVuSans-Oblique-74" transform="translate(683.544922 0)"/>
     <use xlink:href="#DejaVuSans-Oblique-72" transform="translate(722.753906 0)"/>
     <use xlink:href="#DejaVuSans-Oblique-61" transform="translate(763.867188 0)"/>
     <use xlink:href="#DejaVuSans-Oblique-6e" transform="translate(825.146484 0)"/>
     <use xlink:href="#DejaVuSans-Oblique-73" transform="translate(888.525391 0)"/>
     <use xlink:href="#DejaVuSans-Oblique-66" transform="translate(940.625 0)"/>
     <use xlink:href="#DejaVuSans-Oblique-6f" transform="translate(975.830078 0)"/>
     <use xlink:href="#DejaVuSans-Oblique-72" transform="translate(1037.011719 0)"/>
     <use xlink:href="#DejaVuSans-Oblique-6d" transform="translate(1078.125 0)"/>
    </g>
   </g>
   <g id="text_25">
    <!-- Figure 4: Lagrangian-Hamiltonian Duality of Logical Dynamics -->
    <g transform="translate(148.30125 19.3575) scale(0.16 -0.16)">
     <defs>
      <path id="DejaVuSans-Bold-34" d="M 2356 3675 
L 1038 1722 
L 2356 1722 
L 2356 3675 
z
M 2156 4666 
L 3494 4666 
L 3494 1722 
L 4159 1722 
L 4159 850 
L 3494 850 
L 3494 0 
L 2356 0 
L 2356 850 
L 288 850 
L 288 1881 
L 2156 4666 
z
" transform="scale(0.015625)"/>
      <path id="DejaVuSans-Bold-63" d="M 3366 3391 
L 3366 2478 
Q 3138 2634 2908 2709 
Q 2678 2784 2431 2784 
Q 1963 2784 1702 2511 
Q 1441 2238 1441 1747 
Q 1441 1256 1702 982 
Q 1963 709 2431 709 
Q 2694 709 2930 787 
Q 3166 866 3366 1019 
L 3366 103 
Q 3103 6 2833 -42 
Q 2563 -91 2291 -91 
Q 1344 -91 809 395 
Q 275 881 275 1747 
Q 275 2613 809 3098 
Q 1344 3584 2291 3584 
Q 2566 3584 2833 3536 
Q 3100 3488 3366 3391 
z
" transform="scale(0.015625)"/>
     </defs>
     <use xlink:href="#DejaVuSans-Bold-46"/>
     <use xlink:href="#DejaVuSans-Bold-69" transform="translate(68.310547 0)"/>
     <use xlink:href="#DejaVuSans-Bold-67" transform="translate(102.587891 0)"/>
     <use xlink:href="#DejaVuSans-Bold-75" transform="translate(174.169922 0)"/>
     <use xlink:href="#DejaVuSans-Bold-72" transform="translate(245.361328 0)"/>
     <use xlink:href="#DejaVuSans-Bold-65" transform="translate(294.677734 0)"/>
     <use xlink:href="#DejaVuSans-Bold-20" transform="translate(362.5 0)"/>
     <use xlink:href="#DejaVuSans-Bold-34" transform="translate(397.314453 0)"/>
     <use xlink:href="#DejaVuSans-Bold-3a" transform="translate(466.894531 0)"/>
     <use xlink:href="#DejaVuSans-Bold-20" transform="translate(506.884766 0)"/>
     <use xlink:href="#DejaVuSans-Bold-4c" transform="translate(541.699219 0)"/>
     <use xlink:href="#DejaVuSans-Bold-61" transform="translate(605.419922 0)"/>
     <use xlink:href="#DejaVuSans-Bold-67" transform="translate(672.900391 0)"/>
     <use xlink:href="#DejaVuSans-Bold-72" transform="translate(744.482422 0)"/>
     <use xlink:href="#DejaVuSans-Bold-61" transform="translate(793.798828 0)"/>
     <use xlink:href="#DejaVuSans-Bold-6e" transform="translate(861.279297 0)"/>
     <use xlink:href="#DejaVuSans-Bold-67" transform="translate(932.470703 0)"/>
     <use xlink:href="#DejaVuSans-Bold-69" transform="translate(1004.052734 0)"/>
     <use xlink:href="#DejaVuSans-Bold-61" transform="translate(1038.330078 0)"/>
     <use xlink:href="#DejaVuSans-Bold-6e" transform="translate(1105.810547 0)"/>
     <use xlink:href="#DejaVuSans-Bold-2d" transform="translate(1177.001953 0)"/>
     <use xlink:href="#DejaVuSans-Bold-48" transform="translate(1218.505859 0)"/>
     <use xlink:href="#DejaVuSans-Bold-61" transform="translate(1302.197266 0)"/>
     <use xlink:href="#DejaVuSans-Bold-6d" transform="translate(1369.677734 0)"/>
     <use xlink:href="#DejaVuSans-Bold-69" transform="translate(1473.876953 0)"/>
     <use xlink:href="#DejaVuSans-Bold-6c" transform="translate(1508.154297 0)"/>
     <use xlink:href="#DejaVuSans-Bold-74" transform="translate(1542.431641 0)"/>
     <use xlink:href="#DejaVuSans-Bold-6f" transform="translate(1590.234375 0)"/>
     <use xlink:href="#DejaVuSans-Bold-6e" transform="translate(1658.935547 0)"/>
     <use xlink:href="#DejaVuSans-Bold-69" transform="translate(1730.126953 0)"/>
     <use xlink:href="#DejaVuSans-Bold-61" transform="translate(1764.404297 0)"/>
     <use xlink:href="#DejaVuSans-Bold-6e" transform="translate(1831.884766 0)"/>
     <use xlink:href="#DejaVuSans-Bold-20" transform="translate(1903.076172 0)"/>
     <use xlink:href="#DejaVuSans-Bold-44" transform="translate(1937.890625 0)"/>
     <use xlink:href="#DejaVuSans-Bold-75" transform="translate(2020.898438 0)"/>
     <use xlink:href="#DejaVuSans-Bold-61" transform="translate(2092.089844 0)"/>
     <use xlink:href="#DejaVuSans-Bold-6c" transform="translate(2159.570312 0)"/>
     <use xlink:href="#DejaVuSans-Bold-69" transform="translate(2193.847656 0)"/>
     <use xlink:href="#DejaVuSans-Bold-74" transform="translate(2228.125 0)"/>
     <use xlink:href="#DejaVuSans-Bold-79" transform="translate(2275.927734 0)"/>
     <use xlink:href="#DejaVuSans-Bold-20" transform="translate(2341.113281 0)"/>
     <use xlink:href="#DejaVuSans-Bold-6f" transform="translate(2375.927734 0)"/>
     <use xlink:href="#DejaVuSans-Bold-66" transform="translate(2444.628906 0)"/>
     <use xlink:href="#DejaVuSans-Bold-20" transform="translate(2488.134766 0)"/>
     <use xlink:href="#DejaVuSans-Bold-4c" transform="translate(2522.949219 0)"/>
     <use xlink:href="#DejaVuSans-Bold-6f" transform="translate(2586.669922 0)"/>
     <use xlink:href="#DejaVuSans-Bold-67" transform="translate(2655.371094 0)"/>
     <use xlink:href="#DejaVuSans-Bold-69" transform="translate(2726.953125 0)"/>
     <use xlink:href="#DejaVuSans-Bold-63" transform="translate(2761.230469 0)"/>
     <use xlink:href="#DejaVuSans-Bold-61" transform="translate(2820.507812 0)"/>
     <use xlink:href="#DejaVuSans-Bold-6c" transform="translate(2887.988281 0)"/>
     <use xlink:href="#DejaVuSans-Bold-20" transform="translate(2922.265625 0)"/>
     <use xlink:href="#DejaVuSans-Bold-44" transform="translate(2957.080078 0)"/>
     <use xlink:href="#DejaVuSans-Bold-79" transform="translate(3040.087891 0)"/>
     <use xlink:href="#DejaVuSans-Bold-6e" transform="translate(3105.273438 0)"/>
     <use xlink:href="#DejaVuSans-Bold-61" transform="translate(3176.464844 0)"/>
     <use xlink:href="#DejaVuSans-Bold-6d" transform="translate(3243.945312 0)"/>
     <use xlink:href="#DejaVuSans-Bold-69" transform="translate(3348.144531 0)"/>
     <use xlink:href="#DejaVuSans-Bold-63" transform="translate(3382.421875 0)"/>
     <use xlink:href="#DejaVuSans-Bold-73" transform="translate(3441.699219 0)"/>
    </g>
   </g>
  </g>
 </g>
 <defs>
  <clipPath id="pd298781e03">
   <rect x="7.2" y="39.3575" width="842.4" height="522.88"/>
  </clipPath>
 </defs>
</svg>
